<?xml version="1.0" encoding="UTF-8" standalone="no"?>
<!DOCTYPE svg PUBLIC "-//W3C//DTD SVG 1.1//EN" "http://www.w3.org/Graphics/SVG/1.1/DTD/svg11.dtd">
<!-- Created with Vectornator (http://vectornator.io/) -->
<svg height="100%" stroke-miterlimit="10" style="fill-rule:nonzero;clip-rule:evenodd;stroke-linecap:round;stroke-linejoin:round;" version="1.1" viewBox="0 0 500 500" width="100%" xml:space="preserve" xmlns="http://www.w3.org/2000/svg" xmlns:vectornator="http://vectornator.io" xmlns:xlink="http://www.w3.org/1999/xlink">
<defs/>
<g id="Untitled" vectornator:layerName="Untitled">
<g opacity="1">
<path d="M389.822 236.436L389.822 247.126" fill="#01a77f" fill-rule="nonzero" opacity="1" stroke="#008f80" stroke-linecap="round" stroke-linejoin="round" stroke-width="2.195"/>
<path d="M395.166 241.781L384.477 241.781" fill="#01a77f" fill-rule="nonzero" opacity="1" stroke="#008f80" stroke-linecap="round" stroke-linejoin="round" stroke-width="2.195"/>
<path d="M140.201 161.661L140.201 172.35" fill="#01a77f" fill-rule="nonzero" opacity="1" stroke="#008f80" stroke-linecap="round" stroke-linejoin="round" stroke-width="2.195"/>
<path d="M145.546 167.005L134.856 167.005" fill="#01a77f" fill-rule="nonzero" opacity="1" stroke="#008f80" stroke-linecap="round" stroke-linejoin="round" stroke-width="2.195"/>
<path d="M272.465 128.67L272.465 139.36" fill="#01a77f" fill-rule="nonzero" opacity="1" stroke="#008f80" stroke-linecap="round" stroke-linejoin="round" stroke-width="2.195"/>
<path d="M277.81 134.015L267.12 134.015" fill="#01a77f" fill-rule="nonzero" opacity="1" stroke="#008f80" stroke-linecap="round" stroke-linejoin="round" stroke-width="2.195"/>
<path d="M340.338 355.198L340.338 365.888" fill="#01a77f" fill-rule="nonzero" opacity="1" stroke="#008f80" stroke-linecap="round" stroke-linejoin="round" stroke-width="2.195"/>
<path d="M345.682 360.543L334.993 360.543" fill="#01a77f" fill-rule="nonzero" opacity="1" stroke="#008f80" stroke-linecap="round" stroke-linejoin="round" stroke-width="2.195"/>
<path d="M163.601 357.398L163.601 368.088" fill="#01a77f" fill-rule="nonzero" opacity="1" stroke="#008f80" stroke-linecap="round" stroke-linejoin="round" stroke-width="2.195"/>
<path d="M168.945 362.743L158.256 362.743" fill="#01a77f" fill-rule="nonzero" opacity="1" stroke="#008f80" stroke-linecap="round" stroke-linejoin="round" stroke-width="2.195"/>
<path d="M121.922 260.214C121.922 262.788 119.836 264.872 117.261 264.872C114.69 264.872 112.6 262.788 112.6 260.214C112.6 257.64 114.69 255.553 117.261 255.553C119.836 255.553 121.922 257.64 121.922 260.214" fill="#01a77f" fill-rule="nonzero" opacity="1" stroke="none"/>
<path d="M370.444 167.266C370.444 169.84 368.354 171.927 365.783 171.927C363.209 171.927 361.122 169.84 361.122 167.266C361.122 164.692 363.209 162.608 365.783 162.608C368.354 162.608 370.444 164.692 370.444 167.266" fill="#01a77f" fill-rule="nonzero" opacity="1" stroke="none"/>
<path d="M259.377 405.89C259.377 408.464 257.29 410.551 254.718 410.551C252.144 410.551 250.057 408.464 250.057 405.89C250.057 403.316 252.144 401.232 254.718 401.232C257.29 401.232 259.377 403.316 259.377 405.89" fill="#01a77f" fill-rule="nonzero" opacity="1" stroke="none"/>
<path d="M191.515 431.537C194.812 431.537 198.015 431.85 201.045 432.662C209.051 434.803 216.466 440.864 223.633 446.726C232.124 453.67 240.904 460.851 250.003 460.851C259.099 460.851 267.876 453.67 276.364 446.729C283.534 440.864 290.949 434.803 298.955 432.662C307.351 430.42 317.057 431.978 326.445 433.484C337.529 435.26 347.995 436.938 355.446 432.629C363.065 428.224 366.857 418.215 370.873 407.619C374.21 398.811 377.664 389.707 383.684 383.684C389.707 377.664 398.814 374.212 407.619 370.873C418.215 366.857 428.224 363.065 432.632 355.446C436.944 347.995 435.263 337.527 433.484 326.445C431.978 317.057 430.42 307.349 432.662 298.958C434.805 290.949 440.867 283.534 446.732 276.367C453.67 267.876 460.851 259.096 460.851 250C460.851 240.904 453.67 232.124 446.732 223.636C440.867 216.466 434.805 209.053 432.662 201.045C430.42 192.654 431.978 182.945 433.484 173.555C435.266 162.473 436.944 152.007 432.632 144.554C428.224 136.937 418.215 133.143 407.621 129.127C398.814 125.79 389.707 122.339 383.687 116.316C377.667 110.295 374.213 101.189 370.875 92.3814C366.86 81.7845 363.068 71.7787 355.449 67.3711C347.998 63.0587 337.529 64.7396 326.445 66.5157C317.057 68.0249 307.349 69.5804 298.958 67.3384C290.949 65.1972 283.534 59.1333 276.364 53.271C267.876 46.3271 259.099 39.149 250.003 39.149C240.907 39.149 232.127 46.3271 223.639 53.271C216.469 59.1333 209.053 65.1972 201.047 67.3384C192.662 69.5804 182.945 68.0249 173.555 66.5157C162.479 64.7396 152.01 63.0587 144.557 67.3683C136.94 71.776 133.145 81.7818 129.133 92.3787C125.793 101.186 122.341 110.293 116.318 116.316C110.298 122.336 101.191 125.787 92.3841 129.125C81.7899 133.14 71.7815 136.935 67.3738 144.554C63.0615 152.007 64.7396 162.473 66.5184 173.555C68.0249 182.943 69.5831 192.651 67.3411 201.042C65.1999 209.051 59.136 216.463 53.2737 223.636C46.3298 232.124 39.149 240.904 39.149 250C39.149 259.096 46.3298 267.873 53.2737 276.364C59.136 283.531 65.1999 290.946 67.3411 298.953C69.5831 307.346 68.0249 317.057 66.5184 326.445C64.7396 337.527 63.0615 347.993 67.3711 355.443C71.776 363.063 81.7845 366.855 92.3787 370.87C101.189 374.21 110.295 377.661 116.318 383.682C122.336 389.705 125.79 398.811 129.13 407.616C133.143 418.213 136.937 428.221 144.557 432.629C152.005 436.938 162.473 435.26 173.555 433.482C179.551 432.52 185.68 431.537 191.515 431.537M250.003 466.83C238.771 466.83 229.149 458.963 219.847 451.355C212.862 445.642 206.264 440.246 199.503 438.439C192.341 436.527 183.275 437.982 174.503 439.387C162.874 441.251 150.855 443.179 141.56 437.805C132.099 432.332 127.746 420.844 123.537 409.738C120.421 401.519 117.204 393.025 112.088 387.912C106.975 382.796 98.478 379.576 90.262 376.463C79.153 372.254 67.6653 367.901 62.1925 358.44C56.8178 349.145 58.7492 337.123 60.6125 325.497C62.0209 316.728 63.4756 307.656 61.5632 300.497C59.7571 293.736 54.3579 287.135 48.6454 280.151C41.0369 270.848 33.1695 261.229 33.1695 250C33.1695 238.768 41.0369 229.152 48.6454 219.849C54.3579 212.862 59.7571 206.261 61.5632 199.497C63.4756 192.338 62.0209 183.272 60.6125 174.503C58.7492 162.874 56.8205 150.852 62.1952 141.558C67.6707 132.099 79.1557 127.743 90.2647 123.535C98.4807 120.418 106.977 117.198 112.091 112.085C117.206 106.972 120.424 98.4753 123.54 90.2593C127.749 79.153 132.102 67.6653 141.56 62.1925C150.855 56.8123 162.877 58.7465 174.503 60.6098C183.283 62.0182 192.355 63.4783 199.505 61.5605C206.267 59.7517 212.867 54.3552 219.852 48.6399C229.152 41.0341 238.774 33.1696 250.003 33.1696C261.232 33.1696 270.851 41.0341 280.151 48.6399C287.141 54.3552 293.739 59.7517 300.503 61.5605C307.662 63.4728 316.728 62.0182 325.499 60.6125C337.123 58.7465 349.145 56.815 358.442 62.1925C367.903 67.668 372.259 79.1557 376.468 90.262C379.582 98.478 382.804 106.975 387.918 112.088C393.031 117.201 401.525 120.421 409.738 123.537C420.85 127.746 432.335 132.099 437.807 141.56C443.185 150.855 441.256 162.877 439.39 174.503C437.985 183.272 436.527 192.341 438.442 199.5C440.248 206.264 445.645 212.865 451.36 219.849C458.966 229.152 466.83 238.771 466.83 250C466.83 261.229 458.966 270.848 451.36 280.151C445.645 287.138 440.248 293.739 438.442 300.5C436.527 307.659 437.982 316.728 439.387 325.499C441.256 337.126 443.185 349.148 437.807 358.44C432.332 367.901 420.85 372.257 409.738 376.465C401.525 379.579 393.028 382.799 387.915 387.915C382.799 393.028 379.579 401.522 376.465 409.741C372.257 420.847 367.901 432.332 358.44 437.807C349.148 443.182 337.123 441.254 325.499 439.387C316.733 437.982 307.662 436.527 300.5 438.439C293.736 440.246 287.141 445.642 280.151 451.357C270.851 458.963 261.232 466.83 250.003 466.83" fill="#01a77f" fill-rule="nonzero" opacity="1" stroke="none"/>
<path d="M250.002 76.042C154.08 76.042 76.0439 154.078 76.0439 250C76.0439 345.92 154.08 423.958 250.002 423.958C345.921 423.958 423.957 345.92 423.957 250C423.957 154.078 345.921 76.042 250.002 76.042M250.002 425.453C153.254 425.453 74.5484 346.745 74.5484 250C74.5484 153.255 153.254 74.5464 250.002 74.5464C346.747 74.5464 425.453 153.255 425.453 250C425.453 346.745 346.747 425.453 250.002 425.453" fill="#01a77f" fill-rule="nonzero" opacity="1" stroke="none"/>
<path d="M262.654 343.827C351.123 349.248 356.918 293.09 343.937 241.369C338.001 217.315 328.29 194.446 320.706 179.041C305.219 186.459 283.069 198.102 263.621 212.796C244.77 227.002 228.447 244.336 222.114 263.511C214.108 287.83 222.411 315.098 262.654 343.827" fill="#01a77f" fill-rule="nonzero" opacity="1" stroke="#01a77f" stroke-linecap="round" stroke-linejoin="round" stroke-width="2.195"/>
<path d="M318.587 185.218L256.237 362.761" fill="#b2cbc5" fill-rule="nonzero" opacity="1" stroke="#b2cbc5" stroke-linecap="round" stroke-linejoin="round" stroke-width="2.195"/>
<path d="M243.221 339.276C336.959 290.809 308.595 229.87 263.753 184.93C243 163.965 219.112 146.519 201.958 135.405C190.659 152.439 175.126 177.863 164.221 204.756C153.619 230.782 147.522 258.465 152.752 281.931C159.413 311.678 184.549 334.482 243.221 339.276" fill="#ffffff" fill-rule="nonzero" opacity="1" stroke="none"/>
<path d="M243.221 339.276C336.959 290.809 308.595 229.87 263.753 184.93C243 163.965 219.112 146.519 201.958 135.405C190.659 152.439 175.126 177.863 164.221 204.756C153.619 230.782 147.522 258.465 152.752 281.931C159.413 311.678 184.549 334.482 243.221 339.276Z" fill="none" opacity="1" stroke="#01a77f" stroke-linecap="round" stroke-linejoin="round" stroke-width="2.195"/>
<path d="M203.561 143.011L248.224 362.546" fill="#ffffff" fill-rule="nonzero" opacity="1" stroke="#01a77f" stroke-linecap="round" stroke-linejoin="round" stroke-width="2.195"/>
<path d="M203.561 143.011L248.224 362.546" fill="none" opacity="1" stroke="#01a77f" stroke-linecap="round" stroke-linejoin="round" stroke-width="2.195"/>
<path d="M237.102 301.076L259.083 258.743" fill="#ffffff" fill-rule="nonzero" opacity="1" stroke="#01a77f" stroke-linecap="round" stroke-linejoin="round" stroke-width="2.195"/>
<path d="M237.102 301.076L259.083 258.743" fill="none" opacity="1" stroke="#01a77f" stroke-linecap="round" stroke-linejoin="round" stroke-width="2.195"/>
<path d="M225.98 246.122L247.961 203.789" fill="#ffffff" fill-rule="nonzero" opacity="1" stroke="#01a77f" stroke-linecap="round" stroke-linejoin="round" stroke-width="2.195"/>
<path d="M225.98 246.122L247.961 203.789" fill="none" opacity="1" stroke="#01a77f" stroke-linecap="round" stroke-linejoin="round" stroke-width="2.195"/>
<path d="M233.583 301.789L196.867 271.336" fill="#ffffff" fill-rule="nonzero" opacity="1" stroke="#01a77f" stroke-linecap="round" stroke-linejoin="round" stroke-width="2.195"/>
<path d="M233.583 301.789L196.867 271.336" fill="none" opacity="1" stroke="#01a77f" stroke-linecap="round" stroke-linejoin="round" stroke-width="2.195"/>
<path d="M222.46 246.834L185.744 216.384" fill="#ffffff" fill-rule="nonzero" opacity="1" stroke="#01a77f" stroke-linecap="round" stroke-linejoin="round" stroke-width="2.195"/>
<path d="M222.46 246.834L185.744 216.384" fill="none" opacity="1" stroke="#01a77f" stroke-linecap="round" stroke-linejoin="round" stroke-width="2.195"/>
</g>
<g opacity="0">
<path d="M271.542 107.319C269.865 107.319 268.504 105.961 268.504 104.281L268.504 93.4259C268.504 91.7463 269.865 90.3877 271.542 90.3877C273.219 90.3877 274.58 91.7463 274.58 93.4259L274.58 104.281C274.58 105.961 273.219 107.319 271.542 107.319" fill="#008f80" fill-rule="nonzero" opacity="1" stroke="#01a77f" stroke-linecap="round" stroke-linejoin="round" stroke-width="2.507"/>
<path d="M276.971 101.891L266.113 101.891C264.436 101.891 263.077 100.532 263.077 98.8523C263.077 97.1755 264.436 95.8169 266.113 95.8169L276.971 95.8169C278.648 95.8169 280.009 97.1755 280.009 98.8523C280.009 100.532 278.648 101.891 276.971 101.891" fill="#008f80" fill-rule="nonzero" opacity="1" stroke="#01a77f" stroke-linecap="round" stroke-linejoin="round" stroke-width="2.507"/>
<path d="M96.8609 229.688C95.1841 229.688 93.8227 228.33 93.8227 226.65L93.8227 215.795C93.8227 214.115 95.1841 212.757 96.8609 212.757C98.5377 212.757 99.8991 214.115 99.8991 215.795L99.8991 226.65C99.8991 228.33 98.5377 229.688 96.8609 229.688" fill="#008f80" fill-rule="nonzero" opacity="1" stroke="#01a77f" stroke-linecap="round" stroke-linejoin="round" stroke-width="2.507"/>
<path d="M102.29 224.26L91.4316 224.26C89.7548 224.26 88.3962 222.901 88.3962 221.222C88.3962 219.545 89.7548 218.186 91.4316 218.186L102.29 218.186C103.966 218.186 105.328 219.545 105.328 221.222C105.328 222.901 103.966 224.26 102.29 224.26" fill="#008f80" fill-rule="nonzero" opacity="1" stroke="#01a77f" stroke-linecap="round" stroke-linejoin="round" stroke-width="2.507"/>
<path d="M250 46.8953C138.006 46.8953 46.8953 138.009 46.8953 250C46.8953 361.991 138.006 453.105 250 453.105C361.994 453.105 453.105 361.991 453.105 250C453.105 138.009 361.994 46.8953 250 46.8953M250 459.178C134.658 459.178 40.8216 365.342 40.8216 250C40.8216 134.658 134.658 40.8216 250 40.8216C365.342 40.8216 459.178 134.658 459.178 250C459.178 365.342 365.342 459.178 250 459.178" fill="#008f80" fill-rule="nonzero" opacity="1" stroke="#01a77f" stroke-linecap="round" stroke-linejoin="round" stroke-width="2.507"/>
<path d="M250 57.4743C143.839 57.4743 57.4738 143.842 57.4738 250.001C57.4738 356.159 143.839 442.527 250 442.527C356.161 442.527 442.526 356.159 442.526 250.001C442.526 143.842 356.161 57.4743 250 57.4743M250 444.046C143.003 444.046 55.9547 356.997 55.9547 250.001C55.9547 143.004 143.003 55.9552 250 55.9552C356.997 55.9552 444.045 143.004 444.045 250.001C444.045 356.997 356.997 444.046 250 444.046" fill="#008f80" fill-rule="nonzero" opacity="1" stroke="#01a77f" stroke-linecap="round" stroke-linejoin="round" stroke-width="2.507"/>
<path d="M328.675 383.347C326.998 383.347 325.636 381.988 325.636 380.308L325.636 369.453C325.636 367.776 326.998 366.418 328.675 366.418C330.351 366.418 331.713 367.776 331.713 369.453L331.713 380.308C331.713 381.988 330.351 383.347 328.675 383.347" fill="#008f80" fill-rule="nonzero" opacity="1" stroke="#01a77f" stroke-linecap="round" stroke-linejoin="round" stroke-width="2.507"/>
<path d="M334.104 377.918L323.246 377.918C321.569 377.918 320.21 376.559 320.21 374.88C320.21 373.203 321.569 371.844 323.246 371.844L334.104 371.844C335.78 371.844 337.142 373.203 337.142 374.88C337.142 376.559 335.78 377.918 334.104 377.918" fill="#008f80" fill-rule="nonzero" opacity="1" stroke="#01a77f" stroke-linecap="round" stroke-linejoin="round" stroke-width="2.507"/>
<path d="M213.561 398.725C213.561 401.34 211.441 403.459 208.826 403.459C206.212 403.459 204.095 401.34 204.095 398.725C204.095 396.113 206.212 393.993 208.826 393.993C211.441 393.993 213.561 396.113 213.561 398.725" fill="#008f80" fill-rule="nonzero" opacity="1" stroke="#01a77f" stroke-linecap="round" stroke-linejoin="round" stroke-width="2.507"/>
<path d="M401.172 286.651C401.172 289.263 399.052 291.385 396.438 291.385C393.823 291.385 391.706 289.263 391.706 286.651C391.706 284.036 393.823 281.917 396.438 281.917C399.052 281.917 401.172 284.036 401.172 286.651" fill="#008f80" fill-rule="nonzero" opacity="1" stroke="#01a77f" stroke-linecap="round" stroke-linejoin="round" stroke-width="2.507"/>
<path d="M177.893 127.91C177.893 130.522 175.773 132.645 173.161 132.645C170.546 132.645 168.427 130.522 168.427 127.91C168.427 125.298 170.546 123.176 173.161 123.176C175.773 123.176 177.893 125.298 177.893 127.91" fill="#008f80" fill-rule="nonzero" opacity="1" stroke="#01a77f" stroke-linecap="round" stroke-linejoin="round" stroke-width="2.507"/>
<path d="M163.476 196.438L184.068 201.338C187.059 202.077 189.458 204.105 190.678 206.9C191.899 209.695 191.752 212.838 190.274 215.519C186.611 222.196 188.838 230.827 195.346 235.163C197.342 236.25 216.894 247.114 222.334 253.276C224.802 256.073 228.274 264.618 228.947 266.3C231.493 271.37 230.458 277.753 226.263 281.945L222.624 285.587C221.426 286.782 221.426 288.73 222.624 289.926L229.915 297.217C232.511 299.812 233.941 303.266 233.941 306.94C233.941 318.938 236.827 331.323 242.074 341.808L246.482 350.621C247.005 351.667 248.059 352.317 249.229 352.317C250.552 352.317 251.722 351.473 252.14 350.217C257.038 335.54 266.404 321.511 280.777 307.325C286.048 302.117 288.95 295.169 288.95 287.756L288.95 275.54C288.95 273.846 287.572 272.468 285.879 272.468L275.107 272.468C267.852 272.468 261.33 268.437 258.084 261.945C255.87 257.521 252.295 253.846 247.755 251.32C243.831 249.139 239.73 248.032 235.568 248.032L228.573 248.032C227.422 248.032 226.371 247.382 225.856 246.353L223.999 242.637C219.954 234.551 223.518 224.756 232.118 220.342C236.957 217.86 240.084 212.37 240.084 206.352L240.084 202.238C240.084 197.193 244.185 193.092 249.229 193.092L256.601 193.092C261.59 193.092 266.119 190.76 269.028 186.695C271.933 182.633 272.677 177.597 271.067 172.879L263.751 150.247C257.127 149.312 250.084 149.071 249.229 149.071C215.469 149.071 182.258 167.539 163.476 196.438M249.229 358.391C245.748 358.391 242.613 356.457 241.05 353.341L236.639 344.528C230.981 333.213 227.868 319.865 227.868 306.94C227.868 304.887 227.068 302.961 225.618 301.514L218.327 294.223C214.766 290.656 214.766 284.856 218.327 281.29L221.968 277.651C224.309 275.307 224.89 271.746 223.41 268.782C221.797 264.767 219.085 258.774 217.779 257.296C213.758 252.745 197.95 243.522 192.198 240.348C182.867 234.147 179.782 222.014 184.951 212.592C185.515 211.571 185.57 210.384 185.111 209.329C184.652 208.275 183.75 207.514 182.635 207.238L157.969 201.371C157.031 201.15 156.254 200.494 155.877 199.606C155.501 198.715 155.567 197.702 156.06 196.869C175.438 164.143 212.01 142.998 249.229 142.998C250.275 142.998 258.958 143.283 266.557 144.528C267.68 144.713 268.604 145.51 268.956 146.589L276.834 170.964C279.067 177.514 278.029 184.553 273.97 190.229C269.905 195.909 263.574 199.166 256.601 199.166L249.229 199.166C247.536 199.166 246.158 200.544 246.158 202.238L246.158 206.352C246.158 214.626 241.733 222.238 234.89 225.746C229.293 228.621 226.894 234.847 229.431 239.922L230.452 241.959L235.568 241.959C240.776 241.959 245.867 243.323 250.704 246.012C256.321 249.134 260.751 253.702 263.518 259.228C265.727 263.647 270.168 266.392 275.107 266.392L285.879 266.392C290.923 266.392 295.027 270.498 295.027 275.54L295.027 287.756C295.027 296.804 291.48 305.291 285.043 311.65C271.369 325.147 262.489 338.393 257.901 352.143C256.656 355.878 253.17 358.391 249.229 358.391" fill="#008f80" fill-rule="nonzero" opacity="1" stroke="#01a77f" stroke-linecap="round" stroke-linejoin="round" stroke-width="2.507"/>
<path d="M314.14 170.575L309.77 183.677C309.314 185.03 308.556 186.256 307.573 187.238L301.043 193.774C298.187 196.627 296.616 200.418 296.616 204.45L296.616 211.539C296.616 219.865 303.39 226.641 311.718 226.641C316.729 226.641 320.803 230.714 320.803 235.723L320.803 244.965C320.803 246.373 320.471 247.779 319.842 249.03L317.778 253.158C315.418 257.87 315.664 263.36 318.437 267.848C321.207 272.334 326.013 275.012 331.287 275.012L349.262 275.012C351.193 268.031 353.053 257.815 353.053 247.818C353.053 218.902 338.581 190.321 314.14 170.575M351.539 281.086L331.287 281.086C323.891 281.086 317.156 277.331 313.268 271.042C309.383 264.749 309.037 257.049 312.346 250.438L314.411 246.304C314.621 245.892 314.729 245.43 314.729 244.965L314.729 235.723C314.729 234.063 313.379 232.715 311.718 232.715C300.041 232.715 290.542 223.213 290.542 211.539L290.542 204.45C290.542 198.794 292.745 193.475 296.746 189.477L303.276 182.947C303.603 182.623 303.857 182.205 304.012 181.746L309.734 164.585C310.044 163.658 310.778 162.935 311.707 162.645C312.634 162.354 313.653 162.529 314.433 163.113C342.419 184.037 359.126 215.703 359.126 247.818C359.126 259.569 356.705 271.603 354.439 278.944C354.046 280.22 352.87 281.086 351.539 281.086" fill="#008f80" fill-rule="nonzero" opacity="1" stroke="#01a77f" stroke-linecap="round" stroke-linejoin="round" stroke-width="2.507"/>
<path d="M250.627 148.55C193.96 148.55 147.861 194.649 147.861 251.315C147.861 307.979 193.96 354.078 250.627 354.078C307.294 354.078 353.393 307.979 353.393 251.315C353.393 194.649 307.294 148.55 250.627 148.55M250.627 360.155C190.612 360.155 141.788 311.327 141.788 251.315C141.788 191.301 190.612 142.476 250.627 142.476C310.642 142.476 359.466 191.301 359.466 251.315C359.466 311.327 310.642 360.155 250.627 360.155" fill="#008f80" fill-rule="nonzero" opacity="1" stroke="#01a77f" stroke-linecap="round" stroke-linejoin="round" stroke-width="2.507"/>
<path d="M308.146 157.829C290.077 168.562 302.247 192.088 308.462 204.493C314.676 216.9 340.471 242.523 344.45 241.768C345.144 241.635 363.396 229.592 376.365 211.847C391.833 190.69 401.567 166.299 380.632 156.111C365.3 148.651 349.857 167.32 347.068 173.513C347.068 173.513 329.624 145.076 308.146 157.829" fill="#008f80" fill-rule="nonzero" opacity="1" stroke="#01a77f" stroke-linecap="round" stroke-linejoin="round" stroke-width="2.507"/>
<path d="M132.858 284.038C117.083 293.407 127.706 313.947 133.132 324.778C138.558 335.608 161.077 357.979 164.549 357.315C165.158 357.199 181.091 346.687 192.414 331.197C205.917 312.724 214.417 291.432 196.138 282.536C182.754 276.022 169.273 292.32 166.838 297.73C166.838 297.73 151.608 272.904 132.858 284.038" fill="#008f80" fill-rule="nonzero" opacity="1" stroke="#01a77f" stroke-linecap="round" stroke-linejoin="round" stroke-width="2.507"/>
</g>
<g opacity="0">
<path d="M378.568 268.386L378.568 279.076" fill="none" opacity="1" stroke="#01a77f" stroke-linecap="round" stroke-linejoin="round" stroke-width="2.195"/>
<path d="M383.913 273.731L373.223 273.731" fill="none" opacity="1" stroke="#01a77f" stroke-linecap="round" stroke-linejoin="round" stroke-width="2.195"/>
<path d="M140.201 161.661L140.201 172.35" fill="none" opacity="1" stroke="#01a77f" stroke-linecap="round" stroke-linejoin="round" stroke-width="2.195"/>
<path d="M145.545 167.005L134.856 167.005" fill="none" opacity="1" stroke="#01a77f" stroke-linecap="round" stroke-linejoin="round" stroke-width="2.195"/>
<path d="M260.64 100.328L260.64 111.014" fill="none" opacity="1" stroke="#01a77f" stroke-linecap="round" stroke-linejoin="round" stroke-width="2.195"/>
<path d="M265.984 105.672L255.295 105.672" fill="none" opacity="1" stroke="#01a77f" stroke-linecap="round" stroke-linejoin="round" stroke-width="2.195"/>
<path d="M336.881 367.924L336.881 378.613" fill="none" opacity="1" stroke="#01a77f" stroke-linecap="round" stroke-linejoin="round" stroke-width="2.195"/>
<path d="M342.226 373.268L331.536 373.268" fill="none" opacity="1" stroke="#01a77f" stroke-linecap="round" stroke-linejoin="round" stroke-width="2.195"/>
<path d="M164.343 375.942L164.343 386.631" fill="none" opacity="1" stroke="#01a77f" stroke-linecap="round" stroke-linejoin="round" stroke-width="2.195"/>
<path d="M169.687 381.286L158.998 381.286" fill="none" opacity="1" stroke="#01a77f" stroke-linecap="round" stroke-linejoin="round" stroke-width="2.195"/>
<path d="M136.987 262.967C136.987 265.539 134.9 267.628 132.326 267.628C129.754 267.628 127.665 265.539 127.665 262.967C127.665 260.395 129.754 258.306 132.326 258.306C134.9 258.306 136.987 260.395 136.987 262.967" fill="#008f80" fill-rule="nonzero" opacity="1" stroke="#01a77f" stroke-linecap="round" stroke-linejoin="round" stroke-width="2.507"/>
<path d="M370.443 167.266C370.443 169.84 368.354 171.927 365.782 171.927C363.208 171.927 361.121 169.84 361.121 167.266C361.121 164.694 363.208 162.608 365.782 162.608C368.354 162.608 370.443 164.694 370.443 167.266" fill="#008f80" fill-rule="nonzero" opacity="1" stroke="#01a77f" stroke-linecap="round" stroke-linejoin="round" stroke-width="2.507"/>
<path d="M258.624 394.989C258.624 397.561 256.537 399.648 253.965 399.648C251.391 399.648 249.304 397.561 249.304 394.989C249.304 392.415 251.391 390.328 253.965 390.328C256.537 390.328 258.624 392.415 258.624 394.989" fill="#008f80" fill-rule="nonzero" opacity="1" stroke="#01a77f" stroke-linecap="round" stroke-linejoin="round" stroke-width="2.507"/>
<path d="M250.001 444.505C250.287 444.505 250.573 444.549 250.851 444.631L279.193 453.043L304.043 437.033C304.528 436.722 305.089 436.556 305.664 436.556L305.669 436.556L335.223 436.614L354.513 414.218C354.892 413.783 355.387 413.461 355.943 413.3L384.315 405.014L396.541 378.096C396.781 377.571 397.165 377.127 397.652 376.813L422.565 360.904L426.735 331.636C426.817 331.067 427.062 330.533 427.441 330.097L446.845 307.803L442.554 278.556C442.467 277.984 442.554 277.401 442.791 276.878L455.104 250.002L442.791 223.123C442.554 222.6 442.467 222.017 442.554 221.445L446.845 192.201L427.444 169.907C427.065 169.471 426.82 168.937 426.738 168.368L422.567 139.102L397.655 123.191C397.167 122.88 396.783 122.433 396.544 121.908L384.32 94.9903L355.946 86.7008C355.39 86.54 354.894 86.2213 354.516 85.7827L335.226 63.3903L305.669 63.4448L305.664 63.4448C305.089 63.4448 304.528 63.2814 304.043 62.9681L279.196 46.9583L250.851 55.3705C250.293 55.5312 249.71 55.5312 249.151 55.3705L220.807 46.9583L195.96 62.9681C195.475 63.2814 194.914 63.4448 194.339 63.4448L194.334 63.4448L164.779 63.3876L145.49 85.78C145.111 86.2186 144.615 86.5373 144.06 86.698L115.685 94.9876L103.462 121.902C103.225 122.431 102.838 122.875 102.35 123.185L77.4381 139.1L73.2675 168.362C73.1858 168.932 72.9406 169.466 72.5619 169.901L53.1552 192.198L57.4484 221.445C57.5356 222.017 57.4484 222.6 57.2114 223.123L44.8956 250.002L57.2114 276.876C57.4484 277.399 57.5356 277.982 57.4484 278.554L53.1552 307.8L72.5592 330.094C72.9379 330.53 73.183 331.064 73.2648 331.633L77.4354 360.902L102.345 376.811C102.833 377.124 103.217 377.568 103.456 378.094L115.682 405.008L144.054 413.298C144.61 413.461 145.106 413.78 145.484 414.216L164.774 436.614L194.331 436.556L194.336 436.556C194.911 436.556 195.472 436.722 195.957 437.033L220.807 453.043L249.151 444.631C249.429 444.549 249.715 444.505 250.001 444.505M279.659 459.289C279.373 459.289 279.087 459.248 278.806 459.167L250.001 450.613L221.194 459.167C220.352 459.415 219.453 459.281 218.723 458.813L193.459 442.539L163.412 442.596L163.406 442.596C162.537 442.596 161.709 442.214 161.14 441.558L141.532 418.792L112.691 410.364C111.855 410.119 111.166 409.522 110.806 408.729L98.3786 381.373L73.0604 365.2C72.3249 364.732 71.8346 363.966 71.7093 363.103L67.4678 333.352L47.7423 310.69C47.1702 310.031 46.9114 309.154 47.0395 308.293L51.4063 278.562L38.8889 251.247C38.5266 250.457 38.5266 249.547 38.8889 248.757L51.4063 221.437L47.0395 191.705C46.9114 190.845 47.1702 189.967 47.7423 189.308L67.4705 166.643L71.712 136.896C71.8373 136.035 72.3277 135.267 73.0632 134.801L98.384 118.622L110.809 91.2664C111.168 90.4737 111.858 89.8771 112.694 89.6319L141.537 81.2062L161.145 58.4406C161.715 57.784 162.543 57.4027 163.412 57.4027L163.417 57.4027L193.462 57.4626L218.723 41.1886C219.453 40.7146 220.352 40.5866 221.194 40.8345L250.001 49.3855L278.809 40.8345C279.645 40.5866 280.544 40.7146 281.28 41.1886L306.541 57.4626L336.588 57.4054L336.594 57.4054C337.463 57.4054 338.291 57.7868 338.86 58.4433L358.468 81.2089L387.312 89.6347C388.148 89.8798 388.837 90.4764 389.197 91.2691L401.621 118.628L426.942 134.804C427.678 135.269 428.168 136.038 428.293 136.898L432.535 166.649L452.258 189.311C452.83 189.97 453.089 190.847 452.961 191.708L448.596 221.437L461.111 248.757C461.473 249.547 461.473 250.457 461.111 251.247L448.596 278.564L452.961 308.296C453.089 309.157 452.83 310.034 452.258 310.693L432.532 333.355L428.291 363.105C428.165 363.969 427.675 364.734 426.94 365.203L401.619 381.376L389.191 408.735C388.832 409.527 388.142 410.124 387.306 410.369L358.466 418.795L338.857 441.558C338.288 442.214 337.46 442.596 336.591 442.596L336.585 442.596L306.541 442.539L281.277 458.813C280.79 459.126 280.228 459.289 279.659 459.289" fill="#008f80" fill-rule="nonzero" opacity="1" stroke="#01a77f" stroke-linecap="round" stroke-linejoin="round" stroke-width="2.507"/>
<path d="M250.001 72.0566C151.881 72.0566 72.058 151.882 72.058 250C72.058 348.121 151.881 427.946 250.001 427.946C348.122 427.946 427.945 348.121 427.945 250C427.945 151.882 348.122 72.0566 250.001 72.0566M250.001 429.439C151.058 429.439 70.5624 348.946 70.5624 250C70.5624 151.057 151.058 70.561 250.001 70.561C348.945 70.561 429.44 151.057 429.44 250C429.44 348.946 348.945 429.439 250.001 429.439" fill="#008f80" fill-rule="nonzero" opacity="1" stroke="#01a77f" stroke-linecap="round" stroke-linejoin="round" stroke-width="2.507"/>
<path d="M219.874 379.599C218.784 379.599 217.779 379.006 217.253 378.052L195.452 338.411L150.406 342.57C149.31 342.663 148.256 342.167 147.646 341.257C147.038 340.347 146.973 339.176 147.485 338.206L183.054 270.372C183.822 268.912 185.626 268.34 187.091 269.114C188.554 269.882 189.118 271.688 188.35 273.151L155.336 336.111L196.855 332.276C198.013 332.161 199.173 332.769 199.748 333.809L219.789 370.248L246.802 317.851C247.556 316.386 249.357 315.808 250.828 316.563C252.296 317.32 252.871 319.124 252.117 320.592L222.532 377.979C222.026 378.962 221.018 379.583 219.915 379.599L219.874 379.599Z" fill="#008f80" fill-rule="nonzero" opacity="1" stroke="#01a77f" stroke-linecap="round" stroke-linejoin="round" stroke-width="2.507"/>
<path d="M280.701 379.599L280.669 379.599C279.568 379.589 278.563 378.973 278.051 377.995L247.388 319.374C246.622 317.909 247.189 316.103 248.652 315.337C250.115 314.569 251.926 315.138 252.689 316.601L280.767 370.286L300.83 333.809C301.405 332.772 302.56 332.178 303.723 332.276L345.146 336.1L311.312 273.769C310.525 272.32 311.065 270.503 312.516 269.716C313.963 268.929 315.78 269.465 316.57 270.917L353.071 338.168C353.599 339.135 353.547 340.317 352.94 341.241C352.332 342.159 351.259 342.655 350.17 342.57L305.126 338.411L283.322 378.052C282.796 379.006 281.791 379.599 280.701 379.599" fill="#008f80" fill-rule="nonzero" opacity="1" stroke="#01a77f" stroke-linecap="round" stroke-linejoin="round" stroke-width="2.507"/>
<path d="M250.289 136.047C259.616 136.047 267.489 144.525 275.909 147.26C284.632 150.09 295.97 147.96 303.23 153.242C310.563 158.581 312.012 170.055 317.349 177.391C322.636 184.651 333.13 189.549 335.96 198.272C338.695 206.69 333.173 216.78 333.173 226.11C333.173 235.435 338.695 245.528 335.96 253.945C333.13 262.668 322.634 267.563 317.349 274.826C312.012 282.162 310.563 293.636 303.23 298.972C295.967 304.257 284.632 302.124 275.909 304.957C267.489 307.69 259.616 316.167 250.289 316.167C240.959 316.167 233.086 307.69 224.668 304.957C215.943 302.124 204.608 304.257 197.345 298.972C190.012 293.636 188.563 282.159 183.226 274.826C177.941 267.563 167.445 262.668 164.615 253.945C161.88 245.528 167.404 235.435 167.404 226.11C167.404 216.78 161.88 206.69 164.615 198.272C167.445 189.549 177.941 184.651 183.226 177.391C188.563 170.055 190.014 158.579 197.345 153.242C204.608 147.96 215.946 150.09 224.668 147.26C233.086 144.525 240.959 136.047 250.289 136.047" fill="#008f80" fill-rule="nonzero" opacity="1" stroke="#01a77f" stroke-linecap="round" stroke-linejoin="round" stroke-width="2.507"/>
<path d="M250.289 287.825C216.251 287.825 188.563 260.131 188.563 226.101C188.563 192.071 216.251 164.383 250.289 164.383C284.324 164.383 312.012 192.079 312.012 226.109C312.012 260.139 284.324 287.825 250.289 287.825" fill="#ffffff" fill-rule="nonzero" opacity="1" stroke="#01a77f" stroke-linecap="round" stroke-linejoin="round" stroke-width="2.507"/>
<path d="M251.089 259.469C287.89 247.791 281.431 224.058 268.042 205.079C261.852 196.234 254.32 188.467 248.817 183.395C243.691 188.84 236.515 197.048 230.92 206.07C225.488 214.804 221.576 224.407 222.009 233.192C222.573 244.331 230.225 254.111 251.089 259.469Z" fill="none" opacity="1" stroke="#01a77f" stroke-linecap="round" stroke-linejoin="round" stroke-width="2.507"/>
<path d="M248.927 186.239L251.452 268.17" fill="none" opacity="1" stroke="#01a77f" stroke-linecap="round" stroke-linejoin="round" stroke-width="2.507"/>
<path d="M251.244 245.313L261.792 231.409" fill="none" opacity="1" stroke="#01a77f" stroke-linecap="round" stroke-linejoin="round" stroke-width="2.507"/>
<path d="M250.632 224.808L261.18 210.904" fill="none" opacity="1" stroke="#01a77f" stroke-linecap="round" stroke-linejoin="round" stroke-width="2.507"/>
<path d="M249.932 245.353L238.575 232.1" fill="none" opacity="1" stroke="#01a77f" stroke-linecap="round" stroke-linejoin="round" stroke-width="2.507"/>
<path d="M249.32 224.848L237.963 211.595" fill="none" opacity="1" stroke="#01a77f" stroke-linecap="round" stroke-linejoin="round" stroke-width="2.507"/>
</g>
</g>
</svg>
