<?xml version="1.0" encoding="UTF-8" standalone="no"?>
<!DOCTYPE svg PUBLIC "-//W3C//DTD SVG 1.1//EN" "http://www.w3.org/Graphics/SVG/1.1/DTD/svg11.dtd">
<!-- Created with Vectornator (http://vectornator.io/) -->
<svg height="100%" stroke-miterlimit="10" style="fill-rule:nonzero;clip-rule:evenodd;stroke-linecap:round;stroke-linejoin:round;" version="1.1" viewBox="0 0 768 768" width="100%" xml:space="preserve" xmlns="http://www.w3.org/2000/svg" xmlns:vectornator="http://vectornator.io" xmlns:xlink="http://www.w3.org/1999/xlink">
<defs/>
<g id="Untitled" vectornator:layerName="Untitled">
<g opacity="1">
<clipPath id="ClipPath">
<path d="M70.0703 59.4492L697.82 59.4492L697.82 708L70.0703 708L70.0703 59.4492Z"/>
</clipPath>
<g clip-path="url(#ClipPath)">
<path d="M662.621 687.582C662.621 687.582 614.914 604.629 563.734 604.629C552.613 604.598 541.758 606.285 531.172 609.691C529.707 610.129 528.219 610.473 526.711 610.719C525.203 610.965 523.684 611.113 522.156 611.164C520.629 611.215 519.105 611.164 517.582 611.02C516.059 610.875 514.555 610.629 513.062 610.289C511.574 609.949 510.113 609.516 508.676 608.988C507.242 608.457 505.848 607.84 504.492 607.133C503.141 606.422 501.836 605.633 500.582 604.754C499.332 603.879 498.141 602.926 497.012 601.898C472.117 580.531 435.07 567.598 394.227 565.75L394.227 259.461L436.008 259.461C438.262 259.453 440.512 259.395 442.762 259.281C445.008 259.168 447.254 258.996 449.496 258.773C451.738 258.551 453.969 258.27 456.199 257.938C458.426 257.605 460.645 257.215 462.852 256.773C465.059 256.332 467.254 255.836 469.441 255.285C471.625 254.738 473.793 254.133 475.949 253.477C478.102 252.824 480.238 252.113 482.359 251.355C484.48 250.594 486.578 249.781 488.66 248.918C490.738 248.055 492.797 247.141 494.832 246.18C496.867 245.215 498.879 244.203 500.863 243.141C502.848 242.078 504.809 240.965 506.738 239.809C508.668 238.648 510.57 237.445 512.445 236.195C514.316 234.941 516.156 233.648 517.965 232.305C519.773 230.965 521.551 229.578 523.289 228.152C525.031 226.723 526.734 225.254 528.406 223.742C530.074 222.23 531.703 220.68 533.297 219.086C534.891 217.496 536.445 215.867 537.957 214.199C539.469 212.531 540.941 210.828 542.371 209.09C543.801 207.348 545.188 205.574 546.531 203.77C547.871 201.961 549.172 200.121 550.422 198.25C551.676 196.379 552.883 194.48 554.043 192.551C555.199 190.621 556.312 188.664 557.375 186.68C558.441 184.695 559.453 182.684 560.422 180.648C561.387 178.617 562.301 176.559 563.164 174.48C564.031 172.402 564.844 170.305 565.605 168.184C566.367 166.066 567.078 163.93 567.734 161.777C568.391 159.625 568.996 157.457 569.547 155.273C570.098 153.09 570.594 150.895 571.039 148.688C571.48 146.48 571.871 144.266 572.203 142.039C572.539 139.812 572.82 137.578 573.047 135.34C573.27 133.098 573.441 130.855 573.559 128.605C573.672 126.355 573.734 124.109 573.738 121.855L573.738 59.8125L511.699 59.8125C509.445 59.8164 507.191 59.8789 504.941 59.9922C502.688 60.1055 500.441 60.2773 498.199 60.5C495.957 60.7227 493.719 61.0039 491.492 61.3359C489.262 61.6719 487.043 62.0586 484.832 62.5039C482.621 62.9453 480.422 63.4414 478.238 63.9922C476.051 64.543 473.879 65.1484 471.723 65.8047C469.566 66.4609 467.43 67.168 465.309 67.9297C463.188 68.6914 461.086 69.5078 459.004 70.3711C456.922 71.2344 454.863 72.1484 452.824 73.1133C450.789 74.082 448.777 75.0938 446.789 76.1602C444.801 77.2227 442.844 78.3359 440.91 79.4961C438.977 80.6562 437.074 81.8594 435.199 83.1133C433.328 84.3672 431.484 85.6641 429.676 87.0078C427.867 88.3516 426.09 89.7383 424.348 91.168C422.605 92.6016 420.902 94.0703 419.23 95.5859C417.562 97.0977 415.93 98.6523 414.336 100.246C412.742 101.84 411.191 103.473 409.676 105.141C408.164 106.812 406.691 108.52 405.262 110.262C403.832 112 402.445 113.777 401.102 115.586C399.762 117.398 398.461 119.238 397.211 121.113C395.957 122.984 394.75 124.891 393.594 126.82C392.434 128.754 391.32 130.715 390.258 132.699C389.195 134.688 388.18 136.699 387.215 138.734C386.25 140.773 385.336 142.832 384.473 144.914C383.609 146.992 382.797 149.094 382.039 151.215C381.277 153.336 380.57 155.477 379.914 157.633C379.258 159.789 378.656 161.957 378.105 164.145C377.555 166.328 377.059 168.527 376.617 170.734C376.176 172.945 375.789 175.164 375.457 177.395C375.125 179.621 374.844 181.855 374.621 184.098C374.398 186.34 374.23 188.586 374.117 190.84C374.004 193.09 373.945 195.34 373.941 197.594L373.941 319.934C371.688 317.004 369.27 314.211 366.695 311.559C364.117 308.902 361.398 306.406 358.535 304.062C355.672 301.723 352.688 299.551 349.574 297.551C346.465 295.551 343.25 293.734 339.93 292.102C336.609 290.473 333.207 289.035 329.723 287.793C326.238 286.551 322.695 285.512 319.094 284.676C315.488 283.836 311.852 283.211 308.176 282.789C304.5 282.371 300.812 282.164 297.113 282.164L251.531 282.164L251.531 327.73C251.535 329.316 251.578 330.898 251.66 332.484C251.742 334.066 251.863 335.648 252.023 337.227C252.184 338.805 252.379 340.379 252.617 341.945C252.852 343.516 253.129 345.074 253.441 346.629C253.754 348.184 254.105 349.73 254.492 351.27C254.883 352.809 255.309 354.332 255.773 355.852C256.234 357.367 256.734 358.871 257.273 360.363C257.812 361.855 258.383 363.336 258.996 364.797C259.605 366.262 260.25 367.711 260.93 369.145C261.609 370.578 262.328 371.992 263.078 373.391C263.828 374.785 264.609 376.164 265.43 377.523C266.246 378.883 267.098 380.223 267.98 381.539C268.863 382.855 269.777 384.152 270.727 385.422C271.672 386.695 272.648 387.945 273.656 389.168C274.664 390.395 275.703 391.594 276.77 392.766C277.836 393.941 278.934 395.09 280.055 396.207C281.18 397.328 282.328 398.422 283.504 399.484C284.68 400.551 285.883 401.582 287.109 402.59C288.336 403.594 289.59 404.566 290.863 405.512C292.137 406.457 293.438 407.367 294.754 408.25C296.074 409.129 297.418 409.977 298.777 410.789C300.141 411.605 301.52 412.387 302.918 413.133C304.316 413.879 305.734 414.594 307.168 415.27C308.605 415.945 310.055 416.59 311.52 417.195C312.988 417.801 314.465 418.371 315.961 418.906C317.453 419.441 318.961 419.938 320.48 420.398C321.996 420.859 323.527 421.281 325.066 421.668C326.605 422.051 328.152 422.398 329.707 422.711C331.262 423.02 332.824 423.289 334.395 423.523C335.965 423.758 337.539 423.949 339.117 424.105C340.695 424.262 342.277 424.379 343.863 424.457C345.449 424.535 347.031 424.578 348.621 424.578L373.941 424.578L373.941 565.801C333.098 567.648 296.051 580.582 271.156 601.949C270.027 602.977 268.836 603.93 267.586 604.805C266.332 605.684 265.027 606.473 263.676 607.184C262.32 607.891 260.926 608.508 259.492 609.039C258.055 609.566 256.594 610 255.105 610.34C253.613 610.68 252.109 610.926 250.586 611.07C249.066 611.215 247.539 611.266 246.012 611.215C244.484 611.164 242.965 611.016 241.457 610.77C239.949 610.523 238.461 610.18 236.996 609.742C226.41 606.336 215.555 604.648 204.434 604.68C153.254 604.68 110.992 641.055 105.672 687.633L662.621 687.582ZM394.199 197.594C394.203 195.672 394.25 193.75 394.348 191.832C394.445 189.91 394.586 187.996 394.777 186.082C394.969 184.168 395.203 182.262 395.488 180.363C395.773 178.461 396.102 176.566 396.48 174.684C396.855 172.797 397.277 170.922 397.746 169.059C398.215 167.195 398.727 165.344 399.289 163.504C399.848 161.664 400.449 159.84 401.098 158.031C401.746 156.223 402.441 154.43 403.176 152.652C403.914 150.879 404.691 149.121 405.516 147.387C406.34 145.648 407.203 143.93 408.109 142.238C409.016 140.543 409.965 138.871 410.953 137.223C411.941 135.574 412.969 133.949 414.039 132.352C415.105 130.754 416.215 129.184 417.359 127.637C418.504 126.094 419.688 124.578 420.906 123.094C422.125 121.605 423.379 120.152 424.672 118.727C425.961 117.305 427.289 115.91 428.648 114.551C430.008 113.191 431.398 111.867 432.82 110.574C434.246 109.285 435.703 108.027 437.188 106.809C438.672 105.586 440.188 104.406 441.73 103.258C443.273 102.113 444.848 101.004 446.445 99.9375C448.043 98.8672 449.664 97.8398 451.312 96.8477C452.961 95.8594 454.633 94.9102 456.328 94.0039C458.023 93.0977 459.742 92.2305 461.477 91.4062C463.215 90.582 464.973 89.8047 466.746 89.0664C468.523 88.3281 470.316 87.6367 472.125 86.9844C473.934 86.3359 475.758 85.7305 477.598 85.1719C479.438 84.6094 481.289 84.0977 483.156 83.625C485.02 83.1562 486.895 82.7344 488.781 82.3555C490.664 81.9805 492.559 81.6484 494.461 81.3633C496.363 81.0781 498.27 80.8398 500.184 80.6484C502.098 80.457 504.012 80.3125 505.934 80.2148C507.852 80.1172 509.773 80.0664 511.699 80.0625L553.48 80.0625L553.48 121.855C553.477 123.777 553.43 125.699 553.332 127.621C553.234 129.539 553.09 131.457 552.902 133.371C552.711 135.285 552.473 137.191 552.188 139.094C551.902 140.992 551.574 142.887 551.195 144.773C550.82 146.656 550.395 148.531 549.926 150.398C549.457 152.262 548.941 154.113 548.383 155.953C547.824 157.793 547.219 159.617 546.57 161.426C545.922 163.238 545.227 165.031 544.488 166.805C543.754 168.582 542.973 170.336 542.148 172.074C541.324 173.812 540.461 175.527 539.551 177.223C538.645 178.918 537.695 180.59 536.707 182.238C535.715 183.887 534.688 185.512 533.617 187.109C532.551 188.707 531.441 190.281 530.297 191.824C529.148 193.367 527.965 194.883 526.746 196.367C525.523 197.855 524.27 199.309 522.977 200.734C521.684 202.156 520.359 203.551 518.996 204.91C517.637 206.27 516.246 207.594 514.82 208.883C513.395 210.176 511.938 211.43 510.453 212.652C508.965 213.871 507.449 215.055 505.906 216.199C504.359 217.344 502.789 218.449 501.191 219.52C499.59 220.59 497.965 221.617 496.316 222.605C494.668 223.594 492.996 224.543 491.297 225.449C489.602 226.355 487.887 227.223 486.148 228.043C484.41 228.867 482.652 229.645 480.875 230.383C479.098 231.121 477.305 231.812 475.496 232.461C473.684 233.109 471.859 233.715 470.02 234.273C468.18 234.832 466.324 235.348 464.461 235.812C462.594 236.281 460.719 236.707 458.832 237.082C456.945 237.457 455.051 237.789 453.148 238.07C451.246 238.355 449.34 238.594 447.426 238.781C445.512 238.973 443.594 239.117 441.672 239.215C439.754 239.309 437.832 239.359 435.906 239.359L408.457 239.359C408.457 239.359 485.534 169.471 506.457 141.398C517.319 126.825 517.338 115.583 517.338 115.583C517.338 115.583 505.644 117.013 492.148 127.07C464.084 147.985 394.199 225.059 394.199 225.059L394.199 197.594ZM359.535 404.328L348.621 404.328C347.363 404.324 346.109 404.293 344.855 404.227C343.602 404.164 342.352 404.07 341.102 403.945C339.852 403.82 338.605 403.664 337.363 403.48C336.125 403.293 334.887 403.078 333.656 402.832C332.426 402.586 331.203 402.309 329.984 402.004C328.766 401.695 327.559 401.359 326.355 400.996C325.156 400.629 323.965 400.234 322.781 399.809C321.602 399.387 320.43 398.934 319.27 398.453C318.113 397.973 316.965 397.461 315.832 396.926C314.695 396.387 313.574 395.82 312.469 395.23C311.363 394.637 310.27 394.02 309.195 393.371C308.117 392.727 307.059 392.055 306.016 391.355C304.969 390.66 303.945 389.938 302.938 389.188C301.93 388.441 300.941 387.668 299.969 386.871C299 386.074 298.051 385.254 297.121 384.41C296.188 383.57 295.281 382.703 294.395 381.816C293.504 380.93 292.641 380.02 291.797 379.09C290.953 378.16 290.133 377.211 289.336 376.238C288.543 375.27 287.77 374.281 287.02 373.273C286.273 372.266 285.551 371.238 284.852 370.195C284.156 369.152 283.484 368.094 282.836 367.016C282.191 365.941 281.574 364.848 280.98 363.742C280.387 362.637 279.824 361.516 279.285 360.383C278.75 359.246 278.238 358.102 277.758 356.941C277.277 355.781 276.824 354.613 276.402 353.43C275.977 352.25 275.582 351.059 275.219 349.859C274.852 348.656 274.516 347.449 274.211 346.23C273.906 345.016 273.629 343.793 273.383 342.559C273.137 341.328 272.922 340.094 272.734 338.852C272.551 337.613 272.395 336.367 272.27 335.117C272.145 333.871 272.051 332.617 271.988 331.363C271.926 330.113 271.895 328.855 271.891 327.602L271.891 302.289L297.215 302.289C298.473 302.289 299.727 302.324 300.984 302.387C302.238 302.449 303.492 302.543 304.742 302.668C305.992 302.793 307.238 302.949 308.48 303.133C309.727 303.32 310.961 303.535 312.195 303.785C313.426 304.031 314.652 304.309 315.871 304.613C317.09 304.922 318.301 305.258 319.504 305.621C320.707 305.988 321.898 306.383 323.082 306.809C324.266 307.234 325.438 307.688 326.598 308.168C327.758 308.652 328.906 309.16 330.039 309.699C331.176 310.238 332.297 310.805 333.406 311.398C334.512 311.992 335.605 312.613 336.684 313.258C337.762 313.906 338.82 314.578 339.867 315.277C340.91 315.977 341.938 316.703 342.945 317.449C343.953 318.199 344.945 318.973 345.914 319.773C346.887 320.57 347.836 321.391 348.766 322.234C349.695 323.082 350.605 323.949 351.492 324.836C352.383 325.727 353.246 326.637 354.09 327.57C354.934 328.5 355.754 329.453 356.551 330.426C357.344 331.395 358.117 332.387 358.867 333.398C359.613 334.406 360.336 335.434 361.031 336.48C361.73 337.523 362.402 338.586 363.047 339.664C363.691 340.742 364.309 341.836 364.902 342.945C365.492 344.055 366.059 345.176 366.594 346.312C367.129 347.449 367.637 348.598 368.117 349.758C368.598 350.918 369.051 352.09 369.473 353.273C369.895 354.457 370.289 355.652 370.652 356.852C371.016 358.055 371.352 359.266 371.652 360.484C371.957 361.703 372.234 362.93 372.477 364.164C372.723 365.395 372.934 366.633 373.117 367.875C373.301 369.117 373.457 370.363 373.578 371.617C373.699 372.867 373.793 374.117 373.852 375.375C373.914 376.629 373.941 377.883 373.941 379.141L373.941 390C373.941 390 331.127 340.018 312.078 328.133C303.569 322.824 292.58 322.97 292.58 322.97C292.58 322.97 291.182 331.921 297.746 342.461C309.61 361.51 359.535 404.328 359.535 404.328Z" fill="#63ab91" fill-rule="nonzero" opacity="1" stroke="none"/>
</g>
</g>
</g>
</svg>
