<?xml version="1.0" encoding="UTF-8" standalone="no"?>
<!DOCTYPE svg PUBLIC "-//W3C//DTD SVG 1.1//EN" "http://www.w3.org/Graphics/SVG/1.1/DTD/svg11.dtd">
<!-- Created with Vectornator (http://vectornator.io/) -->
<svg height="100%" stroke-miterlimit="10" style="fill-rule:nonzero;clip-rule:evenodd;stroke-linecap:round;stroke-linejoin:round;" version="1.1" viewBox="0 0 768 768" width="100%" xml:space="preserve" xmlns="http://www.w3.org/2000/svg" xmlns:vectornator="http://vectornator.io" xmlns:xlink="http://www.w3.org/1999/xlink">
<defs/>
<g id="Untitled" vectornator:layerName="Untitled">
<g opacity="1">
<clipPath id="ClipPath">
<path d="M58 67L710 67L710 718.27L58 718.27L58 67Z"/>
</clipPath>
<g clip-path="url(#ClipPath)">
<path d="M705.441 405.164C700.887 399.672 692.816 397.086 684.871 398.602C676.121 400.266 669.168 406.539 666.188 415.668C666.078 416.098 663.391 426.332 660.273 447.285C660.031 448.512 659.711 449.617 659.312 450.633C658.176 450.102 657.109 448.906 656.535 446.438L659.797 398.988C744.762 271.758 709.555 150.418 630.57 96.1328C565.672 51.5508 463.402 50.1016 390.492 150.906C385.984 149.285 381.078 149.16 376.684 150.57C303.734 50.0039 201.523 51.5703 136.707 96.1875C57.8125 150.504 22.6523 271.828 107.547 398.988L110.809 446.438C110.234 448.922 109.176 450.121 108.039 450.648C107.645 449.664 107.34 448.621 107.117 447.523C103.957 426.328 101.27 416.098 101.074 415.383C98.1758 406.539 91.2227 400.266 82.4688 398.602C74.5234 397.078 66.457 399.664 61.9023 405.164C57.6289 410.316 56.8516 417.172 59.7461 424.559C67.8359 444.148 69.7812 463.668 71.4961 480.887C74.3242 509.254 76.8555 533.879 106.254 542.043L106.859 713.281C106.867 716.133 109.18 718.434 112.027 718.434C112.031 718.434 112.039 718.434 112.043 718.434C114.898 718.426 117.207 716.102 117.195 713.242L116.598 544.09C120.832 544.621 125.395 544.906 130.43 544.906C132.328 544.906 134.285 544.871 136.309 544.797C139.16 544.695 141.391 542.293 141.285 539.438C141.176 536.586 138.82 534.297 135.93 534.465C126.637 534.816 118.965 534.32 112.461 532.965C87.6914 527.816 84.9062 511.211 81.7812 479.852C79.9961 461.922 77.9727 441.598 69.3359 420.691C67.8672 416.949 68.043 413.945 69.8594 411.758C72.0117 409.16 76.3047 407.945 80.5391 408.758C83.5195 409.32 88.875 411.359 91.1602 418.316C91.1875 418.422 93.8281 428.516 96.9297 449.281C97.6562 453 98.9023 456.16 100.734 458.938C100.801 459.043 100.914 459.098 100.988 459.199C101.039 459.27 101.094 459.332 101.148 459.406C101.199 459.465 101.234 459.527 101.293 459.59C104.477 464.152 108.746 467.066 112.559 469.598C120.383 474.801 126.559 478.91 124.973 496.547C124.719 499.395 126.812 501.906 129.66 502.164C129.816 502.18 129.977 502.184 130.125 502.184C132.773 502.184 135.027 500.16 135.27 497.477C137.402 473.699 126.797 466.652 118.277 460.988C117.02 460.148 115.852 459.344 114.738 458.531C117.59 456.48 120.082 453.16 121.086 447.734C121.168 447.309 121.191 446.871 121.16 446.438L112.789 324.613C112.508 321.191 113.27 318.68 114.934 317.527C116.375 316.531 118.582 316.531 120.691 317.535C124.543 319.367 127.105 323.832 127.562 329.562L134.07 397.574C131.977 398.34 130.504 400.34 130.652 402.68C130.832 405.531 133.238 407.641 136.133 407.523C136.164 407.523 139.258 407.336 144.32 407.48C151.984 407.59 163.762 408.281 176.332 411.023L176.336 411.023C176.496 411.059 176.664 411.086 176.828 411.105C187.367 413.402 196.621 416.73 204.328 421.008C204.426 421.062 204.535 421.078 204.633 421.125C204.742 421.188 204.848 421.258 204.961 421.316C205.008 421.348 205.031 421.395 205.078 421.418C210.004 424.266 214.223 427.465 217.602 430.945C218.617 431.988 219.961 432.508 221.305 432.508C222.602 432.508 223.906 432.02 224.914 431.039C226.961 429.051 227 425.77 225.012 423.727C223.113 421.781 221 419.922 218.715 418.145C219.148 417.473 219.52 416.754 219.812 415.969C219.926 415.648 220.012 415.32 220.059 414.992L228.168 362.121C228.949 358.496 230.996 356.645 233.57 357.051C236.125 357.496 238.566 360.289 237.855 365.781L231.074 494.789C231.074 494.891 230.785 504.996 225.797 514.844C222.156 522.02 217.023 527.238 210.543 530.367C202.98 533.992 193.449 534.949 182.203 533.176C179.395 532.766 176.742 534.66 176.297 537.484C175.852 540.309 177.781 542.957 180.602 543.402C184.793 544.059 188.812 544.383 192.648 544.383C198.055 544.383 203.059 543.66 207.703 542.352L209.938 713.328C209.973 716.164 212.285 718.434 215.105 718.434C215.133 718.434 215.152 718.434 215.18 718.434C218.031 718.398 220.316 716.051 220.281 713.195L217.992 537.934C223.492 534.695 228.164 530.305 231.891 524.719C255.73 542.445 282.246 559.879 310.855 576.617L311.312 713.273C311.32 716.129 313.633 718.43 316.48 718.43C316.484 718.43 316.488 718.43 316.496 718.43C319.348 718.418 321.66 716.098 321.648 713.242L320.895 486.301C326.828 487.117 333.301 487.527 340.465 487.527C342.93 487.527 345.469 487.473 348.102 487.383C350.953 487.277 353.18 484.883 353.078 482.027C352.973 479.172 350.551 476.938 347.723 477.047C335.633 477.488 325.551 476.867 316.945 475.164C316.871 475.145 316.816 475.094 316.738 475.078C281.809 467.934 279.305 443.223 275.516 405.801C273.199 382.918 270.566 356.984 259.355 330.359C257.922 326.754 256.906 321.617 260.199 317.609C263.34 313.781 269.562 311.965 275.727 313.109C282.934 314.441 288.457 319.402 290.809 326.426C290.848 326.555 294.309 339.527 298.32 366.129C299.195 370.758 300.785 374.684 303.129 378.062C303.152 378.102 303.191 378.133 303.223 378.176C303.25 378.215 303.281 378.254 303.312 378.293C307.348 384.23 312.785 387.801 318.055 391.246C328.262 397.898 337.074 403.645 334.902 427.121C334.641 429.965 336.734 432.484 339.57 432.746C342.426 433.004 344.93 430.918 345.195 428.07C347.941 398.387 334.5 389.621 323.695 382.582C321.504 381.152 319.391 379.754 317.438 378.223C321.625 375.879 325.352 371.527 326.727 364.203C326.789 363.879 326.816 363.539 326.812 363.203L325.211 208.094C325.211 204.32 326.207 201.301 328.094 199.363C329.652 197.762 331.859 196.883 334.309 196.883C340.699 196.883 347.488 202.625 347.488 213.266L347.488 301.188C347.328 301.195 347.195 301.203 347.195 301.203C344.348 301.363 342.172 303.809 342.332 306.66C342.492 309.516 344.973 311.695 347.785 311.527C347.848 311.527 349.621 311.422 352.66 311.383C356.789 311.383 362.43 311.438 369.406 311.895C378.578 312.438 387.402 313.512 395.707 315.086C401.043 316.016 406.367 317.227 411.543 318.691C420.965 321.332 429.484 324.668 436.855 328.613C441.699 331.207 446.176 334.16 450.09 337.324C451.883 338.836 453.641 340.387 455.289 342.035C456.297 343.047 457.621 343.551 458.941 343.551C460.266 343.551 461.59 343.047 462.598 342.035C464.617 340.016 464.617 336.746 462.598 334.723C461.414 333.539 460.102 332.434 458.824 331.305L467.086 252.004C467.805 244.762 472.27 240.43 475.852 240.668C479.656 240.852 483.496 246.355 483.5 257.895L473.258 424.809C473.25 425.148 472.16 459.109 445.613 471.664C435.516 476.445 422.777 477.711 407.715 475.414C404.898 475 402.258 476.922 401.824 479.742C401.395 482.566 403.332 485.207 406.156 485.637C411.535 486.461 416.684 486.867 421.586 486.867C429.273 486.867 436.328 485.82 442.754 483.809L443.926 574.961C443.926 574.969 443.926 574.969 443.926 574.973L443.926 574.977L445.703 713.344C445.742 716.18 448.051 718.449 450.875 718.449C450.895 718.449 450.922 718.449 450.941 718.449C453.793 718.414 456.078 716.066 456.043 713.211L454.301 577.926C483.555 560.941 510.805 543.074 535.461 524.738C539.184 530.324 543.855 534.719 549.363 537.953L547.074 713.215C547.035 716.07 549.32 718.418 552.176 718.453C552.195 718.453 552.223 718.453 552.246 718.453C555.07 718.453 557.375 716.184 557.414 713.352L559.648 542.371C564.297 543.68 569.301 544.406 574.707 544.406C578.543 544.406 582.559 544.078 586.75 543.422C589.566 542.977 591.496 540.328 591.059 537.504C590.617 534.68 587.977 532.781 585.148 533.195C573.918 534.977 564.375 534.023 556.82 530.387C550.336 527.266 545.195 522.039 541.562 514.867C536.57 505.02 536.277 494.91 536.273 494.645L529.465 365.398C528.801 360.316 531.238 357.523 533.789 357.078C536.387 356.637 538.41 358.527 539.133 361.852L547.301 415.016C547.352 415.348 547.434 415.68 547.547 415.996C547.836 416.789 548.219 417.516 548.664 418.191C546.395 419.949 544.281 421.793 542.367 423.73C540.363 425.766 540.383 429.039 542.414 431.047C543.422 432.039 544.734 432.535 546.051 432.535C547.383 432.535 548.715 432.02 549.73 430.992C553.188 427.488 557.426 424.273 562.332 421.445C562.367 421.426 562.383 421.395 562.414 421.375C562.574 421.285 562.715 421.188 562.863 421.094C562.914 421.066 562.977 421.059 563.031 421.027C570.742 416.75 580 413.422 590.551 411.121C590.695 411.102 590.844 411.082 590.988 411.051C591 411.051 591.012 411.051 591.02 411.043L591.027 411.043C603.598 408.305 615.371 407.605 623.121 407.5C628.094 407.336 631.199 407.543 631.227 407.543C634.121 407.652 636.523 405.551 636.707 402.703C636.855 400.359 635.383 398.363 633.289 397.598L639.801 329.488C640.238 323.855 642.789 319.398 646.633 317.562C648.75 316.555 650.961 316.543 652.422 317.551C654.086 318.699 654.852 321.215 654.566 324.703L646.191 446.457C646.16 446.895 646.188 447.328 646.27 447.758C647.277 453.184 649.762 456.508 652.617 458.551C651.5 459.367 650.332 460.176 649.074 461.008C640.559 466.672 629.957 473.723 632.086 497.496C632.328 500.188 634.582 502.203 637.227 502.203C637.383 502.203 637.539 502.199 637.695 502.184C640.535 501.926 642.637 499.418 642.383 496.566C640.801 478.93 646.977 474.824 654.793 469.621C658.582 467.102 662.809 464.211 665.984 459.711C666.07 459.617 666.133 459.508 666.219 459.41C666.262 459.344 666.32 459.289 666.367 459.219C666.445 459.121 666.555 459.07 666.621 458.961C668.449 456.184 669.695 453.023 670.465 449.066C673.496 428.719 676.117 418.617 676.105 418.617L676.105 418.621C678.477 411.379 683.832 409.344 686.816 408.777C691.055 407.969 695.34 409.184 697.496 411.777C699.305 413.965 699.48 416.973 698.051 420.625C689.379 441.617 687.355 461.938 685.566 479.867C682.441 511.227 679.656 527.828 654.887 532.98C648.383 534.336 640.719 534.824 631.418 534.48C628.656 534.336 626.168 536.602 626.062 539.453C625.961 542.309 628.188 544.715 631.039 544.812C633.062 544.891 635.02 544.922 636.918 544.922C641.949 544.922 646.512 544.633 650.75 544.105L650.152 713.258C650.141 716.117 652.445 718.441 655.305 718.449C655.309 718.449 655.316 718.449 655.32 718.449C658.168 718.449 660.48 716.148 660.488 713.297L661.094 542.059C690.492 533.891 693.023 509.27 695.852 480.902C697.566 463.684 699.512 444.164 707.637 424.492C710.492 417.172 709.715 410.316 705.441 405.164ZM168.176 399.039C163.363 398.324 158.828 397.867 154.742 397.574C155.934 383.492 154.734 344.074 153.941 317.879C153.629 307.777 153.391 299.871 153.391 296.645C153.391 291.562 155.727 288.523 159.645 288.523C163.137 288.523 168.332 291.523 168.332 299.691C168.082 311.566 167.293 375.309 168.176 399.039ZM200.117 407.586C196.488 406.062 192.668 404.688 188.621 403.488C188.66 403.316 188.727 403.16 188.766 402.984C188.801 402.785 188.828 402.582 188.844 402.375L193.676 325.191C194.227 320.645 196.422 318.09 199.305 318.215C202.102 318.383 204.93 321.062 204.934 325.59C204.898 326.172 201.98 381.215 200.117 407.586ZM394.004 230.84C392.934 257.77 391.832 285.5 391.512 303.973C386.082 303.121 380.496 302.449 374.73 301.992C373.906 274.176 373.387 204.121 373.336 171.684C373.336 166.91 374.867 163.367 377.715 161.418C377.781 161.375 377.844 161.328 377.906 161.289C381.047 159.297 385.77 159.426 389.375 161.773C393.629 164.48 395.977 169.457 395.977 175.652C395.672 188.879 394.859 209.262 394.004 230.84ZM434.621 316.031C429.523 313.738 424.023 311.707 418.219 309.922L421.418 208.465C422.227 201.863 425.648 197.902 430.461 198.23C434.824 198.496 439.242 202.434 439.242 209.234C439.219 210.082 436.336 286.066 434.621 316.031ZM567.23 407.586C565.367 381.195 562.449 326.188 562.426 325.863C562.426 321.062 565.254 318.391 568.051 318.215C570.922 318.027 573.125 320.641 573.652 324.891L578.512 402.371C578.523 402.578 578.547 402.781 578.59 402.98C578.621 403.156 578.691 403.312 578.734 403.484C574.68 404.688 570.859 406.062 567.23 407.586ZM613.41 317.879C612.613 344.055 611.414 383.43 612.605 397.574C608.512 397.867 603.977 398.324 599.172 399.039C600.055 375.391 599.266 311.578 599.023 299.797C599.023 291.52 604.211 288.52 607.707 288.52C611.625 288.52 613.961 291.555 613.961 296.641C613.961 299.867 613.719 307.777 613.41 317.879Z" fill="#63ab91" fill-rule="nonzero" opacity="1" stroke="none"/>
</g>
</g>
</g>
</svg>
