<?xml version="1.0" encoding="UTF-8" standalone="no"?>
<!DOCTYPE svg PUBLIC "-//W3C//DTD SVG 1.1//EN" "http://www.w3.org/Graphics/SVG/1.1/DTD/svg11.dtd">
<!-- Created with Vectornator (http://vectornator.io/) -->
<svg height="100%" stroke-miterlimit="10" style="fill-rule:nonzero;clip-rule:evenodd;stroke-linecap:round;stroke-linejoin:round;" version="1.1" viewBox="0 0 768 768" width="100%" xml:space="preserve" xmlns="http://www.w3.org/2000/svg" xmlns:vectornator="http://vectornator.io" xmlns:xlink="http://www.w3.org/1999/xlink">
<defs/>
<g id="Untitled" vectornator:layerName="Untitled">
<path d="M434.762 489.789L502.672 285.293C540.652 352.176 591.941 443.391 603.945 466.969C577.25 470.363 485.074 482.914 434.762 489.789ZM232.707 300.328L239.355 285.547C240.273 283.496 241.188 281.477 242.094 279.453L493.895 279.453L450.035 411.512L450.113 411.285L444.66 427.711L430.668 469.84C396.707 440.746 254.23 318.719 232.707 300.328ZM599.254 436.691C590.188 420.121 577.449 397.207 561.379 368.578C537.113 325.348 512.434 281.875 506.992 272.289L528.914 206.277L519.258 203.062L497.199 269.504L246.57 269.504C252.707 255.844 258.484 243.004 263.594 231.645L254.316 227.461C222.785 297.574 149.352 460.902 148.586 463.219L158.16 466.641C159.398 463.566 195.141 383.934 228.371 309.988C249.371 327.98 408.285 464.125 427.195 480.301L422.02 495.887L426.754 497.461L427.25 501.102C476.859 494.312 606.668 476.645 611.316 476.289L615.758 473.73C617.59 470.582 617.699 470.398 599.254 436.691" fill="#cbe4de" fill-rule="nonzero" opacity="1" stroke="none"/>
<path d="M729.406 469.945C729.293 455.562 726.547 441.793 721.648 429.082L634.102 463.656C634.793 465.645 635.191 467.754 635.289 469.945L729.406 469.945ZM729.406 471.859L635.289 471.859C635.18 474.316 634.684 476.672 633.844 478.867L720.18 516.406C726.02 502.695 729.281 487.645 729.406 471.859ZM719.395 518.145L633.082 480.613C632.141 482.555 630.922 484.332 629.48 485.902L695.992 552.504C705.715 542.613 713.676 530.988 719.395 518.145ZM694.648 553.855L628.129 487.258C626.375 488.867 624.367 490.207 622.164 491.188L656.691 578.84C670.961 573.043 683.84 564.504 694.648 553.855ZM654.918 579.543L620.391 491.887C618.406 492.57 616.301 492.977 614.102 493.066L614.102 587.312C628.477 587.199 642.227 584.449 654.918 579.543ZM612.195 587.312L612.195 493.066C609.738 492.965 607.387 492.469 605.203 491.621L567.703 578.074C581.395 583.918 596.426 587.188 612.195 587.312ZM565.969 577.285L603.457 490.863C601.516 489.914 599.742 488.699 598.164 487.258L531.652 553.855C541.527 563.59 553.141 571.562 565.969 577.285ZM530.301 552.508L596.82 485.902C595.211 484.148 593.871 482.141 592.887 479.934L505.348 514.504C511.133 528.797 519.664 541.688 530.301 552.508ZM504.645 512.727L592.199 478.152C591.512 476.168 591.109 474.055 591.012 471.859L496.887 471.859C497 486.254 499.746 500.02 504.645 512.727ZM496.887 469.945L591.012 469.945C591.113 467.492 591.617 465.137 592.453 462.949L506.113 425.402C500.281 439.113 497.012 454.16 496.887 469.945ZM506.898 423.664L593.219 461.195C594.16 459.258 595.375 457.477 596.82 455.902L530.301 389.301C520.578 399.195 512.617 410.82 506.898 423.664ZM531.652 387.953L598.172 454.551C599.922 452.938 601.934 451.602 604.133 450.621L569.609 362.969C555.332 368.762 542.461 377.301 531.652 387.953ZM571.383 362.266L605.91 449.922C607.895 449.238 610 448.832 612.195 448.738L612.195 354.496C597.824 354.609 584.074 357.355 571.383 362.266ZM614.102 354.496L614.102 448.738C616.562 448.844 618.914 449.34 621.098 450.184L658.59 363.738C644.902 357.895 629.875 354.621 614.102 354.496ZM660.324 364.523L622.844 450.945C624.785 451.895 626.559 453.109 628.129 454.551L694.648 387.953C684.766 378.215 673.152 370.246 660.324 364.523ZM695.992 389.305L629.48 455.902C631.09 457.664 632.43 459.668 633.41 461.875L720.945 427.309C715.152 413.016 706.629 400.125 695.992 389.305ZM743.934 469.945L743.934 471.859L738.82 471.859C738.691 488.984 735.148 505.301 728.809 520.16L733.488 522.195L732.727 523.941L728.027 521.898C721.828 535.832 713.195 548.441 702.648 559.164L706.305 562.824L704.953 564.176L701.293 560.52C689.586 572.07 675.625 581.324 660.145 587.598L662.02 592.367L660.25 593.07L658.367 588.309C644.605 593.637 629.695 596.621 614.102 596.738L614.102 601.852L612.195 601.852L612.195 596.738C595.098 596.609 578.801 593.059 563.961 586.719L561.93 591.398L560.184 590.637L562.219 585.93C548.309 579.727 535.711 571.082 525 560.52L521.348 564.176L519.996 562.824L523.652 559.168C512.109 547.441 502.859 533.465 496.594 517.961L491.836 519.84L491.137 518.062L495.898 516.184C490.57 502.402 487.59 487.469 487.473 471.859L482.363 471.859L482.363 469.945L487.473 469.945C487.602 452.832 491.145 436.508 497.484 421.648L492.812 419.621L493.57 417.867L498.273 419.91C504.465 405.977 513.098 393.367 523.652 382.645L519.996 378.98L521.348 377.633L525 381.289C536.715 369.738 550.676 360.477 566.156 354.211L564.277 349.438L566.047 348.734L567.926 353.508C581.688 348.172 596.602 345.188 612.195 345.066L612.195 339.953L614.102 339.953L614.102 345.066C631.203 345.199 647.5 348.754 662.34 355.094L664.371 350.41L666.117 351.172L664.074 355.883C677.992 362.082 690.586 370.727 701.293 381.297L704.953 377.633L706.305 378.98L702.648 382.645C714.184 394.375 723.426 408.352 729.691 423.848L734.457 421.969L735.16 423.746L730.398 425.625C735.723 439.406 738.703 454.34 738.82 469.945L743.934 469.945ZM270.797 463.285C270.684 448.895 267.938 435.133 263.031 422.426L175.488 456.996C176.176 458.977 176.578 461.09 176.672 463.285L270.797 463.285ZM270.797 465.199L176.672 465.199C176.57 467.656 176.07 470.012 175.227 472.199L261.57 509.746C267.402 496.039 270.672 480.984 270.797 465.199ZM260.781 511.48L174.469 473.953C173.523 475.891 172.305 477.672 170.863 479.242L237.383 545.84C247.105 535.953 255.066 524.324 260.781 511.48ZM236.035 547.195L169.516 480.598C167.758 482.207 165.758 483.543 163.547 484.527L198.074 572.18C212.352 566.379 225.223 557.844 236.035 547.195ZM196.305 572.875L161.773 485.223C159.793 485.91 157.684 486.316 155.492 486.414L155.492 580.652C169.863 580.535 183.617 577.789 196.305 572.875ZM153.578 580.652L153.578 486.414C151.125 486.305 148.773 485.809 146.59 484.961L109.09 571.414C122.785 577.25 137.812 580.527 153.578 580.652ZM107.355 570.625L144.84 484.203C142.898 483.254 141.125 482.035 139.555 480.598L73.0352 547.195C82.918 556.93 94.5273 564.898 107.355 570.625ZM71.6836 545.84L138.203 479.242C136.594 477.484 135.258 475.477 134.277 473.273L46.7383 507.844C52.5234 522.133 61.0508 535.02 71.6836 545.84ZM46.0352 506.066L133.582 471.496C132.895 469.508 132.492 467.395 132.395 465.199L38.2695 465.199C38.3906 479.59 41.1328 493.359 46.0352 506.066ZM38.2695 463.285L132.395 463.285C132.5 460.828 133 458.477 133.836 456.285L47.5 418.738C41.6641 432.453 38.3984 447.5 38.2695 463.285ZM48.2891 417.004L134.602 454.531C135.551 452.598 136.758 450.82 138.203 449.242L71.6875 382.645C61.9648 392.535 54.0078 404.16 48.2891 417.004ZM73.0352 381.289L139.555 447.895C141.305 446.277 143.316 444.941 145.516 443.957L110.992 356.312C96.7188 362.105 83.8438 370.641 73.0352 381.289ZM112.766 355.609L147.293 443.262C149.277 442.574 151.387 442.168 153.578 442.078L153.578 347.832C139.207 347.949 125.457 350.703 112.766 355.609ZM155.492 347.832L155.492 442.078C157.945 442.18 160.297 442.68 162.488 443.523L199.98 357.07C186.285 351.234 171.258 347.961 155.492 347.832ZM201.715 357.859L164.234 444.285C166.168 445.23 167.941 446.449 169.516 447.895L236.035 381.289C226.152 371.555 214.543 363.586 201.715 357.859ZM237.383 382.645L170.863 449.242C172.477 451.004 173.812 453.008 174.793 455.219L262.328 420.641C256.543 406.355 248.02 393.465 237.383 382.645ZM285.316 463.285L285.316 465.199L280.211 465.199C280.078 482.316 276.531 498.637 270.195 513.5L274.871 515.527L274.109 517.281L269.41 515.234C263.219 529.168 254.586 541.777 244.035 552.504L247.688 556.164L246.336 557.512L242.684 553.855C230.973 565.41 217.012 574.664 201.527 580.941L203.41 585.707L201.633 586.41L199.758 581.641C185.996 586.977 171.078 589.957 155.492 590.078L155.492 595.191L153.578 595.191L153.578 590.078C136.484 589.945 120.184 586.398 105.344 580.051L103.316 584.734L101.566 583.977L103.605 579.262C89.6914 573.062 77.0977 564.422 66.3828 553.855L62.7305 557.512L61.3789 556.164L65.0352 552.504C53.5 540.777 44.25 526.801 37.9844 511.301L33.2266 513.18L32.5234 511.402L37.2812 509.523C31.957 495.742 28.9805 480.809 28.8594 465.199L23.7461 465.199L23.7461 463.285L28.8594 463.285C28.9922 446.168 32.5352 429.848 38.8672 414.992L34.1953 412.957L34.9531 411.203L39.6562 413.25C45.8516 399.316 54.4844 386.707 65.0352 375.98L61.3789 372.32L62.7305 370.973L66.3828 374.629C78.0977 363.078 92.0586 353.82 107.539 347.547L105.66 342.777L107.438 342.074L109.312 346.844C123.074 341.508 137.992 338.527 153.578 338.406L153.578 333.293L155.492 333.293L155.492 338.406C172.586 338.539 188.887 342.086 203.73 348.434L205.762 343.75L207.508 344.508L205.465 349.215C219.379 355.422 231.973 364.066 242.684 374.629L246.336 370.973L247.688 372.32L244.035 375.98C255.574 387.707 264.816 401.688 271.082 417.188L275.844 415.305L276.547 417.082L271.781 418.961C277.113 432.742 280.09 447.676 280.211 463.285L285.316 463.285ZM430.688 498.312C431.832 495.742 430.68 492.73 428.113 491.582C425.551 490.441 422.539 491.594 421.398 494.164L392.355 559.414L401.645 563.562L430.688 498.312ZM459.383 482.117C459.383 473.902 452.707 467.211 444.496 467.211C436.285 467.211 429.609 473.902 429.609 482.117C429.609 490.336 436.285 497.023 444.496 497.023C452.707 497.023 459.383 490.336 459.383 482.117ZM424.523 482.117C424.523 473.902 417.844 467.211 409.637 467.211C401.426 467.211 394.75 473.902 394.75 482.117C394.75 490.336 401.426 497.023 409.637 497.023C417.844 497.023 424.523 490.336 424.523 482.117ZM475.168 493.121C475.168 519.703 453.574 541.332 427.023 541.332C421.973 541.332 417.105 540.543 412.535 539.098L418.863 524.875C421.219 526.434 424.039 527.352 427.07 527.352C435.273 527.352 441.949 520.668 441.949 512.449C441.949 505.512 437.191 499.691 430.785 498.027C431.727 495.523 430.59 492.691 428.113 491.582C425.551 490.441 422.539 491.594 421.398 494.164L418.762 500.078C414.797 502.758 412.176 507.301 412.176 512.449C412.176 513.148 412.246 513.836 412.344 514.516L403.219 535.004C388.691 526.695 378.871 511.043 378.871 493.121C378.871 466.535 400.469 444.906 427.023 444.906C453.574 444.906 475.168 466.535 475.168 493.121ZM282.27 164.555L291.535 168.754L263.297 232.543L254.59 227.086L282.27 164.555" fill="#959595" fill-rule="nonzero" opacity="1" stroke="none"/>
<g opacity="1">
<clipPath id="ClipPath">
<path d="M18.6641 328.02L749.02 328.02L749.02 606.934L18.6641 606.934L18.6641 328.02Z"/>
</clipPath>
<g clip-path="url(#ClipPath)">
<path d="M613.965 462.816C609.504 462.367 605.527 465.621 605.07 470.09C604.621 474.551 607.871 478.539 612.332 478.992C616.797 479.441 620.773 476.191 621.23 471.723C621.68 467.258 618.426 463.27 613.965 462.816ZM154.531 456.117C150.055 456.117 146.418 459.754 146.418 464.238C146.418 468.73 150.055 472.371 154.531 472.371C159.016 472.371 162.652 468.73 162.652 464.238C162.652 459.754 159.016 456.117 154.531 456.117ZM738.844 470.906C738.844 540.305 682.461 596.762 613.148 596.762C543.84 596.762 487.453 540.305 487.453 470.906C487.453 401.508 543.84 345.047 613.148 345.047C682.461 345.047 738.844 401.508 738.844 470.906ZM749.02 470.906C749.02 395.895 688.066 334.863 613.148 334.863C538.23 334.863 477.281 395.895 477.281 470.906C477.281 545.922 538.23 606.949 613.148 606.949C688.066 606.949 749.02 545.922 749.02 470.906ZM280.234 464.238C280.234 533.645 223.848 590.102 154.539 590.102C85.2227 590.102 28.8359 533.645 28.8359 464.238C28.8359 394.848 85.2227 338.383 154.539 338.383C223.848 338.383 280.234 394.848 280.234 464.238ZM290.406 464.238C290.406 389.227 229.457 328.199 154.539 328.199C79.6133 328.199 18.6641 389.227 18.6641 464.238C18.6641 539.258 79.6133 600.289 154.539 600.289C229.457 600.289 290.406 539.258 290.406 464.238ZM416.645 566.438L383.145 567.637C380.91 567.715 379.023 565.961 378.945 563.723L378.871 561.668C378.793 559.422 380.543 557.543 382.781 557.457L416.277 556.262C418.523 556.176 420.398 557.93 420.484 560.176L420.559 562.23C420.633 564.477 418.883 566.355 416.645 566.438" fill="#1a1a1a" fill-rule="nonzero" opacity="1" stroke="none"/>
</g>
</g>
<path d="M596.664 202.609C596.812 201.559 596.93 200.578 596.961 199.914C597.566 187.934 593.059 176.137 584.363 167.582C579.559 162.859 572.438 161.441 566.215 164C548.633 171.227 520.832 185.094 499.566 185.094L467.906 185.094C461.613 185.094 456.504 190.203 456.504 196.504C456.504 202.809 461.613 207.918 467.906 207.918L590.539 207.918C593.613 207.918 596.238 205.66 596.664 202.609ZM285.57 163.156C276.598 163.156 267.629 163.156 258.66 163.156C250.02 163.156 239.691 161.754 231.227 164.121C216.254 168.309 208.098 185.004 213.953 199.383C219.621 213.305 232.578 215.723 245.922 215.723C253.879 215.723 253.891 203.348 245.922 203.348C236.297 203.348 224.309 202.266 224.309 189.441C224.309 178.574 233.941 175.535 242.824 175.535C257.074 175.535 271.32 175.535 285.57 175.535C293.523 175.535 293.535 163.156 285.57 163.156ZM266.566 234.645L248.32 234.645C245.512 234.645 243.234 232.363 243.234 229.555C243.234 226.742 245.512 224.457 248.32 224.457L266.566 224.457C269.375 224.457 271.652 226.742 271.652 229.555C271.652 232.363 269.375 234.645 266.566 234.645" fill="#63ab91" fill-rule="nonzero" opacity="1" stroke="none"/>
</g>
</svg>
