<?xml version="1.0" encoding="UTF-8" standalone="no"?>
<!DOCTYPE svg PUBLIC "-//W3C//DTD SVG 1.1//EN" "http://www.w3.org/Graphics/SVG/1.1/DTD/svg11.dtd">
<!-- Created with Vectornator (http://vectornator.io/) -->
<svg height="100%" stroke-miterlimit="10" style="fill-rule:nonzero;clip-rule:evenodd;stroke-linecap:round;stroke-linejoin:round;" version="1.1" viewBox="0 0 768 768" width="100%" xml:space="preserve" xmlns="http://www.w3.org/2000/svg" xmlns:vectornator="http://vectornator.io" xmlns:xlink="http://www.w3.org/1999/xlink">
<defs/>
<g id="Untitled" vectornator:layerName="Untitled">
<g opacity="1">
<clipPath id="ClipPath">
<path d="M271 72L497 72L497 752.328L271 752.328L271 72Z"/>
</clipPath>
<g clip-path="url(#ClipPath)">
<path d="M496.207 399.605C496.207 399.238 496.281 398.828 496.281 398.461C496.281 384.039 493.508 370.285 488.547 357.605C488.289 355.461 487.254 352.613 485.254 348.953C468.824 318.93 478.223 278.113 482.219 264.211C491.137 248.055 496.281 229.531 496.281 209.789C496.281 175.07 461.09 116.91 430.082 72.3945L337.496 72.3945C306.484 116.91 271.328 175.07 271.328 209.789C271.328 228.164 275.77 245.504 283.578 260.809L283.578 260.848C283.578 260.848 300.934 310.281 283.91 346.809C283.32 347.953 282.727 349.102 282.172 350.285L282.062 350.508C280.582 353.207 279.656 355.387 279.137 357.273C274.105 370.027 271.328 383.895 271.328 398.461C271.328 398.828 271.367 399.238 271.402 399.605L271.328 399.605L271.328 720.605L271.812 720.605C274.66 738.535 290.164 752.254 308.926 752.254C327.652 752.254 343.156 738.535 346.004 720.605L347.004 720.605C349.855 738.535 365.359 752.254 384.121 752.254C402.844 752.254 418.387 738.535 421.199 720.605L422.234 720.605C425.047 738.535 440.59 752.254 459.316 752.254C478.039 752.254 493.582 738.535 496.395 720.605L496.91 720.605L496.91 399.605L496.207 399.605" fill="#cbe4de" fill-rule="nonzero" opacity="1" stroke="none"/>
</g>
</g>
<path d="M481.148 393.949C481.148 380.75 478.777 368.18 474.488 356.605C474.227 354.648 473.34 352.059 471.602 348.656C457.426 321.223 465.531 283.918 469.008 271.199C476.707 256.445 481.148 239.512 481.148 221.434C481.148 216.184 480.223 210.27 478.703 203.945L288.98 203.945C287.426 210.27 286.539 216.184 286.539 221.434C286.539 238.258 290.387 254.117 297.16 268.094L297.121 268.094C297.121 268.094 312.145 313.348 297.418 346.699C296.898 347.77 296.383 348.805 295.902 349.914C295.863 349.953 295.863 350.027 295.828 350.098C294.531 352.539 293.754 354.574 293.312 356.312C288.945 367.957 286.539 380.641 286.539 393.949C286.539 394.281 286.574 394.652 286.574 394.984L286.539 394.984L286.539 688.512L286.984 688.512C289.426 704.891 302.859 717.461 319.066 717.461C335.273 717.461 348.668 704.891 351.148 688.512L352.039 688.512C354.48 704.891 367.914 717.461 384.121 717.461C400.328 717.461 413.762 704.891 416.203 688.512L417.094 688.512C419.57 704.891 432.969 717.461 449.176 717.461C465.383 717.461 478.816 704.891 481.258 688.512L481.703 688.512L481.703 394.984L481.074 394.984C481.074 394.652 481.148 394.281 481.148 393.949" fill="#fdfdfd" fill-rule="nonzero" opacity="1" stroke="none"/>
<path d="M496.91 652.203L271.328 652.203L271.328 517.363L496.91 517.363L496.91 652.203" fill="#63ab91" fill-rule="nonzero" opacity="1" stroke="none"/>
<g opacity="1">
<clipPath id="ClipPath_2">
<path d="M320 15.8281L448 15.8281L448 74L320 74L320 15.8281Z"/>
</clipPath>
<g clip-path="url(#ClipPath_2)">
<path d="M447.512 44.7773C447.512 60.7109 436.41 73.6523 422.68 73.6523L345.562 73.6523C331.832 73.6523 320.77 60.7109 320.77 44.7773C320.77 28.8438 331.832 15.9023 345.562 15.9023L422.68 15.9023C436.41 15.9023 447.512 28.8438 447.512 44.7773" fill="#63ab91" fill-rule="nonzero" opacity="1" stroke="none"/>
</g>
</g>
</g>
</svg>
