<?xml version="1.0" encoding="UTF-8" standalone="no"?>
<!DOCTYPE svg PUBLIC "-//W3C//DTD SVG 1.1//EN" "http://www.w3.org/Graphics/SVG/1.1/DTD/svg11.dtd">
<!-- Created with Vectornator (http://vectornator.io/) -->
<svg height="100%" stroke-miterlimit="10" style="fill-rule:nonzero;clip-rule:evenodd;stroke-linecap:round;stroke-linejoin:round;" version="1.1" viewBox="0 0 768 768" width="100%" xml:space="preserve" xmlns="http://www.w3.org/2000/svg" xmlns:vectornator="http://vectornator.io" xmlns:xlink="http://www.w3.org/1999/xlink">
<defs/>
<g id="Untitled" vectornator:layerName="Untitled">
<path d="M377.781 59.0625C375.273 59.125 372.785 59.3398 370.312 59.75C367.844 60.1563 365.422 60.7539 363.031 61.5C360.641 62.25 358.324 63.1445 356.062 64.2188C353.797 65.293 351.594 66.5273 349.5 67.9062C347.41 69.2852 345.441 70.8086 343.562 72.4688C341.684 74.125 339.941 75.9062 338.312 77.8125C336.684 79.7148 335.191 81.7305 333.844 83.8438C332.496 85.957 331.289 88.1602 330.25 90.4375C301.355 142.395 237.93 269.727 209.125 321.594C208.926 321.934 208.723 322.266 208.562 322.625C208.402 322.984 208.273 323.344 208.156 323.719C208.035 324.094 207.926 324.488 207.844 324.875C207.766 325.262 207.723 325.637 207.688 326.031C207.648 326.422 207.648 326.824 207.656 327.219C207.664 327.613 207.668 328.016 207.719 328.406C207.77 328.797 207.844 329.18 207.938 329.562C208.027 329.945 208.148 330.316 208.281 330.688C208.418 331.059 208.578 331.426 208.75 331.781C208.926 332.133 209.102 332.449 209.312 332.781C209.523 333.113 209.754 333.445 210 333.75C210.246 334.059 210.504 334.348 210.781 334.625C211.059 334.902 211.352 335.16 211.656 335.406C211.965 335.656 212.293 335.883 212.625 336.094C212.957 336.305 213.301 336.516 213.656 336.688C214.008 336.859 214.383 337.023 214.75 337.156L348.531 82.875L408.188 75.0938L548.719 342.344C549.277 342.172 549.828 341.965 550.344 341.688C551.148 341.383 551.887 340.965 552.562 340.438C553.238 339.906 553.824 339.301 554.312 338.594C554.805 337.887 555.18 337.129 555.438 336.312C555.695 335.492 555.812 334.641 555.812 333.781L559.938 250.5C560.266 249.355 560.391 248.219 560.312 247.031C560.234 245.848 559.977 244.684 559.5 243.594C559.441 243.594 559.406 243.559 559.406 243.5C559.227 243.141 559.055 242.703 558.875 242.344C558.766 242.207 558.664 242.07 558.594 241.906C558.316 241.438 558.016 240.973 557.656 240.562C557.297 240.152 556.898 239.809 556.469 239.469C556.039 239.133 555.578 238.813 555.094 238.562C554.609 238.312 554.086 238.129 553.562 237.969C553.039 237.812 552.512 237.715 551.969 237.656C551.426 237.602 550.891 237.578 550.344 237.625C549.801 237.668 549.246 237.762 548.719 237.906C548.191 238.051 547.711 238.262 547.219 238.5L546.844 238.656L545.406 239.375L517.688 252.75C489.602 207.793 454.332 132.063 426.875 88.0938L426.781 88.0938C425.633 85.8672 424.352 83.7305 422.906 81.6875C421.457 79.6406 419.875 77.6953 418.156 75.875C416.437 74.0508 414.582 72.375 412.625 70.8125C410.668 69.2461 408.625 67.8086 406.469 66.5312C404.312 65.2539 402.063 64.1523 399.75 63.1875C397.438 62.2227 395.082 61.4141 392.656 60.7812C390.234 60.1484 387.773 59.6953 385.281 59.4062C382.793 59.1172 380.285 59.0039 377.781 59.0625ZM189.531 385.094C189.207 385.207 188.902 385.324 188.594 385.469L116.719 428C115.602 428.34 114.566 428.871 113.625 429.562C112.687 430.254 111.902 431.094 111.25 432.062C111.25 432.152 111.156 432.129 111.156 432.219C110.922 432.551 110.75 432.926 110.625 433.312L110.344 433.844C110.098 434.332 109.898 434.82 109.75 435.344C109.602 435.867 109.516 436.426 109.469 436.969C109.422 437.512 109.414 438.055 109.469 438.594C109.523 439.137 109.656 439.668 109.812 440.188C109.969 440.711 110.152 441.207 110.406 441.688C110.66 442.172 110.973 442.605 111.312 443.031C111.652 443.457 112.023 443.863 112.438 444.219C112.852 444.57 113.277 444.883 113.75 445.156L114.219 445.406C114.574 445.672 115.02 445.949 115.469 446.219L138.531 459.969C116.82 500.172 101.457 535.973 75.4375 587.75L75.4375 587.844C74.0625 589.938 72.8516 592.105 71.7812 594.375C70.7109 596.641 69.8047 598.984 69.0625 601.375C68.3164 603.77 67.75 606.184 67.3438 608.656C66.9414 611.133 66.7109 613.617 66.6562 616.125C66.6016 618.629 66.707 621.137 67 623.625C67.2969 626.113 67.7656 628.578 68.4062 631C69.0469 633.426 69.8398 635.785 70.8125 638.094C71.7813 640.406 72.9375 642.629 74.2188 644.781C75.5 646.934 76.8984 649.016 78.4688 650.969C80.0391 652.922 81.7656 654.754 83.5938 656.469C85.418 658.184 87.3555 659.742 89.4062 661.188C91.4531 662.633 93.582 663.945 95.8125 665.094C98.043 666.238 100.32 667.207 102.688 668.031C105.055 668.855 107.48 669.512 109.938 670C112.395 670.484 114.871 670.797 117.375 670.938C119.879 671.074 122.379 671.055 124.875 670.844C184.273 670.484 283.789 668.867 343.188 668.688C343.73 668.707 344.273 668.691 344.812 668.625C345.352 668.559 345.883 668.43 346.406 668.281C346.926 668.133 347.414 667.949 347.906 667.719C348.398 667.488 348.863 667.242 349.312 666.938C349.762 666.633 350.199 666.277 350.594 665.906C350.992 665.535 351.355 665.148 351.688 664.719C352.02 664.289 352.301 663.82 352.562 663.344C352.824 662.867 353.066 662.387 353.25 661.875L95.5625 657.594C92.9492 652.191 90.7773 646.629 89.0625 640.875C87.3477 635.121 86.1133 629.266 85.3438 623.312C84.5703 617.359 84.2773 611.379 84.4688 605.375C84.6641 599.375 85.3164 593.422 86.4688 587.531C88.0313 580.008 90.3828 572.742 93.5 565.719C96.6133 558.699 100.441 552.082 104.969 545.875L189.531 385.094ZM353.25 661.875L402.906 662.719C402.973 663.41 403.105 664.066 403.344 664.719C403.586 665.371 403.914 665.992 404.312 666.562C404.707 667.133 405.16 667.645 405.688 668.094C406.215 668.547 406.812 668.918 407.438 669.219L407.875 669.5C408.273 669.82 408.719 670.027 409.219 670.125L480.188 707.344C480.621 707.59 481.062 707.797 481.531 707.969L481.906 708.25C482.379 708.508 482.863 708.711 483.375 708.875C483.887 709.039 484.434 709.152 484.969 709.219C485.504 709.285 486.023 709.316 486.562 709.281C487.098 709.25 487.633 709.16 488.156 709.031C488.68 708.898 489.199 708.727 489.688 708.5C490.18 708.277 490.625 708 491.062 707.688C491.504 707.375 491.906 707.012 492.281 706.625C492.656 706.234 493.016 705.824 493.312 705.375C493.688 704.957 493.934 704.477 494.094 703.938C494.285 703.687 494.453 703.414 494.562 703.125C495.434 701.059 495.605 698.961 495.094 696.781L494.656 672.625C548.223 673.164 588.152 672.992 641.719 673.531L641.781 673.531C644.34 673.75 646.906 673.77 649.469 673.625C652.031 673.48 654.578 673.164 657.094 672.656C659.609 672.152 662.082 671.48 664.5 670.625C666.922 669.766 669.258 668.719 671.531 667.531C673.805 666.34 675.98 665 678.062 663.5C680.145 662 682.121 660.371 683.969 658.594C685.82 656.813 687.516 654.898 689.094 652.875C690.672 650.852 692.098 648.727 693.375 646.5C694.57 644.371 695.633 642.18 696.531 639.906C697.43 637.633 698.168 635.312 698.75 632.938C699.332 630.562 699.773 628.148 700.031 625.719C700.289 623.289 700.355 620.852 700.281 618.406C700.207 615.965 699.996 613.539 699.594 611.125C699.191 608.715 698.633 606.367 697.906 604.031C697.184 601.695 696.281 599.402 695.25 597.188C694.219 594.973 693.039 592.836 691.719 590.781C663.633 538.555 612.953 444.602 584.781 392.375C584.508 391.812 584.18 391.285 583.812 390.781C583.445 390.277 583.047 389.805 582.594 389.375C582.145 388.945 581.645 388.563 581.125 388.219C580.605 387.875 580.07 387.59 579.5 387.344C578.926 387.098 578.324 386.891 577.719 386.75C577.109 386.609 576.496 386.531 575.875 386.5C575.25 386.473 574.648 386.512 574.031 386.594C573.414 386.676 572.813 386.809 572.219 387L684.5 600.531L681.906 648.531L643 666.688L353.25 661.875Z" fill="#fdfdfd" fill-rule="nonzero" opacity="1" stroke="none"/>
<path d="M333.582 361.469C325.441 358.836 317.574 355.547 309.984 351.598C313.48 348.738 317.156 346.137 321.008 343.785C324.863 341.434 328.863 339.359 333.004 337.562C337.145 335.766 341.391 334.262 345.738 333.051C350.09 331.84 354.5 330.934 358.977 330.332C360.051 330.152 361.219 330.062 362.297 329.973C362.371 330.328 362.398 330.688 362.387 331.047C362.562 332.395 362.742 333.742 362.832 335.086C362.824 335.734 362.883 336.371 363.004 337.008C363.129 337.641 363.312 338.258 363.559 338.855C363.805 339.453 364.109 340.02 364.469 340.555C364.832 341.09 365.242 341.586 365.703 342.039C366.164 342.488 366.664 342.891 367.207 343.242C367.75 343.594 368.32 343.887 368.922 344.121C369.523 344.359 370.145 344.531 370.781 344.641C371.418 344.75 372.059 344.797 372.703 344.777L372.793 344.777C374.102 344.809 375.359 344.582 376.574 344.102C377.789 343.617 378.863 342.918 379.793 341.996C380.742 340.945 381.449 339.746 381.918 338.41C382.383 337.07 382.574 335.695 382.484 334.277C382.484 332.934 382.395 331.496 382.305 330.062C382.664 330.152 383.023 330.152 383.293 330.242C387.816 330.703 392.305 331.422 396.75 332.395C403.859 334.059 410.68 336.508 417.223 339.754C423.762 342.996 429.844 346.945 435.469 351.598C425.547 357.152 415.02 361.07 403.883 363.352C397.512 364.52 391.141 365.238 384.414 365.957C381.184 366.227 377.953 366.582 374.723 367.031L370.055 362.637C369.172 361.594 368.191 360.652 367.109 359.812C366.031 358.973 364.879 358.25 363.652 357.648C362.426 357.047 361.148 356.578 359.824 356.238C358.5 355.898 357.156 355.699 355.789 355.637C352.191 355.766 348.781 356.633 345.562 358.238C343.809 358.992 342.137 359.891 340.535 360.93C340.031 361.273 339.488 361.547 338.91 361.746C338.336 361.949 337.742 362.074 337.133 362.121C336.52 362.168 335.914 362.137 335.316 362.027C334.715 361.914 334.137 361.73 333.582 361.469ZM332.598 518.953C337.98 522.363 346.773 537.977 352.695 539.504C362.922 541.883 373.27 542.664 383.738 541.836C396.301 541.117 403.75 524.699 412.902 518.953C399.621 521.324 386.234 522.508 372.746 522.5C359.258 522.492 345.875 521.297 332.598 518.91L332.598 518.953Z" fill="#cbe4de" fill-rule="nonzero" opacity="1" stroke="none"/>
<path d="M323.884 375.154L356.54 368.59L378.128 377.197L421.661 376.019C421.661 376.019 397.82 408.505 403.018 439.32C408.216 470.136 442.453 499.281 442.453 499.281L372.647 514.299L300.743 497.067C300.743 497.067 338.366 477.005 342.478 445.129C346.59 413.253 323.884 375.154 323.884 375.154Z" fill="#cbe4de" fill-rule="nonzero" opacity="1" stroke="none"/>
<path d="M137.801 437.43L183.379 410.598L181.316 463.453L137.801 437.43ZM494.73 284.879L537.801 315.66L540.492 262.805L494.73 284.879ZM430.98 660.289L475.844 683.797L474.945 630.945L430.98 660.289Z" fill="#cbe4de" fill-rule="nonzero" opacity="1" stroke="none"/>
<path d="M456.105 486.426C449.285 480.773 442.285 475.387 435.289 470.004L433.941 468.926C430.602 466.66 427.594 464.02 424.918 460.996C422.246 457.969 419.988 454.664 418.148 451.07C416.785 447.695 415.73 444.227 414.992 440.66C414.25 437.098 413.832 433.496 413.742 429.855C413.648 426.215 413.883 422.598 414.445 419C415.004 415.402 415.879 411.883 417.074 408.445C418.902 402.922 421.434 397.738 424.66 392.895C427.891 388.055 431.699 383.723 436.094 379.91C439.953 376.23 443.812 372.641 447.762 368.961C450.898 366.09 454.039 363.129 457.18 360.258C458.391 359.227 459.332 357.988 460.008 356.547C460.68 355.109 461.023 353.594 461.039 352C460.938 350.477 460.527 349.043 459.809 347.699C459.09 346.352 458.121 345.215 456.91 344.285L452.875 340.875C447.797 336.238 442.414 331.988 436.723 328.133C432.336 325.262 427.77 322.707 423.023 320.469C418.281 318.23 413.406 316.328 408.398 314.766C403.395 313.203 398.305 311.996 393.129 311.137C387.957 310.277 382.746 309.781 377.504 309.645C376.562 307.145 375.305 304.812 373.734 302.648C370.895 298.766 367.785 295.117 364.402 291.699C363.84 291.121 363.215 290.617 362.535 290.184C361.852 289.754 361.129 289.402 360.367 289.141C359.602 288.875 358.82 288.699 358.016 288.617C357.215 288.535 356.41 288.547 355.609 288.648C354.844 288.77 354.102 288.98 353.387 289.273C352.668 289.57 351.996 289.941 351.363 290.395C350.734 290.848 350.164 291.363 349.652 291.949C349.141 292.531 348.707 293.168 348.344 293.852C348.051 294.383 347.812 294.938 347.625 295.516C347.438 296.09 347.305 296.68 347.227 297.281C347.145 297.879 347.125 298.484 347.156 299.09C347.191 299.695 347.277 300.289 347.422 300.879C347.566 301.469 347.766 302.039 348.012 302.59C348.262 303.141 348.562 303.664 348.91 304.164C349.258 304.66 349.648 305.117 350.078 305.543C350.512 305.969 350.98 306.348 351.484 306.684C352.965 307.961 354.312 309.367 355.52 310.902C349.207 311.766 343.008 313.137 336.914 315.012C330.824 316.887 324.93 319.246 319.223 322.082C313.516 324.922 308.078 328.203 302.91 331.926C297.738 335.652 292.902 339.77 288.406 344.285C287.195 345.379 286.246 346.664 285.562 348.145C284.879 349.625 284.508 351.18 284.457 352.809C284.605 354.375 285.062 355.844 285.828 357.219C286.594 358.594 287.602 359.754 288.855 360.707C296.031 366.719 303.301 372.551 310.477 378.383C312.973 380.27 315.273 382.371 317.379 384.688C319.484 387 321.355 389.488 323 392.152C324.641 394.816 326.023 397.605 327.148 400.527C328.27 403.445 329.113 406.445 329.68 409.523C331.652 419.84 332.07 430.219 330.938 440.66C330.727 444.312 330.043 447.875 328.887 451.344C327.73 454.812 326.141 458.074 324.117 461.121C320.215 465.812 315.547 469.551 310.121 472.336L308.414 473.414C302.223 477.273 295.852 481.668 289.035 486.785C287.762 487.629 286.723 488.703 285.926 490.004C285.125 491.305 284.637 492.715 284.457 494.23C284.379 495.848 284.637 497.406 285.234 498.906C285.828 500.41 286.707 501.723 287.867 502.848L292.352 507.691C295.582 511.191 298.723 514.691 301.953 518.191C315.324 533.176 333.18 555.434 349.867 559.02C358.379 560.891 366.992 561.82 375.711 561.805C382.852 561.828 389.938 561.23 396.973 560.008C413.574 557.227 424.609 536.855 436.004 525.641C440.852 520.883 445.516 515.859 450.094 510.832C452.336 508.41 454.578 505.898 456.91 503.477C457.242 503.223 457.559 502.949 457.855 502.656C458.156 502.363 458.434 502.055 458.695 501.727C458.957 501.402 459.199 501.062 459.418 500.707C459.637 500.352 459.836 499.984 460.012 499.605C460.188 499.227 460.34 498.84 460.469 498.441C460.598 498.043 460.703 497.641 460.785 497.23C460.863 496.82 460.918 496.406 460.949 495.988C460.98 495.574 460.984 495.156 460.965 494.738C460.945 494.32 460.902 493.906 460.832 493.496C460.762 493.082 460.668 492.676 460.547 492.277C460.43 491.875 460.289 491.484 460.121 491.102C459.957 490.719 459.766 490.344 459.555 489.984C459.344 489.625 459.113 489.277 458.859 488.945C458.609 488.613 458.336 488.297 458.047 487.996C457.754 487.695 457.445 487.414 457.121 487.152C456.797 486.891 456.457 486.648 456.105 486.426ZM309.984 351.598C313.48 348.738 317.156 346.137 321.008 343.785C324.863 341.434 328.863 339.359 333.004 337.562C337.145 335.766 341.391 334.262 345.738 333.051C350.09 331.84 354.5 330.934 358.977 330.332C360.051 330.152 361.219 330.062 362.297 329.973C362.371 330.328 362.398 330.688 362.387 331.047C362.562 332.395 362.742 333.742 362.832 335.086C362.824 335.734 362.883 336.371 363.004 337.008C363.129 337.641 363.312 338.258 363.559 338.855C363.805 339.453 364.109 340.02 364.469 340.555C364.832 341.09 365.242 341.586 365.703 342.039C366.164 342.488 366.664 342.891 367.207 343.242C367.75 343.594 368.32 343.887 368.922 344.121C369.523 344.359 370.145 344.531 370.781 344.641C371.418 344.75 372.059 344.797 372.703 344.777L372.793 344.777C374.102 344.809 375.359 344.582 376.574 344.102C377.789 343.617 378.863 342.918 379.793 341.996C380.742 340.945 381.449 339.746 381.918 338.41C382.383 337.07 382.574 335.695 382.484 334.277C382.484 332.934 382.395 331.496 382.305 330.062C382.664 330.152 383.023 330.152 383.293 330.242C387.816 330.703 392.305 331.422 396.75 332.395C403.859 334.059 410.68 336.508 417.223 339.754C423.762 342.996 429.844 346.945 435.469 351.598C425.547 357.152 415.02 361.07 403.883 363.352C397.512 364.52 391.141 365.238 384.414 365.957C381.184 366.227 377.953 366.582 374.723 367.031L370.055 362.637C369.172 361.594 368.191 360.652 367.109 359.812C366.031 358.973 364.879 358.25 363.652 357.648C362.426 357.047 361.148 356.578 359.824 356.238C358.5 355.898 357.156 355.699 355.789 355.637C352.191 355.766 348.781 356.633 345.562 358.238C343.809 358.992 342.137 359.891 340.535 360.93C340.031 361.27 339.496 361.539 338.922 361.738C338.348 361.938 337.758 362.062 337.152 362.109C336.547 362.156 335.945 362.125 335.348 362.016C334.75 361.906 334.18 361.727 333.629 361.469C325.469 358.84 317.59 355.551 309.984 351.598ZM383.738 541.836C373.27 542.664 362.922 541.883 352.695 539.504C346.773 537.977 337.98 522.363 332.598 518.953C345.875 521.332 359.258 522.52 372.75 522.52C386.238 522.52 399.621 521.332 412.902 518.953C403.75 524.652 396.301 541.074 383.738 541.836ZM379.883 502.621C362.586 502.883 345.445 501.359 328.469 498.047C327.391 497.867 326.316 497.598 326.316 497.598C322.098 496.07 317.703 494.727 313.395 493.379C315.188 492.305 317.074 491.227 318.867 490.148C322.188 488.176 325.508 486.199 328.738 483.957C331.508 482.043 334.051 479.863 336.367 477.422C338.684 474.98 340.727 472.328 342.496 469.461C344.262 466.598 345.719 463.582 346.863 460.414C348.008 457.25 348.812 454 349.285 450.664C350.359 445.543 351.055 440.367 351.363 435.141C351.672 429.914 351.598 424.695 351.133 419.48C350.668 414.266 349.824 409.113 348.598 404.023C347.371 398.934 345.773 393.961 343.812 389.105C342.648 386.594 341.273 384.199 339.684 381.93C343.672 381.43 347.352 380.082 350.719 377.891C351.621 377.359 352.547 376.879 353.504 376.453C353.77 376.363 354.488 376.008 355.117 375.828L356.375 377.082C357.539 378.34 358.707 379.504 359.871 380.672C360.855 381.652 361.926 382.523 363.086 383.285C364.242 384.047 365.465 384.688 366.754 385.203C368.039 385.723 369.367 386.105 370.73 386.352C372.094 386.602 373.469 386.711 374.855 386.684C385.906 386.535 396.824 385.246 407.605 382.824C405.051 386.781 402.84 390.922 400.973 395.246C399.102 399.57 397.605 404.02 396.473 408.59C395.344 413.164 394.598 417.797 394.238 422.496C393.879 427.191 393.91 431.887 394.328 436.578C394.504 439.105 394.832 441.613 395.305 444.105C395.777 446.594 396.395 449.047 397.156 451.465C397.918 453.879 398.82 456.242 399.863 458.555C400.902 460.863 402.078 463.105 403.383 465.277C404.688 467.449 406.117 469.535 407.668 471.539C409.219 473.543 410.883 475.449 412.66 477.258C414.434 479.062 416.312 480.762 418.289 482.348C420.266 483.934 422.328 485.398 424.477 486.738C427.438 488.895 430.398 491.137 433.359 493.379C415.949 498.859 398.121 501.926 379.883 502.578L379.883 502.621ZM559.516 243.645C559.453 243.645 559.426 243.617 559.426 243.555C559.246 243.199 559.066 242.75 558.887 242.391C558.777 242.254 558.688 242.102 558.617 241.941C558.34 241.473 558.02 241.031 557.66 240.621C557.297 240.211 556.902 239.836 556.473 239.5C556.043 239.164 555.586 238.871 555.098 238.617C554.613 238.367 554.109 238.164 553.586 238.008C553.062 237.852 552.527 237.746 551.984 237.688C551.441 237.629 550.898 237.625 550.355 237.668C549.809 237.715 549.273 237.809 548.746 237.953C548.223 238.098 547.711 238.293 547.223 238.531L545.426 239.43L517.703 252.801C489.617 207.84 454.355 132.105 426.898 88.1328L426.809 88.1328C425.66 85.9062 424.359 83.7734 422.91 81.7266C421.461 79.6836 419.879 77.75 418.16 75.9258C416.438 74.1055 414.602 72.4102 412.645 70.8438C410.688 69.2773 408.633 67.8555 406.477 66.5781C404.32 65.3008 402.086 64.1797 399.773 63.2148C397.461 62.25 395.09 61.4531 392.668 60.8203C390.242 60.1875 387.785 59.7266 385.297 59.4375C382.809 59.1484 380.312 59.0312 377.805 59.0938C375.301 59.1523 372.812 59.3867 370.34 59.7969C367.867 60.207 365.438 60.7852 363.047 61.5352C360.652 62.2852 358.328 63.1953 356.062 64.2734C353.801 65.3477 351.621 66.5742 349.531 67.957C347.441 69.3359 345.453 70.8555 343.574 72.5117C341.695 74.1719 339.941 75.9531 338.312 77.8555C336.684 79.7578 335.195 81.7695 333.848 83.8789C332.5 85.9922 331.305 88.1875 330.262 90.4688C301.371 142.426 237.934 269.758 209.133 321.625C208.801 322.273 208.531 322.945 208.328 323.641C208.125 324.34 207.992 325.051 207.926 325.773C207.859 326.496 207.863 327.219 207.938 327.941C208.008 328.664 208.148 329.375 208.359 330.07C208.57 330.766 208.844 331.434 209.184 332.078C209.52 332.723 209.918 333.324 210.375 333.891C210.828 334.457 211.332 334.977 211.887 335.445C212.441 335.914 213.039 336.324 213.672 336.68C214.305 337.035 214.969 337.324 215.656 337.555C216.348 337.781 217.055 337.938 217.773 338.031C218.496 338.121 219.219 338.145 219.941 338.094C220.668 338.047 221.383 337.93 222.082 337.742C222.785 337.559 223.465 337.309 224.117 336.992C224.773 336.676 225.391 336.301 225.973 335.863C226.555 335.43 227.09 334.941 227.574 334.402C228.062 333.863 228.496 333.285 228.871 332.664C293.566 216.008 352.246 97.1094 352.605 96.5703C353.109 95.918 353.559 95.2305 353.949 94.5039L353.949 94.418C354.039 94.418 354.039 94.3281 354.129 94.2383C355.387 92.8008 356.73 91.4531 358.078 90.1094L359.961 88.4922C360.051 88.4922 360.051 88.4922 360.051 88.4023C360.051 88.3125 360.141 88.3125 360.23 88.2227C361.848 87.1484 363.461 86.1602 365.258 85.1719C365.98 84.8867 366.668 84.5273 367.32 84.0977L367.5 84.0977C367.574 84.0156 367.664 83.957 367.77 83.918C369.562 83.3789 371.449 82.75 373.242 82.3906C373.422 82.3906 374.141 82.2109 374.586 82.1211C375.035 82.0312 376.383 81.8516 376.652 81.8516C378.445 81.7617 380.332 81.7617 382.215 81.8516C382.324 81.9258 382.441 81.957 382.574 81.9414L382.754 82.0312C383.738 82.3008 384.816 82.3906 385.805 82.5703C387.414 83 389 83.5078 390.559 84.0977C391.008 84.2773 391.727 84.6367 392.086 84.8125C392.867 85.1328 393.617 85.5195 394.328 85.9805C395.113 86.3633 395.863 86.8125 396.57 87.3281C396.66 87.418 397.648 88.043 397.918 88.3125C399.234 89.3164 400.492 90.3945 401.684 91.543C402.223 92.1719 402.852 92.8008 403.391 93.4297C403.52 93.625 403.672 93.8047 403.84 93.9688C403.977 94.0508 404.066 94.1719 404.109 94.3281C404.73 95.2539 405.297 96.2109 405.812 97.1992C405.902 97.2891 405.902 97.4688 406.082 97.6484C433.719 141.797 468.98 217.531 497.242 262.758L473.285 274.336C472.84 274.516 472.301 274.785 471.941 274.965L471.582 275.145C471.051 275.426 470.551 275.758 470.086 276.137C469.617 276.516 469.191 276.938 468.809 277.398C468.422 277.859 468.086 278.355 467.797 278.883C467.508 279.41 467.27 279.957 467.09 280.531C466.906 281.105 466.781 281.691 466.711 282.285C466.641 282.883 466.629 283.484 466.676 284.082C466.723 284.684 466.828 285.273 466.988 285.852C467.148 286.43 467.363 286.988 467.633 287.527C467.816 287.746 467.965 287.984 468.082 288.246C468.625 289.215 469.309 290.07 470.141 290.809C470.969 291.547 471.898 292.129 472.93 292.551L540.852 341.188C541.203 341.41 541.566 341.613 541.945 341.789C542.324 341.965 542.711 342.117 543.109 342.242C543.508 342.371 543.91 342.473 544.32 342.547C544.73 342.621 545.145 342.672 545.559 342.695C545.977 342.715 546.391 342.711 546.809 342.68C547.223 342.652 547.637 342.594 548.043 342.512C548.453 342.426 548.855 342.316 549.25 342.184C549.645 342.047 550.027 341.891 550.402 341.707C550.777 341.523 551.141 341.316 551.488 341.086C551.836 340.855 552.168 340.605 552.48 340.332C552.797 340.059 553.094 339.766 553.375 339.457C553.652 339.148 553.91 338.82 554.148 338.477C554.383 338.133 554.598 337.777 554.789 337.406C554.98 337.035 555.148 336.652 555.289 336.262C555.43 335.871 555.547 335.469 555.641 335.062C555.73 334.656 555.797 334.246 555.836 333.832L559.961 250.555C560.297 249.406 560.426 248.234 560.352 247.039C560.273 245.844 559.996 244.699 559.516 243.602L559.516 243.645ZM537.801 315.703L494.73 284.926L540.492 262.848L537.801 315.703ZM343.184 646.02C209.672 646.828 119.855 648.441 119.137 648.352C119.137 648.352 118.059 648.262 116.715 648.172C116.609 648.188 116.52 648.156 116.445 648.082C114.516 647.816 112.633 647.367 110.793 646.738C110.031 646.508 109.281 646.238 108.547 645.93L108.457 645.93C108.371 645.84 108.281 645.84 108.102 645.75C106.379 644.906 104.703 643.98 103.074 642.969C102.449 642.609 101.73 642.07 101.102 641.621C101.012 641.531 101.102 641.531 101.012 641.531C100.938 641.453 100.848 641.391 100.742 641.355C99.2539 640.121 97.8789 638.777 96.6133 637.316C96.5234 637.227 96.168 636.688 95.8086 636.328C95.3711 635.824 94.9844 635.285 94.6406 634.715C93.625 633.117 92.6992 631.473 91.8594 629.777C91.8203 629.672 91.7617 629.582 91.6797 629.508L91.6797 629.238C91.4102 628.344 91.0508 627.266 90.6914 626.367C90.2344 624.75 89.9062 623.105 89.707 621.434C89.6016 620.867 89.543 620.301 89.5273 619.727C89.5273 618.918 89.4375 618.023 89.4375 617.215C89.4375 616.406 89.5273 615.512 89.5273 614.613C89.5273 614.434 89.707 613.355 89.7969 612.816C90.0039 611.207 90.332 609.621 90.7812 608.062C91.0508 607.344 91.2305 606.445 91.5 605.641C91.5547 605.414 91.6445 605.207 91.7695 605.012C91.7695 604.922 91.8594 604.832 91.9492 604.652C92.4297 603.613 93 602.629 93.6523 601.691C93.6523 601.512 93.7422 601.422 93.832 601.242C120.75 547.938 135.824 512.582 157.988 471.574L184.367 487.277C184.715 487.641 185.133 487.879 185.625 487.996L185.984 488.266C186.441 488.543 186.918 488.777 187.418 488.965C187.918 489.156 188.43 489.301 188.957 489.395C189.48 489.492 190.012 489.539 190.547 489.535C191.082 489.535 191.613 489.484 192.137 489.387C192.664 489.289 193.176 489.145 193.676 488.949C194.172 488.758 194.648 488.523 195.105 488.242C195.562 487.961 195.988 487.645 196.383 487.285C196.781 486.926 197.141 486.535 197.469 486.113C197.828 485.664 198.098 485.215 198.453 484.676C198.555 484.426 198.676 484.188 198.812 483.957C199.336 482.965 199.676 481.914 199.828 480.805C199.98 479.695 199.941 478.594 199.711 477.496L202.941 394.133C202.934 393.715 202.898 393.301 202.84 392.887C202.781 392.477 202.695 392.07 202.582 391.668C202.469 391.266 202.336 390.871 202.172 390.488C202.012 390.102 201.828 389.73 201.617 389.371C201.41 389.008 201.18 388.66 200.926 388.332C200.672 388 200.402 387.684 200.109 387.387C199.816 387.09 199.508 386.812 199.18 386.555C198.852 386.297 198.508 386.059 198.152 385.844C197.793 385.629 197.422 385.441 197.043 385.273C196.66 385.105 196.27 384.961 195.871 384.844C195.469 384.727 195.062 384.633 194.652 384.566C194.242 384.5 193.828 384.457 193.41 384.445C192.992 384.43 192.578 384.441 192.164 384.48C191.746 384.52 191.336 384.582 190.93 384.676C190.523 384.766 190.121 384.879 189.73 385.023C189.336 385.164 188.957 385.328 188.586 385.52L116.715 428.051C115.598 428.391 114.57 428.906 113.629 429.602C112.691 430.293 111.895 431.125 111.242 432.09C111.242 432.18 111.152 432.18 111.152 432.27C110.918 432.602 110.738 432.961 110.613 433.348L110.344 433.887C110.098 434.371 109.902 434.875 109.754 435.398C109.605 435.926 109.508 436.457 109.461 437C109.414 437.543 109.422 438.082 109.477 438.625C109.531 439.164 109.641 439.695 109.797 440.219C109.953 440.738 110.156 441.242 110.41 441.723C110.664 442.203 110.957 442.66 111.297 443.086C111.637 443.512 112.012 443.902 112.426 444.254C112.84 444.609 113.281 444.922 113.754 445.191L114.203 445.461C114.559 445.73 115.008 446 115.457 446.27L138.516 460C116.805 500.199 101.461 536.004 75.4414 587.781L75.4414 587.871C74.0664 589.969 72.8438 592.148 71.7734 594.414C70.7031 596.684 69.7969 599.012 69.0547 601.406C68.3086 603.801 67.7383 606.234 67.332 608.707C66.9297 611.18 66.7031 613.672 66.6484 616.176C66.5938 618.684 66.7148 621.18 67.0078 623.668C67.3047 626.16 67.7695 628.613 68.4102 631.039C69.0508 633.461 69.8555 635.828 70.8242 638.141C71.793 640.453 72.9219 642.684 74.2031 644.836C75.4844 646.992 76.9102 649.043 78.4805 650.996C80.0508 652.953 81.75 654.785 83.5781 656.504C85.4023 658.219 87.3398 659.801 89.3906 661.242C91.4375 662.688 93.5742 663.984 95.8047 665.129C98.0352 666.273 100.332 667.258 102.699 668.082C105.066 668.906 107.48 669.562 109.938 670.047C112.395 670.535 114.875 670.848 117.379 670.984C119.883 671.125 122.383 671.086 124.879 670.875C184.277 670.52 283.785 668.902 343.184 668.723C343.93 668.723 344.668 668.648 345.402 668.504C346.133 668.359 346.848 668.145 347.535 667.855C348.227 667.57 348.883 667.223 349.5 666.805C350.121 666.391 350.699 665.918 351.227 665.391C351.754 664.863 352.227 664.289 352.641 663.668C353.055 663.047 353.406 662.391 353.691 661.703C353.977 661.012 354.191 660.301 354.336 659.566C354.484 658.836 354.555 658.098 354.555 657.348C354.555 656.602 354.484 655.863 354.336 655.129C354.191 654.398 353.977 653.688 353.691 652.996C353.406 652.305 353.055 651.652 352.641 651.031C352.227 650.41 351.754 649.836 351.227 649.305C350.699 648.777 350.121 648.305 349.5 647.891C348.883 647.477 348.227 647.125 347.535 646.84C346.848 646.555 346.133 646.34 345.402 646.195C344.668 646.047 343.93 645.977 343.184 645.977L343.184 646.02ZM137.801 437.43L183.379 410.598L181.316 463.453L137.801 437.43ZM691.77 590.789C663.688 538.562 612.992 444.609 584.816 392.383C584.457 391.746 584.039 391.152 583.566 390.598C583.09 390.043 582.566 389.539 581.996 389.086C581.422 388.633 580.812 388.238 580.164 387.906C579.516 387.57 578.84 387.301 578.141 387.094C577.441 386.891 576.727 386.754 576 386.688C575.273 386.621 574.547 386.625 573.82 386.699C573.094 386.773 572.383 386.914 571.684 387.125C570.984 387.336 570.312 387.613 569.668 387.957C569.023 388.297 568.418 388.695 567.852 389.156C567.281 389.613 566.762 390.121 566.293 390.68C565.824 391.242 565.414 391.84 565.059 392.477C564.707 393.117 564.418 393.781 564.191 394.477C563.969 395.172 563.812 395.879 563.723 396.605C563.637 397.328 563.617 398.055 563.672 398.785C563.723 399.512 563.848 400.227 564.039 400.934C564.227 401.637 564.484 402.316 564.809 402.973C628.246 520.434 674.453 605.773 674.723 606.402C674.723 606.402 675.082 607.477 675.621 608.734L675.711 608.734C675.711 608.824 675.711 608.914 675.801 608.914C676.25 610.797 676.785 612.684 677.145 614.566C677.324 615.375 677.414 616.184 677.504 616.902L677.504 617.348C677.504 619.324 677.594 621.207 677.414 623.184C677.414 623.988 677.234 624.707 677.234 625.605L677.234 625.695C677.145 625.785 677.145 625.785 677.145 625.965C676.605 627.848 676.07 629.734 675.531 631.527C675.441 631.707 675.172 632.336 674.992 632.785C674.812 633.234 674.184 634.398 674.094 634.578C673.227 636.23 672.207 637.785 671.043 639.246C670.863 639.426 670.863 639.516 670.863 639.605L670.684 639.695C669.969 640.41 669.34 641.219 668.531 641.938C667.305 643.086 666.02 644.16 664.672 645.168C664.406 645.348 663.688 645.797 663.328 646.066C662.609 646.512 661.801 646.871 661.086 647.32C660.367 647.77 659.559 648.039 658.84 648.398C658.66 648.488 657.586 648.938 657.137 649.117C655.613 649.562 653.996 650.102 652.473 650.461C651.625 650.559 650.785 650.711 649.957 650.91C649.602 650.91 649.422 651 649.242 651L648.793 651C647.684 651.062 646.578 651.031 645.473 650.91L644.934 650.91C590.199 650.371 549.016 650.551 494.195 649.922L493.656 613.312C493.633 612.895 493.582 612.477 493.504 612.066C493.426 611.652 493.324 611.246 493.195 610.848C493.066 610.449 492.91 610.062 492.73 609.684C492.551 609.305 492.348 608.938 492.121 608.586C491.895 608.234 491.645 607.898 491.371 607.578C491.102 607.258 490.812 606.957 490.504 606.672C490.191 606.391 489.867 606.129 489.523 605.891C489.18 605.648 488.82 605.434 488.449 605.238C488.078 605.043 487.695 604.875 487.301 604.73C486.906 604.586 486.504 604.469 486.098 604.379C485.688 604.285 485.273 604.219 484.855 604.18C484.441 604.141 484.02 604.129 483.602 604.145C483.184 604.16 482.766 604.203 482.355 604.273C481.941 604.344 481.531 604.438 481.133 604.562C480.73 604.684 480.34 604.832 479.957 605.004C479.574 605.176 479.207 605.375 478.852 605.594L409.492 651.898C408.387 652.289 407.387 652.863 406.488 653.621C405.594 654.379 404.859 655.27 404.289 656.293C404.277 656.363 404.246 656.426 404.199 656.473C403.953 656.844 403.742 657.234 403.57 657.641C403.469 657.805 403.41 657.984 403.391 658.18C403.168 658.676 402.996 659.188 402.875 659.719C402.754 660.246 402.684 660.781 402.664 661.324C402.645 661.867 402.68 662.41 402.766 662.945C402.852 663.48 402.988 664.004 403.176 664.516C403.359 665.027 403.594 665.512 403.875 665.977C404.156 666.445 404.477 666.879 404.844 667.281C405.207 667.684 405.605 668.047 406.043 668.375C406.477 668.699 406.938 668.98 407.43 669.215L407.875 669.484C408.273 669.805 408.723 670.016 409.223 670.113L480.195 707.355C480.629 707.602 481.074 707.809 481.543 707.98L481.902 708.25C482.375 708.508 482.871 708.715 483.383 708.879C483.898 709.043 484.422 709.156 484.957 709.223C485.492 709.289 486.027 709.309 486.566 709.273C487.102 709.242 487.633 709.156 488.156 709.027C488.68 708.895 489.184 708.715 489.672 708.488C490.164 708.266 490.629 707.996 491.066 707.684C491.508 707.371 491.914 707.023 492.289 706.637C492.664 706.246 493 705.828 493.297 705.379C493.672 704.961 493.941 704.484 494.105 703.945C494.293 703.695 494.441 703.426 494.551 703.137C495.422 701.07 495.602 698.945 495.09 696.766L494.641 672.625C548.207 673.164 588.137 672.984 641.703 673.523L641.793 673.523C644.289 673.75 646.789 673.801 649.293 673.676C651.797 673.551 654.281 673.254 656.742 672.781C659.207 672.309 661.625 671.668 663.996 670.859C666.371 670.051 668.676 669.078 670.91 667.945C673.148 666.812 675.293 665.531 677.352 664.098C679.41 662.664 681.355 661.098 683.195 659.391C685.031 657.688 686.742 655.859 688.324 653.918C689.906 651.973 691.348 649.926 692.645 647.781C693.941 645.633 695.082 643.41 696.066 641.102C697.051 638.797 697.871 636.434 698.523 634.012C699.18 631.594 699.66 629.141 699.973 626.652C700.285 624.164 700.418 621.664 700.383 619.16C700.344 616.652 700.129 614.16 699.742 611.684C699.355 609.207 698.797 606.766 698.07 604.367C697.344 601.969 696.449 599.633 695.395 597.355C694.34 595.082 693.133 592.895 691.77 590.789ZM430.98 660.289L474.945 630.945L475.844 683.797L430.98 660.289Z" fill="#63ab91" fill-rule="nonzero" opacity="1" stroke="none"/>
</g>
</svg>
