<?xml version="1.0" encoding="UTF-8" standalone="no"?>
<!DOCTYPE svg PUBLIC "-//W3C//DTD SVG 1.1//EN" "http://www.w3.org/Graphics/SVG/1.1/DTD/svg11.dtd">
<!-- Created with Vectornator (http://vectornator.io/) -->
<svg height="100%" stroke-miterlimit="10" style="fill-rule:nonzero;clip-rule:evenodd;stroke-linecap:round;stroke-linejoin:round;" version="1.1" viewBox="0 0 500 500" width="100%" xml:space="preserve" xmlns="http://www.w3.org/2000/svg" xmlns:vectornator="http://vectornator.io" xmlns:xlink="http://www.w3.org/1999/xlink">
<defs/>
<g id="Untitled" vectornator:layerName="Untitled">
<g opacity="0">
<g opacity="1">
<path d="M236.625 444.519C236.828 444.519 237.034 444.526 237.24 444.539C239.948 444.713 242.322 446.074 244.619 447.388C246.584 448.515 248.439 449.579 250.001 449.579C251.561 449.579 253.416 448.515 255.381 447.388C257.678 446.074 260.052 444.713 262.76 444.539C265.509 444.364 268.061 445.414 270.527 446.43C272.6 447.281 274.56 448.094 276.06 447.892C277.598 447.691 279.299 446.397 281.099 445.028C283.207 443.424 285.384 441.767 288.05 441.24C290.743 440.705 293.406 441.413 295.984 442.098C298.152 442.675 300.2 443.218 301.671 442.825C303.166 442.425 304.682 440.921 306.283 439.326C308.162 437.459 310.105 435.529 312.683 434.655C315.281 433.775 318.012 434.125 320.652 434.463C322.882 434.747 324.986 435.018 326.393 434.435C327.82 433.843 329.121 432.156 330.5 430.367C332.119 428.269 333.792 426.096 336.236 424.89C338.691 423.676 341.444 423.664 344.105 423.655C346.352 423.646 348.476 423.639 349.799 422.873C351.134 422.1 352.201 420.258 353.333 418.307C354.665 416.012 356.042 413.636 358.31 412.118C360.584 410.595 363.31 410.228 365.948 409.869C368.176 409.568 370.281 409.281 371.496 408.349C372.716 407.409 373.535 405.447 374.4 403.369C375.425 400.917 376.483 398.381 378.537 396.578C380.592 394.773 383.244 394.054 385.812 393.357C387.982 392.767 390.035 392.212 391.12 391.127C392.205 390.042 392.763 387.989 393.35 385.817C394.049 383.251 394.769 380.599 396.571 378.542C398.374 376.489 400.91 375.432 403.362 374.409C405.44 373.542 407.405 372.723 408.342 371.503C409.277 370.286 409.563 368.18 409.864 365.952C410.221 363.317 410.591 360.593 412.113 358.319C413.634 356.051 416.005 354.672 418.303 353.342C420.253 352.21 422.095 351.141 422.868 349.806C423.634 348.483 423.643 346.359 423.65 344.11C423.662 341.451 423.671 338.7 424.886 336.243C426.094 333.799 428.266 332.124 430.365 330.504C432.153 329.128 433.84 327.825 434.433 326.399C435.018 324.988 434.747 322.885 434.46 320.657C434.123 318.014 433.773 315.284 434.652 312.688C435.529 310.112 437.459 308.166 439.326 306.288C440.918 304.684 442.425 303.171 442.825 301.674C443.216 300.205 442.672 298.157 442.098 295.989C441.413 293.411 440.708 290.748 441.24 288.052C441.767 285.389 443.424 283.209 445.028 281.104C446.397 279.304 447.691 277.603 447.892 276.06C448.089 274.556 447.281 272.6 446.43 270.53C445.412 268.061 444.361 265.509 444.539 262.76C444.715 260.052 446.076 257.676 447.39 255.381C448.515 253.416 449.579 251.558 449.579 249.999C449.579 248.439 448.515 246.584 447.39 244.617C446.076 242.322 444.715 239.948 444.539 237.24C444.361 234.491 445.414 231.939 446.43 229.473C447.281 227.4 448.089 225.444 447.892 223.94C447.691 222.399 446.397 220.701 445.028 218.901C443.424 216.793 441.767 214.616 441.24 211.95C440.708 209.254 441.413 206.591 442.098 204.016C442.675 201.848 443.218 199.8 442.825 198.331C442.425 196.834 440.921 195.321 439.329 193.717C437.461 191.838 435.529 189.895 434.655 187.317C433.776 184.721 434.125 181.99 434.463 179.348C434.75 177.122 435.02 175.017 434.435 173.607C433.843 172.18 432.156 170.879 430.37 169.5C428.269 167.881 426.098 166.208 424.89 163.764C423.676 161.309 423.666 158.558 423.655 155.895C423.648 153.648 423.639 151.524 422.873 150.201C422.1 148.866 420.258 147.797 418.31 146.665C416.012 145.335 413.636 143.958 412.12 141.69C410.598 139.416 410.228 136.69 409.871 134.055C409.568 131.824 409.284 129.719 408.349 128.504C407.412 127.284 405.447 126.465 403.369 125.598C400.917 124.577 398.381 123.52 396.578 121.465C394.776 119.408 394.056 116.756 393.36 114.193C392.77 112.02 392.212 109.968 391.127 108.88C390.042 107.795 387.989 107.237 385.817 106.65C383.253 105.951 380.599 105.231 378.542 103.426C376.489 101.626 375.432 99.0903 374.409 96.6376C373.542 94.5575 372.723 92.5953 371.503 91.6582C370.288 90.7234 368.183 90.4365 365.952 90.1357C363.317 89.7794 360.593 89.4092 358.319 87.8866C356.051 86.3665 354.675 83.9925 353.342 81.6972C352.21 79.7466 351.141 77.9048 349.809 77.1319C348.483 76.3661 346.361 76.3568 344.112 76.3499C341.451 76.3383 338.7 76.329 336.245 75.1143C333.801 73.9065 332.126 71.7338 330.507 69.6328C329.13 67.8465 327.827 66.1574 326.399 65.5674C324.988 64.9843 322.885 65.2504 320.657 65.5373C318.019 65.8774 315.286 66.2268 312.69 65.3453C310.112 64.4706 308.169 62.5409 306.288 60.6713C304.686 59.0794 303.171 57.5777 301.676 57.1774C300.205 56.784 298.157 57.3278 295.989 57.9039C293.413 58.5865 290.75 59.2922 288.055 58.76C285.389 58.2325 283.212 56.5758 281.104 54.9723C279.304 53.6025 277.603 52.3091 276.062 52.1078C274.563 51.9157 272.603 52.7186 270.53 53.5701C268.061 54.5882 265.497 55.6294 262.76 55.4582C260.052 55.2847 257.678 53.9241 255.381 52.6099C253.416 51.4853 251.561 50.421 250.001 50.421C248.439 50.421 246.584 51.4853 244.621 52.6099C242.324 53.9241 239.95 55.2847 237.24 55.4582C234.485 55.6317 231.942 54.5859 229.473 53.5701C227.402 52.7186 225.451 51.925 223.943 52.1078C222.402 52.3091 220.701 53.6025 218.901 54.9723C216.795 56.5735 214.616 58.2325 211.952 58.76C209.257 59.2969 206.594 58.5865 204.018 57.9016C201.85 57.3278 199.8 56.7864 198.331 57.1751C196.834 57.5754 195.321 59.0794 193.717 60.6713C191.838 62.5385 189.895 64.4706 187.319 65.3429C184.723 66.2245 181.993 65.8751 179.35 65.535C177.124 65.2458 175.019 64.9797 173.61 65.5651C172.182 66.1574 170.879 67.8442 169.503 69.6305C167.883 71.7314 166.208 73.9018 163.764 75.1097C161.309 76.3244 158.558 76.3337 155.897 76.3452C153.648 76.3522 151.526 76.3614 150.201 77.1273C148.868 77.9001 147.799 79.742 146.667 81.6902C145.335 83.9878 143.958 86.3618 141.69 87.8797C139.416 89.4022 136.692 89.7724 134.055 90.1288C131.826 90.4319 129.721 90.7165 128.504 91.6513C127.287 92.5884 126.468 94.5505 125.6 96.6307C124.577 99.0833 123.52 101.619 121.465 103.419C119.41 105.224 116.756 105.944 114.193 106.64C112.02 107.23 109.968 107.788 108.882 108.873C107.795 109.958 107.24 112.011 106.65 114.183C105.953 116.749 105.234 119.401 103.431 121.456C101.626 123.511 99.0926 124.568 96.6376 125.591C94.5598 126.458 92.5953 127.277 91.6582 128.495C90.7234 129.712 90.4388 131.817 90.1357 134.045C89.7794 136.681 89.4092 139.407 87.8867 141.681C86.3688 143.949 83.9948 145.325 81.6971 146.658C79.7466 147.79 77.9048 148.859 77.1343 150.191C76.3684 151.517 76.3591 153.639 76.3499 155.888C76.3406 158.549 76.329 161.3 75.1143 163.755C73.9088 166.199 71.7361 167.874 69.6351 169.493C67.8488 170.87 66.1597 172.173 65.5674 173.601C64.9843 175.01 65.255 177.115 65.5396 179.343C65.8797 181.984 66.2291 184.714 65.3476 187.312C64.4729 189.888 62.5409 191.831 60.6736 193.71C59.0817 195.314 57.5777 196.829 57.1774 198.324C56.784 199.793 57.3278 201.843 57.9039 204.011C58.5888 206.587 59.2946 209.25 58.7601 211.945C58.2348 214.611 56.5781 216.788 54.9746 218.896C53.6048 220.696 52.3091 222.397 52.1101 223.938C51.9134 225.442 52.7186 227.4 53.5724 229.47C54.5882 231.937 55.6387 234.489 55.4605 237.238C55.287 239.945 53.9265 242.322 52.6122 244.617C51.4854 246.584 50.4233 248.439 50.4233 249.999C50.4233 251.558 51.4854 253.416 52.6122 255.379C53.9265 257.676 55.287 260.05 55.4605 262.76C55.6387 265.506 54.5882 268.058 53.5724 270.525C52.7186 272.598 51.9134 274.553 52.1078 276.057C52.3091 277.598 53.6025 279.299 54.9723 281.099C56.5758 283.205 58.2325 285.384 58.7601 288.048C59.2922 290.743 58.5865 293.406 57.9016 295.982C57.3255 298.152 56.7817 300.198 57.1751 301.669C57.5754 303.166 59.0817 304.679 60.6736 306.283C62.5409 308.162 64.4706 310.105 65.3452 312.681C66.2268 315.279 65.8774 318.01 65.5373 320.65C65.2504 322.878 64.9797 324.981 65.5651 326.39C66.1574 327.818 67.8442 329.118 69.6328 330.497C71.7314 332.117 73.9041 333.792 75.112 336.236C76.3244 338.691 76.336 341.442 76.3452 344.103C76.3545 346.352 76.3614 348.474 77.1273 349.797C77.9001 351.132 79.7419 352.201 81.6925 353.333C83.9878 354.665 86.3642 356.042 87.882 358.31C89.4045 360.584 89.7748 363.308 90.1311 365.945C90.4319 368.174 90.7188 370.279 91.6513 371.494C92.5884 372.713 94.5528 373.532 96.633 374.4C99.0856 375.423 101.619 376.48 103.422 378.533C105.224 380.59 105.946 383.244 106.643 385.807C107.233 387.98 107.788 390.032 108.876 391.118C109.961 392.205 112.013 392.76 114.183 393.35C116.749 394.047 119.401 394.769 121.458 396.569C123.511 398.374 124.568 400.907 125.591 403.36C126.458 405.44 127.277 407.402 128.497 408.342C129.712 409.277 131.82 409.561 134.048 409.862C136.683 410.221 139.407 410.591 141.681 412.113C143.949 413.631 145.328 416.005 146.66 418.303C147.79 420.253 148.859 422.095 150.194 422.866C151.517 423.634 153.641 423.641 155.89 423.65C158.549 423.659 161.3 423.671 163.757 424.886C166.199 426.091 167.876 428.264 169.493 430.365C170.872 432.151 172.175 433.84 173.601 434.433C175.01 435.016 177.113 434.745 179.343 434.46C181.986 434.123 184.716 433.773 187.312 434.652C189.888 435.527 191.834 437.459 193.712 439.326C195.314 440.918 196.829 442.422 198.326 442.823C199.798 443.214 201.843 442.672 204.014 442.096C206.589 441.411 209.248 440.705 211.945 441.24C214.611 441.765 216.791 443.422 218.896 445.025C220.696 446.395 222.397 447.691 223.94 447.89C225.451 448.096 227.402 447.281 229.473 446.428C231.754 445.488 234.11 444.519 236.625 444.519M250.001 454.926C247.016 454.926 244.332 453.388 241.961 452.032C240.112 450.972 238.365 449.97 236.896 449.875C235.375 449.806 233.501 450.553 231.509 451.375C228.88 452.457 226.166 453.573 223.246 453.196C220.291 452.809 217.83 450.935 215.657 449.283C213.961 447.992 212.357 446.772 210.909 446.485C209.428 446.196 207.464 446.714 205.386 447.265C202.764 447.964 199.791 448.755 196.945 447.989C194.071 447.221 191.878 445.044 189.941 443.121C188.428 441.617 186.995 440.194 185.593 439.717C184.17 439.234 182.157 439.495 180.024 439.766C177.328 440.113 174.276 440.502 171.553 439.373C168.809 438.237 166.92 435.791 165.259 433.63C163.952 431.938 162.721 430.339 161.386 429.68C160.041 429.016 158.014 429.007 155.87 429C153.151 428.988 150.071 428.977 147.514 427.496C144.946 426.01 143.398 423.342 142.033 420.987C140.959 419.136 139.943 417.387 138.706 416.558C137.461 415.725 135.452 415.452 133.328 415.163C130.635 414.8 127.583 414.386 125.237 412.583C122.888 410.778 121.701 407.93 120.653 405.419C119.829 403.443 119.052 401.576 117.93 400.59C116.805 399.605 114.852 399.075 112.784 398.515C110.16 397.802 107.184 396.995 105.092 394.901C103.001 392.809 102.191 389.833 101.48 387.209C100.918 385.141 100.388 383.188 99.4003 382.064C98.4169 380.941 96.5497 380.164 94.5737 379.338C92.0608 378.29 89.2148 377.103 87.41 374.754C85.6075 372.408 85.1957 369.356 84.8301 366.663C84.5409 364.538 84.2701 362.53 83.4372 361.285C82.6088 360.047 80.8595 359.034 79.0085 357.958C76.653 356.593 73.9828 355.045 72.4973 352.479C71.0188 349.92 71.0072 346.84 70.9956 344.123C70.9887 341.979 70.9795 339.952 70.3154 338.605C69.6559 337.272 68.0571 336.039 66.3657 334.734C64.2068 333.068 61.7611 331.185 60.625 328.44C59.4935 325.715 59.8846 322.66 60.2317 319.967C60.5047 317.836 60.7639 315.825 60.2803 314.4C59.8036 312.998 58.3829 311.568 56.8766 310.052C54.9561 308.118 52.7765 305.924 52.0083 303.051C51.247 300.205 52.036 297.231 52.7325 294.61C53.2832 292.53 53.8061 290.567 53.5123 289.087C53.2254 287.636 52.006 286.035 50.7148 284.339C49.0628 282.166 47.1885 279.704 46.8045 276.749C46.425 273.834 47.5426 271.117 48.6254 268.489C49.4445 266.497 50.2197 264.615 50.1225 263.102C50.0276 261.633 49.0281 259.888 47.9683 258.039C46.6124 255.668 45.0737 252.984 45.0737 249.999C45.0737 247.016 46.6124 244.33 47.9683 241.961C49.0281 240.112 50.0276 238.365 50.1225 236.896C50.2197 235.382 49.4445 233.499 48.6254 231.507C47.5426 228.878 46.425 226.162 46.8045 223.246C47.1885 220.291 49.0628 217.83 50.7172 215.657C52.006 213.958 53.2277 212.357 53.5146 210.909C53.8061 209.426 53.2855 207.461 52.7325 205.383C52.0384 202.762 51.2493 199.789 52.0083 196.943C52.7765 194.069 54.9561 191.875 56.8789 189.941C58.3829 188.425 59.8059 186.995 60.2826 185.593C60.7662 184.168 60.507 182.155 60.234 180.021C59.8892 177.33 59.4959 174.278 60.6273 171.55C61.7657 168.806 64.2115 166.92 66.368 165.257C68.0617 163.952 69.6606 162.719 70.32 161.386C70.9841 160.039 70.9933 158.012 71.0003 155.867C71.0118 153.151 71.0234 150.071 72.5043 147.512C73.9897 144.946 76.6576 143.398 79.0131 142.033C80.8642 140.957 82.6111 139.943 83.4418 138.705C84.2748 137.461 84.5478 135.452 84.8347 133.328C85.2003 130.635 85.6145 127.581 87.417 125.237C89.2217 122.888 92.0678 121.701 94.5783 120.653C96.5566 119.829 98.4239 119.049 99.4096 117.927C100.395 116.805 100.925 114.85 101.485 112.781C102.198 110.157 103.005 107.184 105.099 105.09C107.193 102.996 110.167 102.191 112.791 101.478C114.859 100.916 116.814 100.386 117.939 99.4003C119.059 98.4146 119.838 96.5474 120.662 94.5713C121.71 92.0608 122.897 89.2148 125.246 87.41C127.59 85.6075 130.644 85.1933 133.337 84.8278C135.462 84.5408 137.47 84.2678 138.715 83.4348C139.953 82.6065 140.966 80.8595 142.042 79.0085C143.407 76.653 144.955 73.9828 147.524 72.4973C150.08 71.0188 153.16 71.0049 155.877 70.9957C158.021 70.9864 160.048 70.9794 161.395 70.313C162.728 69.6559 163.961 68.0547 165.266 66.3633C166.93 64.2068 168.815 61.7611 171.56 60.6227C174.288 59.4935 177.34 59.8846 180.033 60.2294C182.164 60.5047 184.177 60.7592 185.6 60.2779C187.002 59.8013 188.432 58.3806 189.948 56.8766C191.882 54.9538 194.076 52.7742 196.949 52.006C199.793 51.247 202.769 52.0337 205.39 52.7302C207.47 53.2855 209.437 53.8038 210.913 53.5123C212.362 53.2254 213.965 52.006 215.661 50.7148C217.832 49.0628 220.294 47.1886 223.251 46.8045C226.166 46.425 228.883 47.5426 231.511 48.6231C233.503 49.4445 235.382 50.2382 236.896 50.1225C238.367 50.0276 240.112 49.0257 241.961 47.9683C244.332 46.6101 247.016 45.0737 250.001 45.0737C252.984 45.0737 255.67 46.6101 258.039 47.9683C259.888 49.0257 261.635 50.0276 263.104 50.1225C264.639 50.2312 266.501 49.4445 268.493 48.6231C271.122 47.5426 273.836 46.4342 276.754 46.8021C279.709 47.1886 282.17 49.0628 284.343 50.7148C286.039 52.006 287.643 53.2254 289.091 53.5123C290.57 53.7992 292.539 53.2832 294.617 52.7325C297.238 52.0361 300.209 51.2447 303.055 52.0083C305.931 52.7765 308.122 54.9561 310.059 56.8766C311.575 58.3829 313.005 59.8036 314.409 60.2802C315.832 60.7615 317.845 60.5047 319.976 60.2317C322.672 59.8892 325.724 59.4959 328.45 60.625C331.194 61.7634 333.08 64.2091 334.743 66.368C336.048 68.0594 337.281 69.6605 338.614 70.3177C339.961 70.9817 341.988 70.991 344.133 71.0003C346.849 71.0095 349.929 71.0234 352.488 72.5019C355.054 73.9874 356.602 76.6576 357.967 79.0131C359.043 80.8618 360.057 82.6111 361.294 83.4418C362.537 84.2748 364.545 84.5455 366.672 84.8347C369.365 85.198 372.419 85.6145 374.763 87.417C377.112 89.2218 378.299 92.0678 379.347 94.5783C380.171 96.5543 380.951 98.4216 382.073 99.4073C383.197 100.393 385.15 100.923 387.219 101.487C389.843 102.198 392.816 103.005 394.91 105.099C397.004 107.191 397.809 110.167 398.522 112.79C399.082 114.859 399.614 116.812 400.6 117.936C401.583 119.059 403.453 119.836 405.429 120.662C407.939 121.708 410.785 122.895 412.59 125.244C414.392 127.59 414.807 130.642 415.172 133.335C415.459 135.461 415.732 137.468 416.565 138.712C417.394 139.953 419.14 140.966 420.992 142.04C423.347 143.405 426.017 144.953 427.503 147.521C428.981 150.078 428.995 153.158 429.004 155.874C429.014 158.021 429.021 160.048 429.687 161.395C430.344 162.728 431.943 163.961 433.637 165.266C435.793 166.927 438.239 168.815 439.377 171.557C440.509 174.283 440.115 177.337 439.771 180.031C439.498 182.162 439.238 184.172 439.722 185.598C440.196 187.002 441.619 188.432 443.123 189.948C445.046 191.882 447.226 194.076 447.994 196.949C448.753 199.795 447.964 202.769 447.27 205.388C446.717 207.468 446.196 209.433 446.488 210.913C446.775 212.362 447.994 213.963 449.285 215.661C450.937 217.832 452.811 220.294 453.196 223.249C453.577 226.164 452.457 228.88 451.377 231.509C450.555 233.501 449.78 235.382 449.878 236.896C449.972 238.365 450.972 240.112 452.032 241.961C453.39 244.33 454.926 247.016 454.926 249.999C454.926 252.984 453.39 255.668 452.032 258.039C450.974 259.888 449.972 261.633 449.878 263.104C449.78 264.618 450.555 266.499 451.377 268.493C452.457 271.122 453.577 273.836 453.198 276.751C452.811 279.706 450.937 282.168 449.285 284.341C447.994 286.039 446.775 287.643 446.488 289.091C446.194 290.572 446.714 292.536 447.268 294.614C447.964 297.238 448.753 300.209 447.992 303.055C447.224 305.929 445.044 308.122 443.123 310.057C441.617 311.572 440.196 313.002 439.72 314.407C439.236 315.832 439.493 317.843 439.766 319.974C440.113 322.67 440.504 325.722 439.375 328.447C438.237 331.191 435.791 333.077 433.632 334.741C431.941 336.046 430.339 337.279 429.682 338.612C429.016 339.959 429.009 341.986 429 344.133C428.99 346.849 428.977 349.929 427.498 352.486C426.013 355.052 423.342 356.602 420.987 357.97C419.136 359.043 417.389 360.057 416.558 361.294C415.725 362.537 415.455 364.545 415.165 366.67C414.8 369.365 414.386 372.417 412.583 374.763C410.781 377.112 407.932 378.299 405.422 379.345C403.443 380.171 401.578 380.948 400.593 382.07C399.607 383.195 399.075 385.148 398.515 387.216C397.802 389.843 396.995 392.816 394.903 394.91C392.809 397.002 389.836 397.809 387.212 398.52C385.143 399.082 383.188 399.612 382.064 400.6C380.941 401.583 380.164 403.45 379.338 405.426C378.292 407.939 377.105 410.785 374.754 412.59C372.41 414.39 369.358 414.804 366.665 415.17C364.539 415.457 362.532 415.73 361.285 416.563C360.047 417.394 359.034 419.14 357.96 420.994C356.595 423.347 355.047 426.015 352.479 427.503C349.922 428.981 346.842 428.993 344.123 429.004C341.979 429.011 339.952 429.021 338.605 429.685C337.272 430.344 336.039 431.941 334.734 433.634C333.073 435.793 331.185 438.239 328.443 439.377C325.715 440.506 322.663 440.115 319.969 439.768C317.838 439.495 315.825 439.236 314.402 439.72C312.998 440.196 311.568 441.617 310.052 443.121C308.118 445.046 305.927 447.224 303.051 447.992C300.207 448.753 297.231 447.964 294.612 447.267C292.532 446.717 290.565 446.194 289.089 446.488C287.638 446.775 286.035 447.994 284.339 449.285C282.168 450.937 279.706 452.811 276.751 453.196C273.838 453.577 271.12 452.457 268.491 451.375C266.499 450.553 264.62 449.787 263.102 449.877C261.635 449.97 259.888 450.972 258.039 452.032C255.67 453.388 252.984 454.926 250.001 454.926" fill="#01a77f" fill-rule="nonzero" opacity="1" stroke="none"/>
<path d="M375.348 248.606C373.872 248.606 372.673 247.407 372.673 245.931L372.673 235.401C372.673 233.925 373.872 232.728 375.348 232.728C376.824 232.728 378.023 233.925 378.023 235.401L378.023 245.931C378.023 247.407 376.824 248.606 375.348 248.606" fill="#01a77f" fill-rule="nonzero" opacity="1" stroke="none"/>
<path d="M380.614 243.341L370.084 243.341C368.607 243.341 367.409 242.142 367.409 240.666C367.409 239.19 368.607 237.991 370.084 237.991L380.614 237.991C382.09 237.991 383.289 239.19 383.289 240.666C383.289 242.142 382.09 243.341 380.614 243.341" fill="#01a77f" fill-rule="nonzero" opacity="1" stroke="none"/>
<path d="M136.032 233.509C134.555 233.509 133.357 232.311 133.357 230.835L133.357 220.304C133.357 218.828 134.555 217.632 136.032 217.632C137.508 217.632 138.706 218.828 138.706 220.304L138.706 230.835C138.706 232.311 137.508 233.509 136.032 233.509" fill="#01a77f" fill-rule="nonzero" opacity="1" stroke="none"/>
<path d="M141.297 228.245L130.766 228.245C129.29 228.245 128.091 227.046 128.091 225.57C128.091 224.094 129.29 222.895 130.766 222.895L141.297 222.895C142.773 222.895 143.971 224.094 143.971 225.57C143.971 227.046 142.773 228.245 141.297 228.245" fill="#01a77f" fill-rule="nonzero" opacity="1" stroke="none"/>
<path d="M244.674 138.988C243.197 138.988 241.999 137.789 241.999 136.313L241.999 125.783C241.999 124.306 243.197 123.11 244.674 123.11C246.15 123.11 247.348 124.306 247.348 125.783L247.348 136.313C247.348 137.789 246.15 138.988 244.674 138.988" fill="#01a77f" fill-rule="nonzero" opacity="1" stroke="none"/>
<path d="M249.938 133.723L239.408 133.723C237.932 133.723 236.733 132.524 236.733 131.048C236.733 129.572 237.932 128.373 239.408 128.373L249.938 128.373C251.415 128.373 252.613 129.572 252.613 131.048C252.613 132.524 251.415 133.723 249.938 133.723" fill="#01a77f" fill-rule="nonzero" opacity="1" stroke="none"/>
<path d="M362.302 345.152C360.826 345.152 359.627 343.954 359.627 342.477L359.627 331.947C359.627 330.471 360.826 329.272 362.302 329.272C363.778 329.272 364.977 330.471 364.977 331.947L364.977 342.477C364.977 343.954 363.778 345.152 362.302 345.152" fill="#01a77f" fill-rule="nonzero" opacity="1" stroke="none"/>
<path d="M367.567 339.887L357.037 339.887C355.56 339.887 354.362 338.689 354.362 337.212C354.362 335.736 355.56 334.538 357.037 334.538L367.567 334.538C369.043 334.538 370.242 335.736 370.242 337.212C370.242 338.689 369.043 339.887 367.567 339.887" fill="#01a77f" fill-rule="nonzero" opacity="1" stroke="none"/>
<path d="M119.725 329.495C118.249 329.495 117.051 328.297 117.051 326.821L117.051 316.29C117.051 314.814 118.249 313.618 119.725 313.618C121.202 313.618 122.4 314.814 122.4 316.29L122.4 326.821C122.4 328.297 121.202 329.495 119.725 329.495" fill="#01a77f" fill-rule="nonzero" opacity="1" stroke="none"/>
<path d="M124.99 324.23L114.46 324.23C112.983 324.23 111.785 323.032 111.785 321.556C111.785 320.079 112.983 318.881 114.46 318.881L124.99 318.881C126.466 318.881 127.665 320.079 127.665 321.556C127.665 323.032 126.466 324.23 124.99 324.23" fill="#01a77f" fill-rule="nonzero" opacity="1" stroke="none"/>
<path d="M189.957 159.618C190.098 172.504 191.144 190.869 200.189 199.918C204.157 203.442 209.41 205.33 214.863 205.09C220.741 205.307 226.231 203.421 230.556 199.765C236.706 193.599 237.882 177.199 230.392 169.709C221.342 160.664 202.982 159.618 189.957 159.618M213.788 210.458C207.522 210.458 201.362 208.118 196.519 203.805C185.957 193.245 184.751 173.455 184.751 159.477C184.751 156.605 187.086 154.268 189.957 154.268C203.933 154.268 223.721 155.476 234.175 165.928C243.897 175.651 242.419 195.448 234.175 203.699C228.663 208.373 221.86 210.691 214.87 210.435C214.509 210.451 214.148 210.458 213.788 210.458" fill="#01a77f" fill-rule="nonzero" opacity="1" stroke="none"/>
<path d="M271.357 215.107C277.031 215.348 282.281 213.462 286.36 209.829C295.257 200.926 296.328 182.66 296.338 169.64C283.32 169.65 265.057 170.719 256.04 179.731C248.55 187.221 249.725 203.617 256.04 209.936C260.2 213.439 265.7 215.348 271.357 215.107M272.461 220.475C272.091 220.475 271.723 220.468 271.353 220.452C264.557 220.751 257.768 218.391 252.421 213.869C244.015 205.468 242.534 185.671 252.257 175.95C262.711 165.501 282.501 164.293 296.479 164.293C299.346 164.293 301.68 166.623 301.685 169.49C301.685 183.475 300.477 203.27 290.03 213.717C285.081 218.131 278.912 220.475 272.461 220.475" fill="#01a77f" fill-rule="nonzero" opacity="1" stroke="none"/>
<path d="M243.557 266.067C242.102 266.067 240.91 264.901 240.883 263.443C239.793 205.648 203.833 174.719 203.47 174.414C202.341 173.463 202.195 171.776 203.144 170.647C204.097 169.513 205.782 169.369 206.908 170.316C208.253 171.443 235.637 194.91 243.911 239.985C247.595 223.55 255.751 201.916 273.818 186.862C274.952 185.918 276.636 186.068 277.585 187.204C278.531 188.338 278.376 190.025 277.242 190.971C246.996 216.176 246.237 262.946 246.232 263.415C246.218 264.878 245.034 266.06 243.571 266.067L243.557 266.067Z" fill="#01a77f" fill-rule="nonzero" opacity="1" stroke="none"/>
<path d="M229.911 286.636L199.912 286.636C198.435 286.636 197.237 285.438 197.237 283.962C197.237 282.485 198.435 281.287 199.912 281.287L228.08 281.287L239.64 251.565L172.016 251.565L160.456 281.287L190.742 281.287C192.218 281.287 193.417 282.485 193.417 283.962C193.417 285.438 192.218 286.636 190.742 286.636L156.546 286.636C155.664 286.636 154.838 286.201 154.338 285.472C153.841 284.744 153.734 283.816 154.054 282.992L167.694 247.924C168.094 246.894 169.084 246.218 170.186 246.218L243.551 246.218C244.435 246.218 245.261 246.653 245.758 247.382C246.256 248.111 246.364 249.039 246.043 249.86L232.403 284.931C232.002 285.961 231.014 286.636 229.911 286.636" fill="#01a77f" fill-rule="nonzero" opacity="1" stroke="none"/>
<path d="M259.02 281.288L326.644 281.288L315.084 251.566L247.46 251.566L259.02 281.288ZM330.554 286.637L257.19 286.637C256.088 286.637 255.098 285.959 254.698 284.932L241.057 249.861C240.738 249.037 240.845 248.11 241.342 247.381C241.842 246.652 242.668 246.217 243.549 246.217L316.914 246.217C318.016 246.217 319.006 246.895 319.406 247.922L333.046 282.993C333.366 283.814 333.259 284.745 332.762 285.473C332.262 286.202 331.436 286.637 330.554 286.637" fill="#01a77f" fill-rule="nonzero" opacity="1" stroke="none"/>
<path d="M243.695 347.901L174.863 347.901C173.387 347.901 172.188 346.702 172.188 345.226L172.188 284.655C172.188 283.178 173.387 281.98 174.863 281.98C176.339 281.98 177.538 283.178 177.538 284.655L177.538 342.551L241.02 342.551L241.02 249.262C241.02 247.786 242.219 246.587 243.695 246.587C245.172 246.587 246.37 247.786 246.37 249.262L246.37 345.226C246.37 346.702 245.172 347.901 243.695 347.901" fill="#01a77f" fill-rule="nonzero" opacity="1" stroke="none"/>
<path d="M284.611 347.901L243.813 347.901C242.337 347.901 241.139 346.702 241.139 345.226L241.139 249.262C241.139 247.786 242.337 246.587 243.813 246.587C245.29 246.587 246.488 247.786 246.488 249.262L246.488 342.551L284.611 342.551C286.087 342.551 287.286 343.75 287.286 345.226C287.286 346.702 286.087 347.901 284.611 347.901" fill="#01a77f" fill-rule="nonzero" opacity="1" stroke="none"/>
<path d="M312.646 347.901L295.174 347.901C293.698 347.901 292.499 346.702 292.499 345.226C292.499 343.75 293.698 342.551 295.174 342.551L309.971 342.551L309.971 283.877C309.971 282.401 311.17 281.202 312.646 281.202C314.122 281.202 315.321 282.401 315.321 283.877L315.321 345.226C315.321 346.702 314.122 347.901 312.646 347.901" fill="#01a77f" fill-rule="nonzero" opacity="1" stroke="none"/>
</g>
</g>
<g opacity="1">
<path d="M97.2598 379.859C96.4939 379.859 95.7326 379.53 95.2051 378.896C65.1321 342.819 48.572 297.044 48.572 249.999C48.572 138.933 138.932 48.5703 249.999 48.5703C300.734 48.5703 349.207 67.4951 386.485 101.86C387.57 102.86 387.64 104.554 386.638 105.636C385.638 106.722 383.949 106.793 382.859 105.791C346.571 72.3426 299.387 53.9222 249.999 53.9222C141.88 53.9222 53.9193 141.88 53.9193 249.999C53.9193 295.795 70.0398 340.355 99.3122 375.472C100.259 376.606 100.106 378.292 98.972 379.236C98.4699 379.655 97.8637 379.859 97.2598 379.859" fill="#01a77f" fill-rule="nonzero" opacity="1" stroke="none"/>
<path d="M249.999 451.43C200.976 451.43 153.732 433.611 116.97 401.254C115.861 400.28 115.752 398.589 116.729 397.48C117.705 396.37 119.394 396.266 120.505 397.237C156.289 428.733 202.276 446.078 249.999 446.078C358.118 446.078 446.081 358.12 446.081 249.998C446.081 204.953 430.425 160.957 401.997 126.12C401.065 124.977 401.234 123.293 402.379 122.358C403.525 121.428 405.209 121.594 406.142 122.74C435.347 158.528 451.428 203.722 451.428 249.998C451.428 361.067 361.068 451.43 249.999 451.43" fill="#01a77f" fill-rule="nonzero" opacity="1" stroke="none"/>
<path d="M98.603 384.231C98.2143 384.231 97.8255 384.146 97.4646 383.977L74.6362 373.234C73.2988 372.606 72.725 371.012 73.3544 369.675C73.9814 368.34 75.5733 367.764 76.9131 368.393L96.3632 377.544L98.7649 356.185C98.9339 354.716 100.269 353.665 101.724 353.825C103.191 353.992 104.246 355.315 104.082 356.782L101.262 381.855C101.164 382.713 100.66 383.47 99.908 383.891C99.5031 384.115 99.0542 384.231 98.603 384.231" fill="#01a77f" fill-rule="nonzero" opacity="1" stroke="none"/>
<path d="M398.939 145.949C398.855 145.949 398.77 145.944 398.687 145.937C397.215 145.798 396.134 144.493 396.273 143.022L398.631 117.903C398.71 117.044 399.2 116.278 399.945 115.841C400.69 115.408 401.597 115.36 402.386 115.714L425.411 126.033C426.758 126.635 427.362 128.22 426.758 129.567C426.154 130.913 424.572 131.52 423.225 130.913L403.608 122.121L401.597 143.524C401.468 144.91 400.302 145.949 398.939 145.949" fill="#01a77f" fill-rule="nonzero" opacity="1" stroke="none"/>
<path d="M249.94 245.048C245.005 250.199 240.946 255.178 237.86 259.875C233.156 267.011 230.74 273.666 230.867 279.124C231.073 287.558 237.374 293.505 250.128 297.29C260.112 294.28 266.255 289.796 268.391 283.955C270.688 277.676 268.574 269.573 262.104 259.873C258.046 253.737 253.256 248.429 249.94 245.048M250.132 302.751C249.887 302.751 249.639 302.718 249.401 302.649C233.824 298.216 225.788 290.342 225.518 279.251C225.363 272.604 228.012 265.095 233.392 256.937C237.052 251.363 241.974 245.449 248.015 239.361C249.047 238.32 250.725 238.308 251.777 239.326C255.07 242.524 261.368 249.063 266.561 256.914C274.023 268.101 276.332 277.821 273.417 285.793C270.608 293.468 263.025 299.137 250.875 302.647C250.632 302.716 250.382 302.751 250.132 302.751" fill="#01a77f" fill-rule="nonzero" opacity="1" stroke="none"/>
<path d="M250.237 326.1C248.763 326.1 247.567 324.909 247.563 323.435L247.266 243.452C247.259 241.979 248.453 240.775 249.93 240.768L249.941 240.768C251.413 240.768 252.609 241.96 252.614 243.434L252.912 323.416C252.917 324.893 251.725 326.093 250.247 326.1L250.237 326.1Z" fill="#01a77f" fill-rule="nonzero" opacity="1" stroke="none"/>
<path d="M250.536 291.818C249.95 291.818 249.36 291.626 248.867 291.23C247.713 290.309 247.528 288.625 248.451 287.47L256.88 276.937C257.801 275.787 259.488 275.595 260.64 276.523C261.792 277.444 261.98 279.129 261.057 280.283L252.625 290.813C252.097 291.475 251.32 291.818 250.536 291.818" fill="#01a77f" fill-rule="nonzero" opacity="1" stroke="none"/>
<path d="M250.477 275.96C249.891 275.96 249.301 275.768 248.809 275.372C247.654 274.451 247.469 272.767 248.392 271.612L256.821 261.079C257.742 259.929 259.429 259.737 260.581 260.665C261.734 261.586 261.921 263.271 260.998 264.425L252.566 274.956C252.039 275.617 251.261 275.96 250.477 275.96" fill="#01a77f" fill-rule="nonzero" opacity="1" stroke="none"/>
<path d="M249.524 291.822C248.747 291.822 247.977 291.484 247.449 290.832L238.939 280.362C238.006 279.217 238.182 277.532 239.327 276.6C240.473 275.669 242.157 275.843 243.09 276.991L251.598 287.461C252.53 288.606 252.357 290.291 251.211 291.223C250.714 291.626 250.117 291.822 249.524 291.822" fill="#01a77f" fill-rule="nonzero" opacity="1" stroke="none"/>
<path d="M249.466 275.964C248.688 275.964 247.918 275.626 247.39 274.974L238.88 264.504C237.947 263.358 238.123 261.674 239.269 260.741C240.414 259.811 242.098 259.985 243.031 261.132L251.539 271.603C252.471 272.748 252.298 274.432 251.153 275.365C250.655 275.767 250.058 275.964 249.466 275.964" fill="#01a77f" fill-rule="nonzero" opacity="1" stroke="none"/>
<path d="M190.211 171.591C181.395 171.591 174.225 182.662 174.225 196.272C174.225 209.882 181.395 220.952 190.211 220.952C199.027 220.952 206.197 209.882 206.197 196.272C206.197 182.662 199.027 171.591 190.211 171.591M190.211 226.304C178.447 226.304 168.875 212.83 168.875 196.272C168.875 179.712 178.447 166.239 190.211 166.239C201.974 166.239 211.547 179.712 211.547 196.272C211.547 212.83 201.974 226.304 190.211 226.304" fill="#01a77f" fill-rule="nonzero" opacity="1" stroke="none"/>
<path d="M272.566 171.674L189.353 171.674C187.875 171.674 186.678 170.476 186.678 168.999C186.678 167.521 187.875 166.322 189.353 166.322L272.566 166.322C274.042 166.322 275.241 167.521 275.241 168.999C275.241 170.476 274.042 171.674 272.566 171.674" fill="#01a77f" fill-rule="nonzero" opacity="1" stroke="none"/>
<path d="M325.55 226.303C325.169 226.303 324.794 226.268 324.419 226.233L324.28 226.219L189.353 226.219C187.877 226.219 186.678 225.021 186.678 223.545C186.678 222.066 187.877 220.868 189.353 220.868L324.407 220.868C324.486 220.868 324.565 220.872 324.643 220.879L324.949 220.909C325.349 220.951 325.752 220.951 326.154 220.909L326.457 220.879C326.536 220.872 326.615 220.868 326.693 220.868C326.705 220.868 326.804 220.87 326.909 220.865C326.957 220.856 327.006 220.849 327.054 220.842C335.176 219.641 341.539 208.849 341.539 196.271C341.539 187.176 337.749 176.134 330.511 172.64C328.285 171.564 325.687 171.611 322.938 171.654C322.355 171.664 321.774 171.675 321.193 171.675L288.119 171.675C286.643 171.675 285.445 170.477 285.445 168.998C285.445 167.522 286.643 166.323 288.119 166.323L321.193 166.323C321.742 166.323 322.295 166.314 322.848 166.305C325.951 166.259 329.465 166.194 332.837 167.823C342.543 172.511 346.886 185.489 346.886 196.271C346.886 211.691 338.698 224.528 327.836 226.134L327.832 226.113C327.54 226.171 327.209 226.21 326.837 226.217L326.684 226.233C326.307 226.268 325.932 226.303 325.55 226.303" fill="#01a77f" fill-rule="nonzero" opacity="1" stroke="none"/>
<path d="M289.164 344.363L171.591 344.363C170.114 344.363 168.916 343.164 168.916 341.688L168.916 200.321C168.916 198.843 170.114 197.647 171.591 197.647C173.067 197.647 174.266 198.843 174.266 200.321L174.266 339.011L289.164 339.011C290.64 339.011 291.839 340.209 291.839 341.688C291.839 343.164 290.64 344.363 289.164 344.363" fill="#01a77f" fill-rule="nonzero" opacity="1" stroke="none"/>
<path d="M324.317 344.363L304.253 344.363C302.775 344.363 301.578 343.164 301.578 341.688C301.578 340.209 302.775 339.011 304.253 339.011L321.642 339.011L321.642 223.895C321.642 222.416 322.84 221.218 324.317 221.218C325.793 221.218 326.991 222.416 326.991 223.895L326.991 341.688C326.991 343.164 325.793 344.363 324.317 344.363" fill="#01a77f" fill-rule="nonzero" opacity="1" stroke="none"/>
<path d="M188.368 212.298C186.892 212.298 185.694 211.099 185.694 209.623L185.694 184.686C185.694 183.21 186.892 182.012 188.368 182.012C189.845 182.012 191.043 183.21 191.043 184.686L191.043 209.623C191.043 211.099 189.845 212.298 188.368 212.298" fill="#01a77f" fill-rule="nonzero" opacity="1" stroke="none"/>
<path d="M247.694 141.884C246.218 141.884 245.019 140.685 245.019 139.209L245.019 128.679C245.019 127.2 246.218 126.004 247.694 126.004C249.17 126.004 250.369 127.2 250.369 128.679L250.369 139.209C250.369 140.685 249.17 141.884 247.694 141.884" fill="#01a77f" fill-rule="nonzero" opacity="1" stroke="none"/>
<path d="M252.959 136.619L242.429 136.619C240.953 136.619 239.754 135.42 239.754 133.944C239.754 132.465 240.953 131.267 242.429 131.267L252.959 131.267C254.435 131.267 255.634 132.465 255.634 133.944C255.634 135.42 254.435 136.619 252.959 136.619" fill="#01a77f" fill-rule="nonzero" opacity="1" stroke="none"/>
<path d="M109.558 301.988C108.081 301.988 106.883 300.79 106.883 299.313L106.883 288.783C106.883 287.305 108.081 286.108 109.558 286.108C111.034 286.108 112.232 287.305 112.232 288.783L112.232 299.313C112.232 300.79 111.034 301.988 109.558 301.988" fill="#01a77f" fill-rule="nonzero" opacity="1" stroke="none"/>
<path d="M114.823 296.723L104.292 296.723C102.816 296.723 101.617 295.525 101.617 294.048C101.617 292.57 102.816 291.371 104.292 291.371L114.823 291.371C116.299 291.371 117.497 292.57 117.497 294.048C117.497 295.525 116.299 296.723 114.823 296.723" fill="#01a77f" fill-rule="nonzero" opacity="1" stroke="none"/>
<path d="M252.22 379.265C250.744 379.265 249.546 378.066 249.546 376.59L249.546 366.057C249.546 364.579 250.744 363.382 252.22 363.382C253.697 363.382 254.895 364.579 254.895 366.057L254.895 376.59C254.895 378.066 253.697 379.265 252.22 379.265" fill="#01a77f" fill-rule="nonzero" opacity="1" stroke="none"/>
<path d="M257.486 374L246.956 374C245.48 374 244.281 372.801 244.281 371.325C244.281 369.846 245.48 368.648 246.956 368.648L257.486 368.648C258.962 368.648 260.161 369.846 260.161 371.325C260.161 372.801 258.962 374 257.486 374" fill="#01a77f" fill-rule="nonzero" opacity="1" stroke="none"/>
<path d="M378.065 224.224C376.589 224.224 375.39 223.025 375.39 221.549L375.39 211.016C375.39 209.538 376.589 208.342 378.065 208.342C379.541 208.342 380.74 209.538 380.74 211.016L380.74 221.549C380.74 223.025 379.541 224.224 378.065 224.224" fill="#01a77f" fill-rule="nonzero" opacity="1" stroke="none"/>
<path d="M383.33 218.959L372.799 218.959C371.323 218.959 370.125 217.76 370.125 216.284C370.125 214.805 371.323 213.607 372.799 213.607L383.33 213.607C384.806 213.607 386.004 214.805 386.004 216.284C386.004 217.76 384.806 218.959 383.33 218.959" fill="#01a77f" fill-rule="nonzero" opacity="1" stroke="none"/>
<path d="M371.894 329.887C370.417 329.887 369.219 328.689 369.219 327.213L369.219 316.68C369.219 315.202 370.417 314.005 371.894 314.005C373.37 314.005 374.569 315.202 374.569 316.68L374.569 327.213C374.569 328.689 373.37 329.887 371.894 329.887" fill="#01a77f" fill-rule="nonzero" opacity="1" stroke="none"/>
<path d="M377.159 324.623L366.628 324.623C365.152 324.623 363.954 323.424 363.954 321.948C363.954 320.469 365.152 319.271 366.628 319.271L377.159 319.271C378.635 319.271 379.833 320.469 379.833 321.948C379.833 323.424 378.635 324.623 377.159 324.623" fill="#01a77f" fill-rule="nonzero" opacity="1" stroke="none"/>
<path d="M112.988 219.648C111.511 219.648 110.313 218.449 110.313 216.973L110.313 206.443C110.313 204.964 111.511 203.768 112.988 203.768C114.464 203.768 115.662 204.964 115.662 206.443L115.662 216.973C115.662 218.449 114.464 219.648 112.988 219.648" fill="#01a77f" fill-rule="nonzero" opacity="1" stroke="none"/>
<path d="M118.253 214.383L107.722 214.383C106.246 214.383 105.047 213.185 105.047 211.708C105.047 210.23 106.246 209.031 107.722 209.031L118.253 209.031C119.729 209.031 120.927 210.23 120.927 211.708C120.927 213.185 119.729 214.383 118.253 214.383" fill="#01a77f" fill-rule="nonzero" opacity="1" stroke="none"/>
</g>
<g opacity="0">
<path d="M250.001 52.7383C141.228 52.7383 52.7371 141.229 52.7371 250C52.7371 358.774 141.228 447.264 250.001 447.264C358.772 447.264 447.263 358.774 447.263 250C447.263 141.229 358.772 52.7383 250.001 52.7383M250.001 452.614C138.28 452.614 47.3875 361.721 47.3875 250C47.3875 138.281 138.28 47.3864 250.001 47.3864C361.72 47.3864 452.612 138.281 452.612 250C452.612 361.721 361.72 452.614 250.001 452.614" fill="#01a77f" fill-rule="nonzero" opacity="1" stroke="none"/>
<path d="M188.603 254.465L202.063 257.662C204.312 258.222 206.112 259.743 207.03 261.841C207.947 263.945 207.838 266.305 206.725 268.318C204.332 272.679 205.795 278.323 210.055 281.16C211.404 281.893 225.016 289.459 228.848 293.798C230.576 295.753 232.869 301.32 233.531 302.981C235.382 306.667 234.623 311.348 231.546 314.426L229.026 316.945C228.42 317.552 228.42 318.535 229.026 319.141L234.07 324.19C235.977 326.092 237.027 328.626 237.027 331.326C237.027 339.542 239.003 348.023 242.596 355.207L245.646 361.309C246.208 362.428 248.108 362.299 248.511 361.103C251.928 350.857 258.455 341.072 268.472 331.185C272.012 327.688 273.963 323.021 273.963 318.044L273.963 309.585C273.963 308.729 273.266 308.032 272.408 308.032L264.95 308.032C259.71 308.032 254.999 305.122 252.657 300.434C251.174 297.474 248.781 295.012 245.736 293.323C243.11 291.861 240.366 291.121 237.58 291.121L232.737 291.121C231.724 291.121 230.798 290.547 230.345 289.64L229.058 287.067C226.117 281.183 228.697 274.07 234.931 270.87C238.091 269.248 240.135 265.645 240.135 261.693L240.135 258.845C240.135 255.039 243.23 251.94 247.037 251.94L252.141 251.94C255.406 251.94 258.372 250.413 260.279 247.752C262.181 245.091 262.669 241.794 261.616 238.705L256.655 223.371C252.213 222.77 247.608 222.612 247.037 222.612C224.123 222.612 201.574 235.005 188.603 254.465M247.037 367.514C244.41 367.514 242.046 366.057 240.863 363.703L237.811 357.597C233.855 349.686 231.675 340.354 231.675 331.326C231.675 330.058 231.182 328.866 230.291 327.975L225.243 322.924C222.552 320.233 222.552 315.853 225.243 313.162L227.762 310.642C229.209 309.196 229.567 306.996 228.653 305.166C227.369 301.972 225.606 298.208 224.838 297.338C222.11 294.249 211.239 287.909 207.28 285.729C200.535 281.247 198.319 272.52 202.039 265.738C202.347 265.18 202.377 264.555 202.127 263.982C201.878 263.41 201.405 263.01 200.799 262.862L183.732 258.806C182.904 258.609 182.219 258.03 181.888 257.248C181.555 256.464 181.615 255.573 182.048 254.84C195.565 232.014 221.073 217.263 247.037 217.263C247.768 217.263 253.828 217.462 259.127 218.332C260.112 218.494 260.929 219.195 261.237 220.148L266.69 237.021C268.294 241.722 267.549 246.783 264.626 250.864C261.706 254.948 257.155 257.292 252.141 257.292L247.037 257.292C246.181 257.292 245.484 257.986 245.484 258.845L245.484 261.693C245.484 267.63 242.3 273.1 237.372 275.627C233.778 277.471 232.228 281.446 233.845 284.677L234.392 285.769L237.58 285.769C241.287 285.769 244.906 286.738 248.337 288.647C252.324 290.861 255.471 294.112 257.44 298.041C258.872 300.903 261.75 302.683 264.95 302.683L272.408 302.683C276.214 302.683 279.312 305.781 279.312 309.585L279.312 318.044C279.312 324.461 276.797 330.481 272.232 334.991C262.829 344.272 256.729 353.367 253.585 362.794C252.645 365.617 250.012 367.514 247.037 367.514" fill="#01a77f" fill-rule="nonzero" opacity="1" stroke="none"/>
<path d="M292.251 237.895L289.491 246.179C289.146 247.201 288.57 248.132 287.825 248.872L283.308 253.389C281.441 255.256 280.414 257.736 280.414 260.376L280.414 265.282C280.414 270.731 284.847 275.164 290.296 275.164C294.079 275.164 297.157 278.242 297.157 282.025L297.157 288.422C297.157 289.485 296.907 290.547 296.432 291.491L294.998 294.348C293.457 297.43 293.619 301.026 295.433 303.962C297.244 306.898 300.391 308.65 303.844 308.65L315.845 308.65C317.132 303.877 318.335 297.069 318.335 290.396C318.335 270.807 308.649 251.436 292.251 237.895M317.858 314.002L303.844 314.002C298.522 314.002 293.676 311.299 290.881 306.774C288.084 302.248 287.836 296.708 290.215 291.953L291.65 289.094C291.751 288.89 291.807 288.654 291.807 288.422L291.807 282.025C291.807 281.192 291.131 280.516 290.296 280.516C281.897 280.516 275.062 273.681 275.062 265.282L275.062 260.376C275.062 256.309 276.649 252.484 279.525 249.608L284.046 245.084C284.211 244.922 284.34 244.707 284.417 244.48L288.378 232.599C288.649 231.782 289.296 231.148 290.115 230.891C290.932 230.637 291.828 230.787 292.517 231.301C312.034 245.894 323.687 267.987 323.687 290.396C323.687 298.601 321.996 306.993 320.415 312.114C320.068 313.236 319.032 314.002 317.858 314.002" fill="#01a77f" fill-rule="nonzero" opacity="1" stroke="none"/>
<path d="M248.006 222.254C209.096 222.254 177.441 253.91 177.441 292.819C177.441 331.729 209.096 363.384 248.006 363.384C286.915 363.384 318.571 331.729 318.571 292.819C318.571 253.91 286.915 222.254 248.006 222.254M248.006 368.736C206.146 368.736 172.089 334.679 172.089 292.819C172.089 250.96 206.146 216.902 248.006 216.902C289.866 216.902 323.923 250.96 323.923 292.819C323.923 334.679 289.866 368.736 248.006 368.736" fill="#01a77f" fill-rule="nonzero" opacity="1" stroke="none"/>
<path d="M205.252 139.968C205.275 151.396 206.265 167.239 214.079 175.058C217.51 178.107 222.059 179.759 226.817 179.539C231.963 179.762 236.741 178.091 240.501 174.907C245.825 169.564 246.85 155.307 240.336 148.793C232.52 140.982 216.677 139.991 205.252 139.968M225.856 184.905C220.262 184.905 214.745 182.811 210.409 178.947C200.978 169.518 199.9 151.942 199.9 139.533C199.9 136.824 202.107 134.616 204.817 134.616C217.224 134.616 234.799 135.694 244.12 145.012C252.829 153.719 251.501 171.45 244.12 178.841C239.173 183.033 233.117 185.157 226.824 184.884C226.502 184.898 226.178 184.905 225.856 184.905" fill="#01a77f" fill-rule="nonzero" opacity="1" stroke="none"/>
<path d="M276.757 188.394C281.718 188.593 286.276 186.964 289.821 183.808C297.524 176.101 298.512 160.258 298.537 148.825C287.109 148.848 271.264 149.841 263.448 157.655C256.939 164.164 257.959 178.419 263.448 183.912C267.046 186.943 271.819 188.607 276.757 188.394M277.747 193.76C277.414 193.76 277.083 193.753 276.75 193.741C270.69 193.95 264.616 191.895 259.831 187.848C252.283 180.31 250.958 162.581 259.665 153.872C268.987 144.554 286.563 143.476 298.974 143.476C301.679 143.476 303.882 145.676 303.889 148.381C303.889 160.797 302.811 178.377 293.491 187.695C289.046 191.659 283.523 193.76 277.747 193.76" fill="#01a77f" fill-rule="nonzero" opacity="1" stroke="none"/>
<path d="M251.206 222.638C249.829 222.638 248.672 221.595 248.545 220.218C243.922 171.424 217.088 153.339 216.817 153.161C215.582 152.353 215.235 150.694 216.044 149.459C216.85 148.223 218.506 147.876 219.744 148.684C220.809 149.382 243.292 164.533 251.562 204.292C255.067 192.82 262.597 176.956 278.743 163.499C279.879 162.548 281.565 162.708 282.509 163.841C283.456 164.975 283.303 166.664 282.169 167.608C255.542 189.798 253.892 219.783 253.878 220.084C253.816 221.486 252.677 222.601 251.27 222.638L251.206 222.638Z" fill="#01a77f" fill-rule="nonzero" opacity="1" stroke="none"/>
<path d="M349.304 152.776C347.826 152.776 346.629 151.577 346.629 150.101L346.629 139.568C346.629 138.09 347.826 136.894 349.304 136.894C350.783 136.894 351.979 138.09 351.979 139.568L351.979 150.101C351.979 151.577 350.783 152.776 349.304 152.776" fill="#01a77f" fill-rule="nonzero" opacity="1" stroke="none"/>
<path d="M354.569 147.511L344.039 147.511C342.563 147.511 341.364 146.312 341.364 144.836C341.364 143.358 342.563 142.159 344.039 142.159L354.569 142.159C356.048 142.159 357.244 143.358 357.244 144.836C357.244 146.312 356.048 147.511 354.569 147.511" fill="#01a77f" fill-rule="nonzero" opacity="1" stroke="none"/>
<path d="M144.034 233.74C142.556 233.74 141.36 232.541 141.36 231.065L141.36 220.532C141.36 219.054 142.556 217.858 144.034 217.858C145.513 217.858 146.709 219.054 146.709 220.532L146.709 231.065C146.709 232.541 145.513 233.74 144.034 233.74" fill="#01a77f" fill-rule="nonzero" opacity="1" stroke="none"/>
<path d="M149.299 228.472L138.769 228.472C137.293 228.472 136.094 227.274 136.094 225.798C136.094 224.319 137.293 223.121 138.769 223.121L149.299 223.121C150.778 223.121 151.974 224.319 151.974 225.798C151.974 227.274 150.778 228.472 149.299 228.472" fill="#01a77f" fill-rule="nonzero" opacity="1" stroke="none"/>
<path d="M399.14 240.514C397.661 240.514 396.465 239.315 396.465 237.839L396.465 227.307C396.465 225.828 397.661 224.632 399.14 224.632C400.618 224.632 401.814 225.828 401.814 227.307L401.814 237.839C401.814 239.315 400.618 240.514 399.14 240.514" fill="#01a77f" fill-rule="nonzero" opacity="1" stroke="none"/>
<path d="M404.405 235.249L393.874 235.249C392.398 235.249 391.199 234.051 391.199 232.575C391.199 231.096 392.398 229.897 393.874 229.897L404.405 229.897C405.883 229.897 407.079 231.096 407.079 232.575C407.079 234.051 405.883 235.249 404.405 235.249" fill="#01a77f" fill-rule="nonzero" opacity="1" stroke="none"/>
<path d="M146.003 141.478C144.524 141.478 143.328 140.279 143.328 138.803L143.328 128.273C143.328 126.794 144.524 125.598 146.003 125.598C147.481 125.598 148.677 126.794 148.677 128.273L148.677 138.803C148.677 140.279 147.481 141.478 146.003 141.478" fill="#01a77f" fill-rule="nonzero" opacity="1" stroke="none"/>
<path d="M151.268 136.213L140.737 136.213C139.261 136.213 138.062 135.014 138.062 133.538C138.062 132.059 139.261 130.861 140.737 130.861L151.268 130.861C152.746 130.861 153.942 132.059 153.942 133.538C153.942 135.014 152.746 136.213 151.268 136.213" fill="#01a77f" fill-rule="nonzero" opacity="1" stroke="none"/>
<path d="M100.781 299.151C99.3025 299.151 98.1062 297.952 98.1062 296.476L98.1062 285.946C98.1062 284.467 99.3025 283.271 100.781 283.271C102.26 283.271 103.456 284.467 103.456 285.946L103.456 296.476C103.456 297.952 102.26 299.151 100.781 299.151" fill="#01a77f" fill-rule="nonzero" opacity="1" stroke="none"/>
<path d="M106.046 293.886L95.5156 293.886C94.0394 293.886 92.8408 292.688 92.8408 291.211C92.8408 289.733 94.0394 288.534 95.5156 288.534L106.046 288.534C107.524 288.534 108.721 289.733 108.721 291.211C108.721 292.688 107.524 293.886 106.046 293.886" fill="#01a77f" fill-rule="nonzero" opacity="1" stroke="none"/>
<path d="M369.037 335.009C367.559 335.009 366.363 333.81 366.363 332.334L366.363 321.801C366.363 320.323 367.559 319.126 369.037 319.126C370.516 319.126 371.712 320.323 371.712 321.801L371.712 332.334C371.712 333.81 370.516 335.009 369.037 335.009" fill="#01a77f" fill-rule="nonzero" opacity="1" stroke="none"/>
<path d="M374.304 329.744L363.772 329.744C362.295 329.744 361.097 328.545 361.097 327.069C361.097 325.59 362.295 324.392 363.772 324.392L374.304 324.392C375.783 324.392 376.979 325.59 376.979 327.069C376.979 328.545 375.783 329.744 374.304 329.744" fill="#01a77f" fill-rule="nonzero" opacity="1" stroke="none"/>
<path d="M145.883 362.58C144.404 362.58 143.208 361.382 143.208 359.906L143.208 349.375C143.208 347.897 144.404 346.7 145.883 346.7C147.361 346.7 148.558 347.897 148.558 349.375L148.558 359.906C148.558 361.382 147.361 362.58 145.883 362.58" fill="#01a77f" fill-rule="nonzero" opacity="1" stroke="none"/>
<path d="M151.148 357.315L140.617 357.315C139.141 357.315 137.943 356.117 137.943 354.641C137.943 353.162 139.141 351.964 140.617 351.964L151.148 351.964C152.626 351.964 153.823 353.162 153.823 354.641C153.823 356.117 152.626 357.315 151.148 357.315" fill="#01a77f" fill-rule="nonzero" opacity="1" stroke="none"/>
</g>
</g>
</svg>
