<?xml version="1.0" encoding="UTF-8" standalone="no"?>
<!DOCTYPE svg PUBLIC "-//W3C//DTD SVG 1.1//EN" "http://www.w3.org/Graphics/SVG/1.1/DTD/svg11.dtd">
<!-- Created with Vectornator (http://vectornator.io/) -->
<svg height="100%" stroke-miterlimit="10" style="fill-rule:nonzero;clip-rule:evenodd;stroke-linecap:round;stroke-linejoin:round;" version="1.1" viewBox="0 0 768 768" width="100%" xml:space="preserve" xmlns="http://www.w3.org/2000/svg" xmlns:vectornator="http://vectornator.io" xmlns:xlink="http://www.w3.org/1999/xlink">
<defs/>
<g id="Untitled" vectornator:layerName="Untitled">
<path d="M474.914 34.2188C469.27 51.6484 461.5 68.5859 453.457 86.125C447.02 100.16 440.555 114.348 435.023 129.105C461.77 139.559 485.742 154.852 506.645 174.84C490.68 129.836 480.293 70.6953 474.914 34.2188Z" fill="#63ab91" fill-rule="nonzero" opacity="1" stroke="none"/>
<path d="M541.34 77.6172C521.141 62.5938 501.742 46.1445 485.918 25.5391C489.734 52.2695 496.816 95.5078 507.246 135.18C512.824 111.32 525.188 90.0664 541.34 77.6172Z" fill="#63ab91" fill-rule="nonzero" opacity="1" stroke="none"/>
<path d="M566.719 258.672C571.199 264.906 575.711 271.055 580.203 277.137C600.688 304.934 620.035 331.18 632.816 362.422C637.957 375.004 640.992 388.461 642.527 402.012C656.629 377.84 680.66 322.344 671.953 234.758C668.496 199.961 655.227 174.371 636.695 153.172C590.812 176.277 567.879 210.836 566.719 258.672Z" fill="#63ab91" fill-rule="nonzero" opacity="1" stroke="none"/>
<path d="M524.453 187.309C533.195 207.609 544.133 225.816 555.789 243.016C561.238 199.691 585.496 166.465 628.098 143.996C610.691 126.59 589.82 111.969 568.418 97C562.816 93.082 557.191 89.1172 551.582 85.1016C533.219 97.5508 515.363 128.43 516.082 165.043C518.715 172.926 521.496 180.449 524.453 187.309Z" fill="#63ab91" fill-rule="nonzero" opacity="1" stroke="none"/>
<path d="M449.062 309.52C503.941 303.039 558.316 300.938 596.578 321.035C588.449 308.754 579.598 296.68 570.48 284.305C553.402 261.141 535.895 237.262 521.695 209.586C497.215 177.68 466.695 154.539 431.012 140.508C419.242 176.227 414.305 215.898 429.906 265.691C435.121 282.336 441.617 296.766 449.062 309.52Z" fill="#63ab91" fill-rule="nonzero" opacity="1" stroke="none"/>
<path d="M456.258 320.855C477.73 352.496 505.211 373.32 532.102 393.629C566.852 419.875 602.668 446.918 622.312 496.441C629.43 467.543 639.422 410.512 621.625 367C619.031 360.656 616.082 354.539 612.941 348.523C581.016 313.316 519.531 313.738 456.258 320.855Z" fill="#63ab91" fill-rule="nonzero" opacity="1" stroke="none"/>
<path d="M124.695 136.402C124.695 132.816 121.781 129.902 118.199 129.902L116.5 129.902C112.918 129.902 110.004 132.816 110.004 136.402L110.004 197.82L124.699 197.82L124.699 136.402L124.695 136.402Z" fill="#63ab91" fill-rule="nonzero" opacity="1" stroke="none"/>
<path d="M208.367 136.402C208.367 132.816 205.457 129.902 201.871 129.902L200.176 129.902C196.59 129.902 193.672 132.816 193.672 136.402L193.672 197.82L208.367 197.82L208.367 136.402Z" fill="#63ab91" fill-rule="nonzero" opacity="1" stroke="none"/>
<path d="M628.555 518.855C628.555 518.863 628.555 518.863 628.555 518.855C594.262 620.312 544.531 714.195 414.02 714.195C347.012 714.195 284.441 673.602 237.84 599.891C198.047 536.949 173.938 455.539 172.699 380.855L145.105 380.855C147.469 556.676 252.656 742.508 408.48 742.508C490.215 742.508 559.953 705.129 604.836 637.266C641.664 581.594 654.98 513.203 642.152 454.633C638.363 489.52 629.25 516.824 628.555 518.855Z" fill="#63ab91" fill-rule="nonzero" opacity="1" stroke="none"/>
<path d="M134.223 356.312L184.145 356.312L184.145 368.77L134.223 368.77L134.223 356.312Z" fill="#63ab91" fill-rule="nonzero" opacity="1" stroke="none"/>
<g opacity="1">
<clipPath id="ClipPath">
<path d="M86.8906 209L232 209L232 316L86.8906 316L86.8906 209Z"/>
</clipPath>
<g clip-path="url(#ClipPath)">
<path d="M207.859 315.543C220.883 315.543 231.48 304.945 231.48 291.91L231.48 209.914L86.8906 209.914L86.8906 291.91C86.8906 304.938 97.4844 315.543 110.512 315.543L207.859 315.543Z" fill="#63ab91" fill-rule="nonzero" opacity="1" stroke="none"/>
</g>
</g>
<path d="M199.812 344.219L199.812 327.633L118.562 327.633L118.562 344.219L199.812 344.219Z" fill="#63ab91" fill-rule="nonzero" opacity="1" stroke="none"/>
</g>
</svg>
